<svg width="40" height="40" viewBox="0 0 40 40" fill="none" xmlns="http://www.w3.org/2000/svg">
<path fill-rule="evenodd" clip-rule="evenodd" d="M10.3646 24.2136C8.80905 24.9612 8.15413 26.8284 8.90178 28.3839C9.64944 29.9394 11.5165 30.5944 13.0721 29.8467C14.6276 29.099 15.2825 27.2319 14.5349 25.6764C13.7872 24.1209 11.9201 23.4659 10.3646 24.2136ZM7.49351 29.0608C6.37203 26.7275 7.35441 23.9268 9.68772 22.8053C12.021 21.6838 14.8217 22.6662 15.9432 24.9995C17.0646 27.3328 16.0823 30.1335 13.749 31.255C11.4156 32.3765 8.61499 31.3941 7.49351 29.0608Z" fill="#3F3F3F"/>
<path fill-rule="evenodd" clip-rule="evenodd" d="M30.3428 24.0943C28.72 24.6818 27.8807 26.4736 28.4682 28.0965C29.0556 29.7193 30.8475 30.5586 32.4703 29.9711C34.0932 29.3837 34.9325 27.5918 34.345 25.969C33.7575 24.3461 31.9657 23.5068 30.3428 24.0943ZM26.9989 28.6283C26.1177 26.1941 27.3767 23.5063 29.811 22.6251C32.2452 21.7438 34.933 23.0028 35.8142 25.4371C36.6955 27.8714 35.4365 30.5591 33.0022 31.4404C30.5679 32.3216 27.8802 31.0626 26.9989 28.6283Z" fill="#3F3F3F"/>
<path fill-rule="evenodd" clip-rule="evenodd" d="M4.69019 8.99762C4.72394 8.5927 5.06243 8.28125 5.46874 8.28125H27.5002C27.9317 8.28125 28.2815 8.63103 28.2815 9.0625V10.625H34.1411C34.4531 10.625 34.7352 10.8106 34.8586 11.0972L37.3475 16.875H37.656C39.0152 16.875 39.9997 17.892 39.9997 19.2187V27.8124C39.9997 28.2439 39.6499 28.5937 39.2185 28.5937H35.3516C34.9201 28.5937 34.5703 28.2439 34.5703 27.8124C34.5703 27.381 34.9201 27.0312 35.3516 27.0312H38.4372V25.0781H34.2638C33.8323 25.0781 33.4825 24.7283 33.4825 24.2968C33.4825 23.8653 33.8323 23.5156 34.2638 23.5156H38.4372V19.2187C38.4372 18.742 38.1393 18.4375 37.656 18.4375H31.0164C30.5849 18.4375 30.2351 18.0877 30.2351 17.6562V12.1875H28.2815V23.5156H28.549C28.9804 23.5156 29.3302 23.8653 29.3302 24.2968C29.3302 24.7283 28.9804 25.0781 28.549 25.0781H14.5953C14.1639 25.0781 13.8141 24.7283 13.8141 24.2968C13.8141 23.8653 14.1639 23.5156 14.5953 23.5156H26.719V9.84374H6.18759L5.04828 23.5156H8.84146C9.27294 23.5156 9.62271 23.8653 9.62271 24.2968C9.62271 24.7283 9.27294 25.0781 8.84146 25.0781H4.91807L4.75531 27.0312H7.77311C8.20458 27.0312 8.55436 27.381 8.55436 27.8124C8.55436 28.2439 8.20458 28.5937 7.77311 28.5937H3.90625C3.68777 28.5937 3.47928 28.5022 3.33134 28.3414C3.18341 28.1806 3.10956 27.9653 3.1277 27.7475L4.69019 8.99762ZM31.7976 12.1875V16.875H35.6462L33.627 12.1875H31.7976ZM14.8825 27.8124C14.8825 27.381 15.2322 27.0312 15.6637 27.0312H27.4611C27.8926 27.0312 28.2423 27.381 28.2423 27.8124C28.2423 28.2439 27.8926 28.5937 27.4611 28.5937H15.6637C15.2322 28.5937 14.8825 28.2439 14.8825 27.8124Z" fill="#3F3F3F"/>
<path fill-rule="evenodd" clip-rule="evenodd" d="M0 20.4883C0 20.0568 0.349776 19.707 0.781247 19.707H6.1788C6.61027 19.707 6.96005 20.0568 6.96005 20.4883C6.96005 20.9197 6.61027 21.2695 6.1788 21.2695H0.781247C0.349776 21.2695 0 20.9197 0 20.4883Z" fill="#E43A2D"/>
<path fill-rule="evenodd" clip-rule="evenodd" d="M2.34375 16.6797C2.34375 16.2482 2.69353 15.8984 3.125 15.8984H11.6475C12.079 15.8984 12.4288 16.2482 12.4288 16.6797C12.4288 17.1112 12.079 17.4609 11.6475 17.4609H3.125C2.69353 17.4609 2.34375 17.1112 2.34375 16.6797Z" fill="#E43A2D"/>
<path fill-rule="evenodd" clip-rule="evenodd" d="M1.17188 12.8711C1.17188 12.4396 1.52165 12.0898 1.95312 12.0898H8.13193C8.5634 12.0898 8.91317 12.4396 8.91317 12.8711C8.91317 13.3026 8.5634 13.6523 8.13193 13.6523H1.95312C1.52165 13.6523 1.17188 13.3026 1.17188 12.8711Z" fill="#E43A2D"/>
<path fill-rule="evenodd" clip-rule="evenodd" d="M10.8662 12.8711C10.8662 12.4396 11.216 12.0898 11.6475 12.0898H14.5415C14.973 12.0898 15.3228 12.4396 15.3228 12.8711C15.3228 13.3026 14.973 13.6523 14.5415 13.6523H11.6475C11.216 13.6523 10.8662 13.3026 10.8662 12.8711Z" fill="#E43A2D"/>
<path fill-rule="evenodd" clip-rule="evenodd" d="M14.3818 16.6797C14.3818 16.2482 14.7316 15.8984 15.1631 15.8984H16.6101C17.0416 15.8984 17.3914 16.2482 17.3914 16.6797C17.3914 17.1112 17.0416 17.4609 16.6101 17.4609H15.1631C14.7316 17.4609 14.3818 17.1112 14.3818 16.6797Z" fill="#E43A2D"/>
</svg>
