<svg width="40" height="40" viewBox="0 0 40 40" fill="none" xmlns="http://www.w3.org/2000/svg">
<path d="M38.8975 24.2244H38.8974L38.8976 24.229C38.9583 25.5649 37.8648 26.6618 36.5236 26.6618H35.8444H35.7575L35.7454 26.748C35.4493 28.8663 33.6567 30.4679 31.4488 30.4679C29.2408 30.4679 27.4482 28.8663 27.1522 26.748L27.1401 26.6618H27.0531H13.0079H12.9209L12.9089 26.748C12.6128 28.8663 10.8202 30.4679 8.61225 30.4679C6.4043 30.4679 4.61171 28.8663 4.31563 26.748L4.30359 26.6618H4.21659H3.22024C2.07016 26.6618 1.1 25.6916 1.1 24.5416V18.8324C1.1 18.4225 1.27376 18.0662 1.51519 17.7617C1.8196 17.5203 2.17589 17.3465 2.58585 17.3465C3.38006 17.3465 4.11118 16.9493 4.5109 16.2836L7.68173 11.1469C8.48968 9.90459 9.8546 9.1 11.3399 9.1H24.2806C25.7685 9.1 27.1947 9.90672 27.9376 11.1448L27.9378 11.1452L30.0946 14.6976L30.0946 14.6976L30.0958 14.6996C31.1281 16.3126 32.9351 17.3466 34.8108 17.3466H37.4116C38.2444 17.3466 38.8975 17.9995 38.8975 18.8324V24.2244ZM11.0495 15.3435V15.4435H11.1495H19.396H19.496V15.3435V12.8062V12.7062H19.396H11.1495H11.0495V12.8062V15.3435ZM20.6648 12.7062H20.5648V12.8062V15.3435V15.4435H20.6648H29.062H29.2424L29.1468 15.2905L27.5609 12.7532L27.5315 12.7062H27.4761H20.6648ZM35.7453 25.5069L35.7573 25.5931H35.8443H36.46C37.2131 25.5931 37.8288 24.9774 37.8288 24.2244V21.687V20.4183V18.8959C37.8288 18.778 37.7891 18.672 37.7123 18.5952C37.6355 18.5184 37.5295 18.4787 37.4116 18.4787H34.8108C33.018 18.4787 31.3387 17.7646 30.1212 16.5417L30.0919 16.5123H30.0503H11.0227C10.4436 16.5123 9.9809 16.0495 9.9809 15.4704V12.6793C9.9809 12.1002 10.4436 11.6374 11.0227 11.6374H26.6955H26.8828L26.7786 11.4818C26.2128 10.6372 25.2721 10.1687 24.2806 10.1687H11.3399C10.2263 10.1687 9.17913 10.7581 8.59025 11.7391L5.4188 16.8768L5.4188 16.8768L5.41815 16.8779C4.86594 17.7983 3.75728 18.4152 2.64933 18.4152C2.48801 18.4152 2.3995 18.4971 2.33587 18.5604C2.26911 18.5962 2.22207 18.6387 2.19514 18.6925C2.16853 18.7458 2.16865 18.7982 2.16871 18.8283C2.16872 18.8297 2.16872 18.8311 2.16872 18.8324V20.4183V21.687V24.5416C2.16872 25.1043 2.65751 25.5931 3.22024 25.5931H4.21652H4.30351L4.31555 25.5069C4.59318 23.5205 6.18698 21.9893 8.2047 21.8062L8.20499 21.8062C8.21201 21.8055 8.21931 21.805 8.22811 21.8044L8.22862 21.8044L8.24853 21.8029L8.24936 21.8029C8.30161 21.7986 8.35177 21.7945 8.40223 21.7922L8.40237 21.7921C8.47211 21.7888 8.54201 21.7869 8.61218 21.7869C8.68235 21.7869 8.75225 21.7888 8.82199 21.7921L8.82212 21.7922C8.8687 21.7943 8.91505 21.798 8.96335 21.8019L8.96337 21.8019L8.97513 21.8029L8.97582 21.8029L8.99574 21.8044L8.99624 21.8044C9.00504 21.805 9.01235 21.8055 9.01938 21.8062L9.01965 21.8062C11.0374 21.9893 12.6312 23.5205 12.9088 25.5069L12.9208 25.5931H13.0078H27.0082H27.0946L27.1072 25.5076C27.4173 23.3986 29.216 21.787 31.3852 21.787C31.3893 21.787 31.3933 21.7871 31.3992 21.7873L31.4018 21.7874L31.4027 21.7874L31.4158 21.7877L31.4158 21.7878L31.4204 21.7877L31.4331 21.7874L31.4341 21.7874L31.436 21.7873L31.4486 21.787C33.6566 21.787 35.4492 23.3886 35.7453 25.5069ZM5.34041 26.1274C5.34041 27.9589 6.7808 29.3992 8.61218 29.3992C10.4436 29.3992 11.8839 27.9589 11.8839 26.1274C11.8839 24.2959 10.4436 22.8556 8.61218 22.8556C6.78072 22.8556 5.34041 24.296 5.34041 26.1274ZM28.1769 26.1274C28.1769 27.9589 29.6173 29.3992 31.4487 29.3992C33.2801 29.3992 34.7205 27.9589 34.7205 26.1274C34.7205 24.2959 33.2801 22.8556 31.4487 22.8556C29.6173 22.8556 28.1769 24.296 28.1769 26.1274Z" fill="#3F3F3F" stroke="#3F3F3F" stroke-width="0.2"/>
<path d="M2.26872 21.687H4.17177C4.55237 21.687 4.80609 21.4333 4.80609 21.0527C4.80609 20.6721 4.55237 20.4183 4.17177 20.4183H2.26872V21.687Z" fill="#E43A2D"/>
<path d="M37.7288 20.4183H35.8892C35.5086 20.4183 35.2549 20.6721 35.2549 21.0527C35.2549 21.4333 35.5086 21.687 35.8892 21.687H37.7288V20.4183Z" fill="#E43A2D"/>
</svg>
