<svg width="24" height="24" viewBox="0 0 24 24" fill="none" xmlns="http://www.w3.org/2000/svg">
<path d="M4 7.2002V16.8002C4 17.9203 4 18.4801 4.21799 18.9079C4.40973 19.2842 4.71547 19.5905 5.0918 19.7822C5.5192 20 6.07899 20 7.19691 20H16.8031C17.921 20 18.48 20 18.9074 19.7822C19.2837 19.5905 19.5905 19.2842 19.7822 18.9079C20 18.4805 20 17.9215 20 16.8036V7.19691M4 7.2002C4 6.08009 4 5.51962 4.21799 5.0918C4.40973 4.71547 4.71547 4.40973 5.0918 4.21799C5.51962 4 6.08009 4 7.2002 4H8M4 7.2002H12L20 7.19691M20 7.19691C20 6.07899 20 5.5192 19.7822 5.0918C19.5905 4.71547 19.2837 4.40973 18.9074 4.21799C18.4796 4 17.9203 4 16.8002 4H16M16 2V4M16 4H8M16 4V4.5M8 2V4M8 4V4.5" stroke="#3EB16C" stroke-width="1.7" stroke-linecap="round" stroke-linejoin="round"/>
<path d="M12.2584 17.5C11.5618 17.5 10.97 17.3459 10.4831 17.0378C10.0037 16.7297 9.6367 16.2859 9.38202 15.7063C9.12734 15.1194 9 14.4078 9 13.5715C9 12.9333 9.0824 12.3611 9.24719 11.8549C9.41199 11.3487 9.65169 10.9232 9.96629 10.5784C10.2809 10.2263 10.6629 9.95851 11.1124 9.7751C11.5618 9.5917 12.0712 9.5 12.6404 9.5C12.9476 9.5 13.2584 9.53668 13.573 9.61004C13.8876 9.6834 14.1873 9.79344 14.4719 9.94016C14.6517 10.0282 14.7753 10.1492 14.8427 10.3033C14.9101 10.45 14.9326 10.6077 14.9101 10.7765C14.8951 10.9379 14.839 11.0846 14.7416 11.2166C14.6442 11.3414 14.5131 11.4294 14.3483 11.4807C14.191 11.5321 14.0112 11.5138 13.809 11.4257C13.5843 11.323 13.3745 11.2533 13.1798 11.2166C12.985 11.18 12.7978 11.1616 12.618 11.1616C12.2434 11.1616 11.9326 11.2387 11.6854 11.3927C11.4382 11.5394 11.2509 11.7668 11.1236 12.075C10.9963 12.3757 10.9326 12.7536 10.9326 13.2084V13.7806H10.764C10.8315 13.4652 10.9551 13.1974 11.1348 12.9773C11.3146 12.7499 11.5356 12.5775 11.7978 12.4601C12.0674 12.3427 12.367 12.284 12.6966 12.284C13.1386 12.284 13.5318 12.3941 13.8764 12.6142C14.221 12.8269 14.4944 13.124 14.6966 13.5055C14.8989 13.887 15 14.3198 15 14.804C15 15.3322 14.8839 15.798 14.6517 16.2015C14.4195 16.605 14.0974 16.9241 13.6854 17.1589C13.2734 17.3863 12.7978 17.5 12.2584 17.5ZM12.1461 15.9594C12.3408 15.9594 12.5094 15.9154 12.6517 15.8274C12.8015 15.7393 12.9139 15.6146 12.9888 15.4532C13.0712 15.2918 13.1124 15.1048 13.1124 14.892C13.1124 14.6719 13.0712 14.4849 12.9888 14.3308C12.9139 14.1694 12.8015 14.0447 12.6517 13.9567C12.5094 13.8613 12.3408 13.8136 12.1461 13.8136C11.9588 13.8136 11.7903 13.8613 11.6404 13.9567C11.4981 14.0447 11.3858 14.1694 11.3034 14.3308C11.221 14.4849 11.1798 14.6719 11.1798 14.892C11.1798 15.1048 11.221 15.2918 11.3034 15.4532C11.3858 15.6146 11.4981 15.7393 11.6404 15.8274C11.7903 15.9154 11.9588 15.9594 12.1461 15.9594Z" fill="#3EB16C"/>
</svg>
