<svg width="20" height="20" viewBox="0 0 20 20" fill="none" xmlns="http://www.w3.org/2000/svg">
<path d="M6.66602 1.66602V4.16602" stroke="white" stroke-width="1.25" stroke-miterlimit="10" stroke-linecap="round" stroke-linejoin="round"/>
<path d="M13.334 1.66602V4.16602" stroke="white" stroke-width="1.25" stroke-miterlimit="10" stroke-linecap="round" stroke-linejoin="round"/>
<path d="M2.91602 7.57422H17.0827" stroke="white" stroke-width="1.25" stroke-miterlimit="10" stroke-linecap="round" stroke-linejoin="round"/>
<path d="M16.0085 13.1435L13.0585 16.0935C12.9419 16.2102 12.8335 16.4269 12.8085 16.5852L12.6502 17.7102C12.5919 18.1185 12.8752 18.4019 13.2835 18.3435L14.4085 18.1852C14.5669 18.1602 14.7919 18.0519 14.9002 17.9352L17.8502 14.9852C18.3585 14.4769 18.6002 13.8852 17.8502 13.1352C17.1085 12.3935 16.5169 12.6352 16.0085 13.1435Z" stroke="white" stroke-width="1.25" stroke-miterlimit="10" stroke-linecap="round" stroke-linejoin="round"/>
<path d="M15.584 13.5703C15.834 14.4703 16.534 15.1703 17.434 15.4203" stroke="white" stroke-width="1.25" stroke-miterlimit="10" stroke-linecap="round" stroke-linejoin="round"/>
<path d="M10 18.3346H6.66667C3.75 18.3346 2.5 16.668 2.5 14.168V7.08464C2.5 4.58464 3.75 2.91797 6.66667 2.91797H13.3333C16.25 2.91797 17.5 4.58464 17.5 7.08464V10.0013" stroke="white" stroke-width="1.25" stroke-miterlimit="10" stroke-linecap="round" stroke-linejoin="round"/>
<path d="M9.99607 11.4106H10.0036" stroke="white" stroke-width="1.66667" stroke-linecap="round" stroke-linejoin="round"/>
<path d="M6.91209 11.4106H6.91957" stroke="white" stroke-width="1.66667" stroke-linecap="round" stroke-linejoin="round"/>
<path d="M6.91209 13.9126H6.91957" stroke="white" stroke-width="1.66667" stroke-linecap="round" stroke-linejoin="round"/>
</svg>
