<svg width="40" height="40" viewBox="0 0 40 40" fill="none" xmlns="http://www.w3.org/2000/svg">
<path d="M19.9997 37.9168C10.1163 37.9168 2.08301 29.8835 2.08301 20.0002C2.08301 10.1168 10.1163 2.0835 19.9997 2.0835C29.883 2.0835 37.9163 10.1168 37.9163 20.0002C37.9163 29.8835 29.883 37.9168 19.9997 37.9168ZM19.9997 4.5835C11.4997 4.5835 4.58301 11.5002 4.58301 20.0002C4.58301 28.5002 11.4997 35.4168 19.9997 35.4168C28.4997 35.4168 35.4163 28.5002 35.4163 20.0002C35.4163 11.5002 28.4997 4.5835 19.9997 4.5835Z" fill="#3EB16C"/>
<path d="M17.6334 25.9668C17.3001 25.9668 16.9834 25.8335 16.7501 25.6002L12.0334 20.8835C11.5501 20.4002 11.5501 19.6002 12.0334 19.1168C12.5167 18.6335 13.3167 18.6335 13.8001 19.1168L17.6334 22.9502L26.2001 14.3835C26.6834 13.9002 27.4834 13.9002 27.9667 14.3835C28.4501 14.8668 28.4501 15.6668 27.9667 16.1502L18.5167 25.6002C18.2834 25.8335 17.9667 25.9668 17.6334 25.9668Z" fill="#3EB16C"/>
</svg>
