<svg width="12" height="13" viewBox="0 0 12 13" fill="none" xmlns="http://www.w3.org/2000/svg">
<path d="M4.5 5V3.6001C4.5 3.04005 4.5 2.75981 4.60899 2.5459C4.70487 2.35774 4.85774 2.20487 5.0459 2.10899C5.25981 2 5.54004 2 6.1001 2H8.9001C9.46015 2 9.74003 2 9.95394 2.10899C10.1421 2.20487 10.2952 2.35774 10.3911 2.5459C10.5001 2.75981 10.5001 3.03984 10.5001 3.59989V6.3999C10.5001 6.95996 10.5001 7.23998 10.3911 7.45389C10.2952 7.64205 10.142 7.79524 9.95379 7.89111C9.74009 8 9.4605 8 8.90154 8H7.5M4.5 5H3.1001C2.54005 5 2.25981 5 2.0459 5.10899C1.85774 5.20487 1.70487 5.35774 1.60899 5.5459C1.5 5.75981 1.5 6.04005 1.5 6.6001V9.4001C1.5 9.96015 1.5 10.24 1.60899 10.4539C1.70487 10.6421 1.85774 10.7952 2.0459 10.8911C2.2596 11 2.5395 11 3.09845 11H5.90178C6.46073 11 6.74024 11 6.95394 10.8911C7.1421 10.7952 7.29524 10.642 7.39111 10.4538C7.5 10.2401 7.5 9.9605 7.5 9.40155V8M4.5 5H5.9001C6.46015 5 6.74003 5 6.95394 5.10899C7.1421 5.20487 7.29524 5.35774 7.39111 5.5459C7.5 5.7596 7.5 6.0395 7.5 6.59847L7.5 8" stroke="#3F3F3F" stroke-width="0.833333" stroke-linecap="round" stroke-linejoin="round"/>
</svg>
