<svg width="24" height="24" viewBox="0 0 24 24" fill="none" xmlns="http://www.w3.org/2000/svg">
<g clip-path="url(#clip0_1617_9356)">
<path d="M10.8223 2.18307C8.55456 2.46865 6.53394 3.47542 4.9349 5.11627C3.51029 6.57803 2.68169 8.17048 2.26497 10.2373C2.1196 10.9875 2.08084 12.4783 2.19713 13.2866C2.50241 15.4696 3.42307 17.3573 4.95428 18.9159C6.50972 20.5035 8.48672 21.4957 10.7254 21.8055C11.4474 21.9072 12.9689 21.883 13.6327 21.7619C14.912 21.5296 16.0459 21.1133 17.0634 20.4986C17.7854 20.0679 18.2458 19.7097 18.8999 19.0756C20.2373 17.7832 21.124 16.2634 21.5844 14.487C22.3742 11.4086 21.6474 8.11724 19.6413 5.71646C18.0083 3.76584 15.7697 2.52189 13.3032 2.20243C12.683 2.12499 11.3892 2.1153 10.8223 2.18307ZM12.494 3.82876C12.7605 3.94977 13.0028 4.17242 13.1385 4.42895C13.2209 4.579 13.2451 4.70969 13.2451 4.98558C13.2451 5.38733 13.1724 5.57125 12.9108 5.84715C12.6539 6.12305 12.4213 6.21985 12.0095 6.21985C11.5976 6.21985 11.365 6.12305 11.1082 5.84715C10.8465 5.57125 10.7738 5.38733 10.7738 4.98558C10.7738 4.70969 10.7981 4.579 10.8804 4.42895C11.1082 4.00301 11.5491 3.72711 12.0095 3.72711C12.1742 3.72711 12.3584 3.76584 12.494 3.82876ZM7.57575 5.90039C7.79865 5.9972 8.10876 6.32634 8.21052 6.56351C8.31712 6.82004 8.29774 7.29439 8.16207 7.57997C8.03123 7.86554 7.72596 8.14144 7.45945 8.21888C7.20264 8.29632 6.75684 8.29148 6.55817 8.2092C6.30136 8.09787 5.96701 7.7639 5.8701 7.5122C5.77319 7.25083 5.76349 6.87813 5.85071 6.61191C5.9234 6.39894 6.24321 6.03108 6.44672 5.92459C6.78592 5.75035 7.20748 5.74067 7.57575 5.90039ZM17.5092 5.90039C17.9405 6.094 18.2312 6.54899 18.2264 7.0427C18.2264 7.3912 18.1392 7.61869 17.8969 7.88006C17.6449 8.1608 17.3784 8.27696 16.9956 8.27696C16.6031 8.27696 16.2639 8.12692 16.0216 7.84618C15.8084 7.59449 15.7212 7.30891 15.7503 6.90233C15.7648 6.65063 15.7987 6.54415 15.9102 6.38442C16.3124 5.81811 16.9132 5.63902 17.5092 5.90039ZM12.6394 7.94299C14.2384 8.19952 15.5661 9.39507 15.9926 10.9633C16.1428 11.5151 16.1428 12.4977 15.9877 13.0446C15.5904 14.4919 14.5001 15.5809 13.0513 15.9827C12.4843 16.1376 11.5152 16.1327 10.9531 15.9778C9.22325 15.4938 8.02154 14.0224 7.91009 12.246C7.77442 10.1985 9.24263 8.33505 11.2778 7.96719C11.7333 7.8849 12.2227 7.87522 12.6394 7.94299ZM5.5406 10.881C5.76834 10.9972 6.00093 11.2344 6.12691 11.4715C6.18991 11.5925 6.21898 11.7426 6.21898 12.004C6.21898 12.4057 6.1463 12.5896 5.88463 12.8655C5.62782 13.1414 5.39523 13.2382 4.98335 13.2382C4.57148 13.2382 4.33889 13.1414 4.07723 12.8655C3.42307 12.1831 3.7235 11.0892 4.64416 10.7891C4.84283 10.7213 5.33224 10.7745 5.5406 10.881ZM19.5928 10.881C20.3536 11.2682 20.5232 12.2557 19.9417 12.8655C19.6801 13.1414 19.4475 13.2382 19.0356 13.2382C18.6237 13.2382 18.3911 13.1414 18.1343 12.8655C17.8726 12.5896 17.8 12.4057 17.8 12.004C17.8 11.6022 17.8726 11.4183 18.1343 11.1424C18.2845 10.9778 18.4735 10.8617 18.6964 10.7891C18.8951 10.7213 19.3845 10.7745 19.5928 10.881ZM7.45945 15.7891C7.92948 15.9246 8.27836 16.4377 8.27836 16.9798C8.27836 17.3525 8.20083 17.5461 7.93917 17.8316C7.60967 18.185 7.08634 18.3157 6.61147 18.1511C6.34012 18.064 5.9767 17.7058 5.8701 17.4347C5.76349 17.1492 5.76349 16.7813 5.8701 16.4957C5.96701 16.2489 6.29651 15.9101 6.54848 15.8036C6.73746 15.7213 7.20748 15.7116 7.45945 15.7891ZM17.4559 15.7987C17.548 15.8375 17.7079 15.9488 17.8145 16.0456C18.4929 16.6555 18.3184 17.7445 17.485 18.1172C17.2185 18.2382 16.763 18.2479 16.511 18.1414C16.2591 18.0349 15.9586 17.7445 15.8423 17.5025C15.726 17.2702 15.7067 16.8442 15.7987 16.549C15.8763 16.2828 16.1525 15.9778 16.4384 15.8471C16.7242 15.7116 17.1991 15.6923 17.4559 15.7987ZM12.5667 17.8994C12.7945 18.0156 13.027 18.2528 13.153 18.4899C13.2839 18.7416 13.279 19.3225 13.1385 19.579C12.7315 20.3389 11.7575 20.5132 11.147 19.9275C10.8708 19.6661 10.7738 19.4338 10.7738 19.0224C10.7738 18.6206 10.8465 18.4367 11.1082 18.1608C11.2584 17.9962 11.4474 17.8801 11.6703 17.8074C11.8689 17.7397 12.3584 17.7929 12.5667 17.8994Z" fill="#9696C1"/>
<path d="M11.6844 2.11529C11.8637 2.12498 12.1544 2.12498 12.3385 2.11529C12.5178 2.1056 12.3676 2.10075 12.009 2.10075C11.6505 2.10075 11.5003 2.1056 11.6844 2.11529Z" fill="#B196C1"/>
<path d="M10.9087 2.16363C10.9523 2.17332 11.0298 2.17332 11.0783 2.16363C11.1219 2.14909 11.0831 2.1394 10.9911 2.1394C10.899 2.1394 10.8602 2.14909 10.9087 2.16363Z" fill="#B196C1"/>
<path d="M12.9443 2.16363C12.9879 2.17332 13.0655 2.17332 13.1139 2.16363C13.1575 2.14909 13.1188 2.1394 13.0267 2.1394C12.9346 2.1394 12.8959 2.14909 12.9443 2.16363Z" fill="#B196C1"/>
<path d="M11.8534 3.76129C11.9358 3.77098 12.0811 3.77098 12.1683 3.76129C12.2507 3.7516 12.1829 3.7419 12.0084 3.7419C11.834 3.7419 11.7662 3.7516 11.8534 3.76129Z" fill="#B196C1"/>
<path d="M4.98291 5.01916L4.47412 5.54248L4.99745 5.03369C5.28334 4.75749 5.51592 4.52006 5.51592 4.51521C5.51592 4.47645 5.45293 4.53944 4.98291 5.01916Z" fill="#B196C1"/>
<path d="M18.9868 4.99489C19.4568 5.47945 19.5198 5.54245 19.5198 5.50368C19.5198 5.49884 19.2872 5.2614 19.0014 4.9852L18.478 4.47641L18.9868 4.99489Z" fill="#B196C1"/>
<path d="M10.7642 4.98565C10.7642 5.13102 10.7739 5.19401 10.7835 5.11648C10.7932 5.0438 10.7932 4.9275 10.7835 4.84997C10.7739 4.77729 10.7642 4.84028 10.7642 4.98565Z" fill="#B196C1"/>
<path d="M13.2354 4.98565C13.2354 5.13102 13.245 5.19401 13.2547 5.11648C13.2644 5.0438 13.2644 4.9275 13.2547 4.84997C13.245 4.77729 13.2354 4.84028 13.2354 4.98565Z" fill="#B196C1"/>
<path d="M11.1128 5.85696C11.2146 5.96356 11.3115 6.05078 11.326 6.05078C11.3405 6.05078 11.263 5.96356 11.1613 5.85696C11.0595 5.75035 10.9626 5.66313 10.948 5.66313C10.9335 5.66313 11.011 5.75035 11.1128 5.85696Z" fill="#B196C1"/>
<path d="M12.8087 5.89069C12.6778 6.01183 12.61 6.08936 12.6633 6.06029C12.7553 6.01183 13.1188 5.66295 13.0703 5.66295C13.0606 5.6678 12.9443 5.76955 12.8087 5.89069Z" fill="#B196C1"/>
<path d="M7.57572 5.93904C7.6581 5.97781 7.7647 6.05049 7.818 6.0941C7.91007 6.16679 7.91007 6.16679 7.84707 6.08441C7.77439 5.99719 7.5418 5.85667 7.46912 5.85667C7.44974 5.86151 7.49819 5.89543 7.57572 5.93904Z" fill="#B196C1"/>
<path d="M11.8781 6.22955C11.9508 6.23924 12.0671 6.23924 12.1447 6.22955C12.2173 6.21986 12.1543 6.21017 12.009 6.21017C11.8636 6.21017 11.8006 6.21986 11.8781 6.22955Z" fill="#B196C1"/>
<path d="M5.85547 7.46806C5.85547 7.54074 5.99599 7.77333 6.08321 7.84601C6.16559 7.90901 6.16559 7.90901 6.0929 7.81694C6.04929 7.76364 5.97661 7.65219 5.93784 7.57466C5.89423 7.49228 5.86031 7.44867 5.85547 7.46806Z" fill="#B196C1"/>
<path d="M7.88545 7.92329L7.7207 8.10742L7.90484 7.94267C8.06959 7.78277 8.10835 7.744 8.06959 7.744C8.0599 7.744 7.97752 7.82638 7.88545 7.92329Z" fill="#B196C1"/>
<path d="M16.0796 7.9139C16.1717 8.00597 16.2541 8.0835 16.2686 8.0835C16.2831 8.0835 16.2201 8.00597 16.1281 7.9139C16.036 7.82183 15.9536 7.7443 15.9391 7.7443C15.9246 7.7443 15.9876 7.82183 16.0796 7.9139Z" fill="#B196C1"/>
<path d="M4.85227 10.7794C4.92495 10.789 5.04125 10.789 5.11878 10.7794C5.19146 10.7697 5.12847 10.76 4.9831 10.76C4.83773 10.76 4.77474 10.7697 4.85227 10.7794Z" fill="#B196C1"/>
<path d="M18.9045 10.7794C18.9772 10.789 19.0935 10.789 19.171 10.7794C19.2437 10.7697 19.1807 10.76 19.0353 10.76C18.89 10.76 18.827 10.7697 18.9045 10.7794Z" fill="#B196C1"/>
<path d="M21.855 10.9875C21.855 11.0795 21.8647 11.1183 21.8792 11.0698C21.8889 11.0262 21.8889 10.9487 21.8792 10.9002C21.8647 10.8566 21.855 10.8954 21.855 10.9875Z" fill="#B196C1"/>
<path d="M5.83057 11.1328C5.93233 11.2394 6.02924 11.3267 6.04378 11.3267C6.05831 11.3267 5.98078 11.2394 5.87903 11.1328C5.77727 11.0262 5.68036 10.939 5.66582 10.939C5.65128 10.939 5.72881 11.0262 5.83057 11.1328Z" fill="#B196C1"/>
<path d="M18.1386 11.1422L17.9448 11.3506L18.1532 11.1568C18.3422 10.9823 18.3809 10.9387 18.3422 10.9387C18.3325 10.9387 18.2404 11.0308 18.1386 11.1422Z" fill="#B196C1"/>
<path d="M2.09521 11.9796C2.09521 12.3527 2.10491 12.4981 2.10975 12.3043C2.11944 12.1104 2.11944 11.8052 2.10975 11.6259C2.10006 11.4466 2.09521 11.6065 2.09521 11.9796Z" fill="#B196C1"/>
<path d="M21.9136 12.0037C21.9136 12.3622 21.9184 12.5124 21.9281 12.3283C21.9378 12.149 21.9378 11.8583 21.9281 11.6742C21.9184 11.4949 21.9136 11.6451 21.9136 12.0037Z" fill="#B196C1"/>
<path d="M3.7373 12.0038C3.7373 12.1782 3.747 12.246 3.75669 12.1588C3.76638 12.0764 3.76638 11.9311 3.75669 11.8439C3.747 11.7615 3.7373 11.8293 3.7373 12.0038Z" fill="#B196C1"/>
<path d="M20.2612 12.0038C20.2612 12.1782 20.2709 12.246 20.2806 12.1588C20.2903 12.0764 20.2903 11.9311 20.2806 11.8439C20.2709 11.7615 20.2612 11.8293 20.2612 12.0038Z" fill="#B196C1"/>
<path d="M6.20898 12.0037C6.20898 12.1491 6.21868 12.2121 6.22837 12.1345C6.23806 12.0619 6.23806 11.9456 6.22837 11.868C6.21868 11.7954 6.20898 11.8583 6.20898 12.0037Z" fill="#B196C1"/>
<path d="M17.79 12.0037C17.79 12.1491 17.7997 12.2121 17.8094 12.1345C17.8191 12.0619 17.8191 11.9456 17.8094 11.868C17.7997 11.7954 17.79 11.8583 17.79 12.0037Z" fill="#B196C1"/>
<path d="M5.85975 12.8412C5.65623 13.0786 5.65139 13.0835 5.82583 12.9236C5.98089 12.7831 6.13595 12.5795 6.08749 12.5844C6.0778 12.5892 5.97604 12.7007 5.85975 12.8412Z" fill="#B196C1"/>
<path d="M18.1387 12.875C18.2404 12.9816 18.3373 13.0688 18.3519 13.0688C18.3664 13.0688 18.2889 12.9816 18.1871 12.875C18.0854 12.7684 17.9885 12.6812 17.9739 12.6812C17.9594 12.6812 18.0369 12.7684 18.1387 12.875Z" fill="#B196C1"/>
<path d="M21.855 13.0207C21.855 13.1127 21.8647 13.1515 21.8792 13.103C21.8889 13.0594 21.8889 12.9819 21.8792 12.9334C21.8647 12.8898 21.855 12.9286 21.855 13.0207Z" fill="#B196C1"/>
<path d="M4.85227 13.2481C4.92495 13.2578 5.04125 13.2578 5.11878 13.2481C5.19146 13.2384 5.12847 13.2287 4.9831 13.2287C4.83773 13.2287 4.77474 13.2384 4.85227 13.2481Z" fill="#B196C1"/>
<path d="M18.9045 13.2481C18.9772 13.2578 19.0935 13.2578 19.171 13.2481C19.2437 13.2384 19.1807 13.2287 19.0353 13.2287C18.89 13.2287 18.827 13.2384 18.9045 13.2481Z" fill="#B196C1"/>
<path d="M7.89066 16.0941C7.98272 16.1861 8.0651 16.2637 8.07963 16.2637C8.09417 16.2637 8.03118 16.1861 7.93911 16.0941C7.84704 16.002 7.76467 15.9245 7.75013 15.9245C7.7356 15.9245 7.79859 16.002 7.89066 16.0941Z" fill="#B196C1"/>
<path d="M16.0744 16.1035L15.9097 16.2876L16.0938 16.1228C16.1907 16.0308 16.2731 15.9484 16.2731 15.9387C16.2731 15.8999 16.2343 15.9387 16.0744 16.1035Z" fill="#B196C1"/>
<path d="M6.03909 16.2001C5.93248 16.3261 5.84042 16.5102 5.87434 16.5441C5.88887 16.5586 5.90341 16.5489 5.90341 16.5199C5.90341 16.4908 5.95671 16.389 6.02455 16.2921C6.15054 16.1032 6.16023 16.0644 6.03909 16.2001Z" fill="#B196C1"/>
<path d="M11.8781 17.7979C11.9508 17.8076 12.0671 17.8076 12.1447 17.7979C12.2173 17.7882 12.1543 17.7785 12.009 17.7785C11.8636 17.7785 11.8006 17.7882 11.8781 17.7979Z" fill="#B196C1"/>
<path d="M7.79808 17.9282C7.76901 17.967 7.67694 18.0203 7.59457 18.0542C7.51704 18.0881 7.45889 18.1269 7.47343 18.1366C7.5025 18.1705 7.76416 18.0251 7.83685 17.9379C7.87561 17.8943 7.89015 17.8604 7.87561 17.8604C7.86592 17.8604 7.82716 17.8894 7.79808 17.9282Z" fill="#B196C1"/>
<path d="M11.1128 18.1608L10.9189 18.3691L11.1273 18.1753C11.3163 18.0009 11.355 17.9573 11.3163 17.9573C11.3066 17.9573 11.2145 18.0493 11.1128 18.1608Z" fill="#B196C1"/>
<path d="M12.8569 18.1509C12.9587 18.2575 13.0556 18.3447 13.0701 18.3447C13.0847 18.3447 13.0072 18.2575 12.9054 18.1509C12.8036 18.0443 12.7067 17.9571 12.6922 17.9571C12.6776 17.9571 12.7552 18.0443 12.8569 18.1509Z" fill="#B196C1"/>
<path d="M4.98291 18.9832C5.45293 19.4677 5.51592 19.5307 5.51592 19.492C5.51592 19.4871 5.28334 19.2497 4.99745 18.9735L4.47412 18.4647L4.98291 18.9832Z" fill="#B196C1"/>
<path d="M18.9868 19.0074L18.478 19.5308L19.0014 19.022C19.4811 18.552 19.5441 18.489 19.5053 18.489C19.5004 18.489 19.263 18.7215 18.9868 19.0074Z" fill="#B196C1"/>
<path d="M10.7642 19.0223C10.7642 19.1676 10.7739 19.2306 10.7835 19.1531C10.7932 19.0804 10.7932 18.9641 10.7835 18.8866C10.7739 18.8139 10.7642 18.8769 10.7642 19.0223Z" fill="#B196C1"/>
<path d="M13.2354 19.0223C13.2354 19.1676 13.245 19.2306 13.2547 19.1531C13.2644 19.0804 13.2644 18.9641 13.2547 18.8866C13.245 18.8139 13.2354 18.8769 13.2354 19.0223Z" fill="#B196C1"/>
<path d="M11.8534 20.2667C11.9358 20.2763 12.0811 20.2763 12.1683 20.2667C12.2507 20.257 12.1829 20.2473 12.0084 20.2473C11.834 20.2473 11.7662 20.257 11.8534 20.2667Z" fill="#B196C1"/>
<path d="M11.6844 21.9122C11.8637 21.9219 12.1544 21.9219 12.3385 21.9122C12.5178 21.9025 12.3676 21.8976 12.009 21.8976C11.6505 21.8976 11.5003 21.9025 11.6844 21.9122Z" fill="#B196C1"/>
<path d="M11.3309 0.0146103C11.3164 0.0242901 11.1128 0.0484924 10.8706 0.0678539C8.74819 0.217901 6.31569 1.19563 4.52282 2.61383C3.96073 3.05914 2.88016 4.16272 2.47798 4.69515C0.166627 7.78324 -0.555367 11.4909 0.42829 15.184C0.67057 16.094 1.22781 17.4008 1.67361 18.1172C2.09518 18.7997 2.42468 19.2595 2.84624 19.7726C3.17574 20.1743 4.29023 21.2247 4.75056 21.5635C7.63854 23.7271 11.2291 24.4918 14.7228 23.6883C16.5544 23.2672 18.2795 22.4057 19.7865 21.1569C20.0869 20.9052 21.1093 19.8549 21.3661 19.5306C22.7471 17.7881 23.5951 15.8229 23.9101 13.6254C24.0167 12.9042 24.0312 11.1666 23.9391 10.5277C23.7938 9.50153 23.5709 8.62544 23.2462 7.76871C21.6278 3.48024 17.6835 0.474436 13.1238 0.0581722C12.6344 0.00976944 11.3648 -0.0192719 11.3309 0.0146103ZM13.2788 2.15885C17.635 2.72032 21.0948 6.05526 21.8216 10.4067C21.8652 10.6584 21.9137 11.2489 21.9282 11.7135C22.1075 17.3089 17.6253 21.9265 12.0093 21.9265C9.35873 21.9265 6.85355 20.8907 4.98315 19.0223C1.09214 15.1356 1.10667 8.81905 5.01707 4.95168C6.56766 3.42216 8.54951 2.44926 10.7252 2.15885C11.4036 2.06688 12.5617 2.06688 13.2788 2.15885Z" fill="#CCC1EC"/>
<path d="M11.501 3.89172C10.3913 4.41447 10.6627 6.05532 11.8838 6.18117C12.5912 6.25377 13.2211 5.6923 13.2211 4.99046C13.2211 4.09986 12.3005 3.51418 11.501 3.89172Z" fill="#CCC1EC"/>
<path d="M6.63057 5.90524C6.07818 6.09401 5.72929 6.6942 5.84559 7.25567C6.08787 8.39798 7.59485 8.61579 8.11333 7.58481C8.45737 6.91685 8.10364 6.09401 7.38649 5.88104C7.07637 5.78907 6.95523 5.79391 6.63057 5.90524Z" fill="#CCC1EC"/>
<path d="M16.6126 5.88117C15.5998 6.19579 15.469 7.63334 16.4139 8.10285C16.7046 8.24806 16.9566 8.28678 17.2473 8.22386C17.7028 8.12705 18.0711 7.74467 18.1728 7.2558C18.294 6.67981 17.916 6.05542 17.3442 5.88601C17.0293 5.79404 16.9033 5.79404 16.6126 5.88117Z" fill="#CCC1EC"/>
<path d="M4.4741 10.9103C4.03315 11.1184 3.77148 11.5202 3.77148 12.0042C3.77148 12.9093 4.72607 13.495 5.52075 13.0787C5.98108 12.8367 6.23305 12.3818 6.17975 11.8784C6.09253 11.0507 5.22516 10.557 4.4741 10.9103Z" fill="#CCC1EC"/>
<path d="M18.5268 10.9103C17.6013 11.3411 17.5916 12.6334 18.5122 13.0884C19.3069 13.4853 20.2421 12.8996 20.2469 12.0042C20.2469 11.1232 19.3263 10.5376 18.5268 10.9103Z" fill="#CCC1EC"/>
<path d="M6.77623 15.7842C6.33528 15.8714 5.94763 16.2683 5.84587 16.7475C5.72473 17.3283 6.10269 17.9527 6.67447 18.1221C6.99913 18.2189 7.0815 18.2189 7.38677 18.1269C8.10392 17.914 8.45765 17.0911 8.11846 16.4232C7.86164 15.9198 7.34801 15.6778 6.77623 15.7842Z" fill="#CCC1EC"/>
<path d="M16.7335 15.7747C16.3507 15.8715 15.997 16.1474 15.8758 16.4524C15.5657 17.222 15.9679 17.9916 16.7626 18.161C17.3392 18.282 17.9643 17.9045 18.1339 17.3333C18.2308 17.009 18.2308 16.9267 18.1387 16.6218C17.9691 16.041 17.2956 15.6392 16.7335 15.7747Z" fill="#CCC1EC"/>
<path d="M11.5486 17.9044C10.7588 18.2626 10.5456 19.2452 11.1271 19.8647C11.5777 20.3439 12.4402 20.3439 12.8909 19.8647C13.6129 19.0903 13.0653 17.8125 12.009 17.8125C11.8539 17.8125 11.6601 17.8512 11.5486 17.9044Z" fill="#CCC1EC"/>
</g>
<defs>
<clipPath id="clip0_1617_9356">
<rect width="24" height="24" fill="white"/>
</clipPath>
</defs>
</svg>
