<svg width="33" height="32" viewBox="0 0 33 32" fill="none" xmlns="http://www.w3.org/2000/svg">
<circle cx="16.667" cy="16" r="8" fill="black"/>
<mask id="path-2-inside-1_2608_175251" fill="white">
<path d="M16.667 0C19.8315 3.77363e-08 22.9249 0.938384 25.5561 2.69649C28.1873 4.45459 30.2381 6.95345 31.4491 9.87707C32.6601 12.8007 32.9769 16.0177 32.3596 19.1214C31.7422 22.2251 30.2183 25.0761 27.9807 27.3137C25.7431 29.5513 22.8921 31.0752 19.7884 31.6926C16.6847 32.3099 13.4677 31.9931 10.5441 30.7821C7.62044 29.5711 5.12158 27.5203 3.36348 24.8891C1.60538 22.2579 0.666992 19.1645 0.666992 16H3.80119C3.80119 18.5446 4.55576 21.0321 5.96947 23.1479C7.38318 25.2636 9.39255 26.9127 11.7435 27.8864C14.0944 28.8602 16.6813 29.115 19.177 28.6186C21.6727 28.1222 23.9652 26.8968 25.7645 25.0975C27.5638 23.2982 28.7892 21.0057 29.2856 18.51C29.782 16.0143 29.5272 13.4274 28.5534 11.0765C27.5797 8.72555 25.9306 6.71619 23.8148 5.30248C21.6991 3.88877 19.2116 3.1342 16.667 3.1342V0Z"/>
</mask>
<path d="M16.667 0C19.8315 3.77363e-08 22.9249 0.938384 25.5561 2.69649C28.1873 4.45459 30.2381 6.95345 31.4491 9.87707C32.6601 12.8007 32.9769 16.0177 32.3596 19.1214C31.7422 22.2251 30.2183 25.0761 27.9807 27.3137C25.7431 29.5513 22.8921 31.0752 19.7884 31.6926C16.6847 32.3099 13.4677 31.9931 10.5441 30.7821C7.62044 29.5711 5.12158 27.5203 3.36348 24.8891C1.60538 22.2579 0.666992 19.1645 0.666992 16H3.80119C3.80119 18.5446 4.55576 21.0321 5.96947 23.1479C7.38318 25.2636 9.39255 26.9127 11.7435 27.8864C14.0944 28.8602 16.6813 29.115 19.177 28.6186C21.6727 28.1222 23.9652 26.8968 25.7645 25.0975C27.5638 23.2982 28.7892 21.0057 29.2856 18.51C29.782 16.0143 29.5272 13.4274 28.5534 11.0765C27.5797 8.72555 25.9306 6.71619 23.8148 5.30248C21.6991 3.88877 19.2116 3.1342 16.667 3.1342V0Z" stroke="#3EB16C" stroke-width="6" mask="url(#path-2-inside-1_2608_175251)"/>
</svg>
