<svg width="33" height="32" viewBox="0 0 33 32" fill="none" xmlns="http://www.w3.org/2000/svg">
<circle cx="16.333" cy="16" r="8" fill="black"/>
<mask id="path-2-inside-1_2608_175247" fill="white">
<path d="M16.333 0C18.4342 2.5056e-08 20.5147 0.413852 22.4559 1.21793C24.3972 2.022 26.161 3.20055 27.6467 4.68629C29.1325 6.17203 30.311 7.93586 31.1151 9.87707C31.9192 11.8183 32.333 13.8989 32.333 16C32.333 18.1012 31.9192 20.1817 31.1151 22.1229C30.311 24.0641 29.1325 25.828 27.6467 27.3137C26.161 28.7994 24.3971 29.978 22.4559 30.7821C20.5147 31.5861 18.4342 32 16.333 32L16.333 28.8658C18.0226 28.8658 19.6956 28.533 21.2565 27.8864C22.8175 27.2399 24.2358 26.2922 25.4305 25.0975C26.6252 23.9028 27.5729 22.4845 28.2195 20.9235C28.866 19.3626 29.1988 17.6896 29.1988 16C29.1988 14.3104 28.866 12.6374 28.2195 11.0765C27.5729 9.51552 26.6252 8.09721 25.4305 6.90251C24.2358 5.70781 22.8175 4.76012 21.2565 4.11355C19.6956 3.46698 18.0226 3.1342 16.333 3.1342V0Z"/>
</mask>
<path d="M16.333 0C18.4342 2.5056e-08 20.5147 0.413852 22.4559 1.21793C24.3972 2.022 26.161 3.20055 27.6467 4.68629C29.1325 6.17203 30.311 7.93586 31.1151 9.87707C31.9192 11.8183 32.333 13.8989 32.333 16C32.333 18.1012 31.9192 20.1817 31.1151 22.1229C30.311 24.0641 29.1325 25.828 27.6467 27.3137C26.161 28.7994 24.3971 29.978 22.4559 30.7821C20.5147 31.5861 18.4342 32 16.333 32L16.333 28.8658C18.0226 28.8658 19.6956 28.533 21.2565 27.8864C22.8175 27.2399 24.2358 26.2922 25.4305 25.0975C26.6252 23.9028 27.5729 22.4845 28.2195 20.9235C28.866 19.3626 29.1988 17.6896 29.1988 16C29.1988 14.3104 28.866 12.6374 28.2195 11.0765C27.5729 9.51552 26.6252 8.09721 25.4305 6.90251C24.2358 5.70781 22.8175 4.76012 21.2565 4.11355C19.6956 3.46698 18.0226 3.1342 16.333 3.1342V0Z" stroke="#3EB16C" stroke-width="6" mask="url(#path-2-inside-1_2608_175247)"/>
</svg>
