<svg width="32" height="32" viewBox="0 0 32 32" fill="none" xmlns="http://www.w3.org/2000/svg">
<circle cx="16" cy="16" r="8" fill="black"/>
<mask id="path-2-inside-1_2608_175243" fill="white">
<path d="M16 0C18.1012 2.5056e-08 20.1817 0.413852 22.1229 1.21793C24.0641 2.022 25.828 3.20055 27.3137 4.68629C28.7994 6.17203 29.978 7.93586 30.7821 9.87707C31.5861 11.8183 32 13.8989 32 16H28.8658C28.8658 14.3104 28.533 12.6374 27.8864 11.0765C27.2399 9.51552 26.2922 8.09721 25.0975 6.90251C23.9028 5.70781 22.4845 4.76012 20.9235 4.11355C19.3626 3.46698 17.6896 3.1342 16 3.1342V0Z"/>
</mask>
<path d="M16 0C18.1012 2.5056e-08 20.1817 0.413852 22.1229 1.21793C24.0641 2.022 25.828 3.20055 27.3137 4.68629C28.7994 6.17203 29.978 7.93586 30.7821 9.87707C31.5861 11.8183 32 13.8989 32 16H28.8658C28.8658 14.3104 28.533 12.6374 27.8864 11.0765C27.2399 9.51552 26.2922 8.09721 25.0975 6.90251C23.9028 5.70781 22.4845 4.76012 20.9235 4.11355C19.3626 3.46698 17.6896 3.1342 16 3.1342V0Z" stroke="#3EB16C" stroke-width="6" mask="url(#path-2-inside-1_2608_175243)"/>
</svg>
