<svg width="16" height="16" viewBox="0 0 16 16" fill="none" xmlns="http://www.w3.org/2000/svg">
<circle cx="8" cy="8" r="8" fill="#C7281C"/>
<path d="M7.41538 9.7847L7.13846 3H8.87692L8.58462 9.7847H7.41538ZM8.01538 13C7.72821 13 7.48718 12.9103 7.29231 12.7309C7.09744 12.5515 7 12.339 7 12.0935C7 11.8291 7.09744 11.6119 7.29231 11.4419C7.48718 11.272 7.72821 11.187 8.01538 11.187C8.30256 11.187 8.53846 11.272 8.72308 11.4419C8.90769 11.6119 9 11.8291 9 12.0935C9 12.339 8.90769 12.5515 8.72308 12.7309C8.53846 12.9103 8.30256 13 8.01538 13Z" fill="white"/>
</svg>
