<svg width="20" height="20" viewBox="0 0 20 20" fill="none" xmlns="http://www.w3.org/2000/svg">
<path d="M9.16797 7.50008H10.8346V5.83341H9.16797M10.0013 16.6667C6.3263 16.6667 3.33464 13.6751 3.33464 10.0001C3.33464 6.32508 6.3263 3.33341 10.0013 3.33341C13.6763 3.33341 16.668 6.32508 16.668 10.0001C16.668 13.6751 13.6763 16.6667 10.0013 16.6667ZM10.0013 1.66675C8.90695 1.66675 7.82332 1.8823 6.81227 2.30109C5.80123 2.71987 4.88257 3.3337 4.10875 4.10752C2.54594 5.67033 1.66797 7.78994 1.66797 10.0001C1.66797 12.2102 2.54594 14.3298 4.10875 15.8926C4.88257 16.6665 5.80123 17.2803 6.81227 17.6991C7.82332 18.1179 8.90695 18.3334 10.0013 18.3334C12.2114 18.3334 14.3311 17.4554 15.8939 15.8926C17.4567 14.3298 18.3346 12.2102 18.3346 10.0001C18.3346 8.90573 18.1191 7.8221 17.7003 6.81105C17.2815 5.80001 16.6677 4.88135 15.8939 4.10752C15.12 3.3337 14.2014 2.71987 13.1903 2.30109C12.1793 1.8823 11.0957 1.66675 10.0013 1.66675ZM9.16797 14.1667H10.8346V9.16675H9.16797V14.1667Z" fill="#3E4364"/>
</svg>
