<svg width="20" height="20" viewBox="0 0 20 20" fill="none" xmlns="http://www.w3.org/2000/svg">
<path d="M10.0002 1.66797C6.3335 1.66797 3.3335 4.66797 3.3335 8.33464C3.3335 12.8346 9.16683 17.918 9.41683 18.168C9.5835 18.2513 9.8335 18.3346 10.0002 18.3346C10.1668 18.3346 10.4168 18.2513 10.5835 18.168C10.8335 17.918 16.6668 12.8346 16.6668 8.33464C16.6668 4.66797 13.6668 1.66797 10.0002 1.66797ZM10.0002 16.418C8.25016 14.7513 5.00016 11.168 5.00016 8.33464C5.00016 5.58464 7.25016 3.33464 10.0002 3.33464C12.7502 3.33464 15.0002 5.58464 15.0002 8.33464C15.0002 11.0846 11.7502 14.7513 10.0002 16.418ZM10.0002 5.0013C8.16683 5.0013 6.66683 6.5013 6.66683 8.33464C6.66683 10.168 8.16683 11.668 10.0002 11.668C11.8335 11.668 13.3335 10.168 13.3335 8.33464C13.3335 6.5013 11.8335 5.0013 10.0002 5.0013ZM10.0002 10.0013C9.0835 10.0013 8.3335 9.2513 8.3335 8.33464C8.3335 7.41797 9.0835 6.66797 10.0002 6.66797C10.9168 6.66797 11.6668 7.41797 11.6668 8.33464C11.6668 9.2513 10.9168 10.0013 10.0002 10.0013Z" fill="#E43A2D"/>
</svg>
