<svg width="12" height="10" viewBox="0 0 12 10" fill="none" xmlns="http://www.w3.org/2000/svg">
<path d="M3.64504 0.299049C2.47804 0.782049 1.38604 1.71505 0.762042 2.76805C0.375042 3.41905 0.132042 4.15405 0.0300422 4.97005C-0.0149578 5.34505 -0.00895783 6.31405 0.0450422 6.65005C0.132042 7.22605 0.315042 7.76605 0.636042 8.39605C0.822042 8.76505 1.26304 9.45205 1.45504 9.67405L1.56604 9.80005H2.97904H4.38904L4.06204 9.59605C2.74804 8.78005 1.80004 7.72705 1.45804 6.70405C0.909042 5.07505 1.27504 3.39505 2.43904 2.15905C2.64604 1.94005 2.85004 1.80805 3.03304 1.77505C3.17704 1.74805 3.38704 1.83805 3.47704 1.96405C3.55504 2.07505 3.50104 1.91005 4.89004 6.29605C5.49004 8.19205 5.99104 9.74005 6.00004 9.74005C6.01204 9.74005 6.55504 8.04205 7.21204 5.96605C7.86904 3.89305 8.44204 2.12605 8.48704 2.04505C8.58604 1.85305 8.77204 1.74805 8.95204 1.77505C9.14104 1.80205 9.34804 1.93405 9.56104 2.15905C10.728 3.39805 11.091 5.07505 10.542 6.70405C10.197 7.73005 9.21904 8.81305 7.91404 9.61105L7.60804 9.80005H9.03004H10.455L10.641 9.55105C11.376 8.56705 11.844 7.51105 11.973 6.54805C12.027 6.13405 11.994 5.00905 11.913 4.59505C11.616 3.02905 10.767 1.78105 9.36904 0.839049C8.93404 0.551049 8.08204 0.149049 8.02504 0.206049C8.01604 0.215049 7.56004 1.68805 7.01404 3.48205C6.46504 5.27305 6.01204 6.74005 6.00004 6.74005C5.98804 6.74005 4.63204 2.34205 4.04404 0.386049C4.00204 0.251049 3.97204 0.200049 3.93604 0.200049C3.90904 0.200049 3.77704 0.245049 3.64504 0.299049Z" fill="#8E3C85"/>
</svg>
