<svg width="16" height="16" viewBox="0 0 16 16" fill="none" xmlns="http://www.w3.org/2000/svg">
<path d="M4.86006 1.73239C3.30406 2.37639 1.84806 3.62039 1.01606 5.02439C0.500056 5.89239 0.176056 6.87239 0.0400562 7.96039C-0.0199438 8.46039 -0.0119438 9.75239 0.0600562 10.2004C0.176056 10.9684 0.420056 11.6884 0.848056 12.5284C1.09606 13.0204 1.68406 13.9364 1.94006 14.2324L2.08806 14.4004H3.97206H5.85206L5.41606 14.1284C3.66406 13.0404 2.40006 11.6364 1.94406 10.2724C1.21206 8.10039 1.70006 5.86039 3.25206 4.21239C3.52806 3.92039 3.80006 3.74439 4.04406 3.70039C4.23606 3.66439 4.51606 3.78439 4.63606 3.95239C4.74006 4.10039 4.66806 3.88039 6.52006 9.72839C7.32006 12.2564 7.98806 14.3204 8.00006 14.3204C8.01606 14.3204 8.74006 12.0564 9.61606 9.28839C10.4921 6.52439 11.2561 4.16839 11.3161 4.06039C11.4481 3.80439 11.6961 3.66439 11.9361 3.70039C12.1881 3.73639 12.4641 3.91239 12.7481 4.21239C14.3041 5.86439 14.7881 8.10039 14.0561 10.2724C13.5961 11.6404 12.2921 13.0844 10.5521 14.1484L10.1441 14.4004H12.0401H13.9401L14.1881 14.0684C15.1681 12.7564 15.7921 11.3484 15.9641 10.0644C16.0361 9.51239 15.9921 8.01239 15.8841 7.46039C15.4881 5.37239 14.3561 3.70839 12.4921 2.45239C11.9121 2.06839 10.7761 1.53239 10.7001 1.60839C10.6881 1.62039 10.0801 3.58439 9.35206 5.97639C8.62006 8.36439 8.01606 10.3204 8.00006 10.3204C7.98406 10.3204 6.17606 4.45639 5.39206 1.84839C5.33606 1.66839 5.29606 1.60039 5.24806 1.60039C5.21206 1.60039 5.03606 1.66039 4.86006 1.73239Z" fill="#54AB4C"/>
</svg>
