<svg width="12" height="12" viewBox="0 0 12 12" fill="none" xmlns="http://www.w3.org/2000/svg">
<path d="M3.64504 1.29905C2.47804 1.78205 1.38604 2.71505 0.762042 3.76805C0.375042 4.41905 0.132042 5.15405 0.0300422 5.97005C-0.0149578 6.34505 -0.00895783 7.31405 0.0450422 7.65005C0.132042 8.22605 0.315042 8.76605 0.636042 9.39605C0.822042 9.76505 1.26304 10.452 1.45504 10.674L1.56604 10.8H2.97904H4.38904L4.06204 10.596C2.74804 9.78005 1.80004 8.72705 1.45804 7.70405C0.909042 6.07505 1.27504 4.39505 2.43904 3.15905C2.64604 2.94005 2.85004 2.80805 3.03304 2.77505C3.17704 2.74805 3.38704 2.83805 3.47704 2.96405C3.55504 3.07505 3.50104 2.91005 4.89004 7.29605C5.49004 9.19205 5.99104 10.74 6.00004 10.74C6.01204 10.74 6.55504 9.04205 7.21204 6.96605C7.86904 4.89305 8.44204 3.12605 8.48704 3.04505C8.58604 2.85305 8.77204 2.74805 8.95204 2.77505C9.14104 2.80205 9.34804 2.93405 9.56104 3.15905C10.728 4.39805 11.091 6.07505 10.542 7.70405C10.197 8.73005 9.21904 9.81305 7.91404 10.611L7.60804 10.8H9.03004H10.455L10.641 10.551C11.376 9.56705 11.844 8.51105 11.973 7.54805C12.027 7.13405 11.994 6.00905 11.913 5.59505C11.616 4.02905 10.767 2.78105 9.36904 1.83905C8.93404 1.55105 8.08204 1.14905 8.02504 1.20605C8.01604 1.21505 7.56004 2.68805 7.01404 4.48205C6.46504 6.27305 6.01204 7.74005 6.00004 7.74005C5.98804 7.74005 4.63204 3.34205 4.04404 1.38605C4.00204 1.25105 3.97204 1.20005 3.93604 1.20005C3.90904 1.20005 3.77704 1.24505 3.64504 1.29905Z" fill="#D9362E"/>
</svg>
