<svg width="32" height="32" viewBox="0 0 32 32" fill="none" xmlns="http://www.w3.org/2000/svg">
<circle cx="16" cy="16" r="16" fill="#FF7700"/>
<path d="M15.2478 18.9971C14.1189 18.8791 13.1007 18.5989 12.2292 17.9125C12.1208 17.827 12.0088 17.7444 11.9107 17.6493C11.5288 17.2806 11.4904 16.8574 11.7927 16.4224C12.0508 16.0493 12.4843 15.9498 12.9348 16.1643C13.0218 16.2049 13.1044 16.2572 13.1848 16.3125C14.8091 17.4362 17.0409 17.4672 18.6711 16.3634C18.8333 16.2381 19.0058 16.1363 19.2056 16.0847C19.5949 15.9844 19.9577 16.1282 20.1663 16.471C20.4052 16.8618 20.4023 17.2452 20.1081 17.5483C19.6576 18.015 19.1149 18.3519 18.5126 18.5871C17.9426 18.8098 17.3181 18.9219 16.701 18.9956C16.7939 19.0981 16.8381 19.1482 16.8964 19.2072C17.7347 20.0551 18.5775 20.9008 19.4136 21.7516C19.6982 22.0421 19.7579 22.4012 19.6008 22.7389C19.429 23.1076 19.0456 23.3501 18.6689 23.3243C18.4307 23.3074 18.2449 23.1879 18.079 23.0206C17.4464 22.3791 16.802 21.7494 16.1819 21.0962C16.0013 20.906 15.9143 20.9421 15.755 21.1072C15.1187 21.7671 14.4721 22.4167 13.8203 23.0633C13.5284 23.3531 13.1804 23.4054 12.8412 23.2403C12.4814 23.0633 12.2513 22.6939 12.2698 22.3216C12.2816 22.0694 12.4047 21.8777 12.5765 21.7052C13.4067 20.8706 14.234 20.0337 15.062 19.1984C15.1165 19.1423 15.1681 19.0833 15.2478 18.9971Z" fill="white"/>
<path d="M15.9359 16.0907C13.9216 16.0833 12.27 14.4023 12.2811 12.3703C12.2929 10.3161 13.9459 8.6616 15.9801 8.66676C18.0181 8.67192 19.6541 10.3515 19.6446 12.427C19.6335 14.4546 17.9709 16.0973 15.9359 16.0907ZM17.7666 12.3747C17.768 12.1372 17.7224 11.9019 17.6325 11.6821C17.5426 11.4623 17.4102 11.2625 17.2428 11.0941C17.0754 10.9257 16.8764 10.792 16.6571 10.7007C16.4379 10.6095 16.2028 10.5625 15.9654 10.5624C15.7257 10.5621 15.4884 10.6097 15.2673 10.7022C15.0462 10.7947 14.8457 10.9303 14.6776 11.1012C14.5095 11.272 14.3771 11.4747 14.2882 11.6972C14.1993 11.9198 14.1556 12.1579 14.1597 12.3975C14.16 12.6351 14.2073 12.8702 14.2988 13.0894C14.3903 13.3086 14.5243 13.5075 14.693 13.6748C14.8617 13.842 15.0619 13.9742 15.2819 14.0637C15.5019 14.1533 15.7374 14.1984 15.975 14.1966C16.2125 14.1957 16.4475 14.1478 16.6664 14.0556C16.8853 13.9634 17.0838 13.8288 17.2504 13.6595C17.417 13.4901 17.5484 13.2895 17.637 13.0691C17.7256 12.8487 17.7697 12.6129 17.7666 12.3754V12.3747Z" fill="white"/>
</svg>
