<svg width="143" height="24" viewBox="0 0 143 24" fill="none" xmlns="http://www.w3.org/2000/svg">
<rect width="143" height="24" fill="#E5E5E5"/>
<g id="UI kit / &#209;&#136;&#208;&#176;&#208;&#191;&#208;&#186;&#208;&#176;">
<path d="M-1659 -1600C-1659 -1601.1 -1658.1 -1602 -1657 -1602H2289C2290.1 -1602 2291 -1601.1 2291 -1600V237C2291 238.105 2290.1 239 2289 239H-1657C-1658.1 239 -1659 238.105 -1659 237V-1600Z" fill="#ECECEC"/>
<path d="M-1657 -1601H2289V-1603H-1657V-1601ZM2290 -1600V237H2292V-1600H2290ZM2289 238H-1657V240H2289V238ZM-1658 237V-1600H-1660V237H-1658ZM-1657 238C-1657.55 238 -1658 237.552 -1658 237H-1660C-1660 238.657 -1658.66 240 -1657 240V238ZM2290 237C2290 237.552 2289.55 238 2289 238V240C2290.66 240 2292 238.657 2292 237H2290ZM2289 -1601C2289.55 -1601 2290 -1600.55 2290 -1600H2292C2292 -1601.66 2290.66 -1603 2289 -1603V-1601ZM-1657 -1603C-1658.66 -1603 -1660 -1601.66 -1660 -1600H-1658C-1658 -1600.55 -1657.55 -1601 -1657 -1601V-1603Z" fill="black" fill-opacity="0.1"/>
<g id="&#208;&#152;&#208;&#189;&#208;&#191;&#209;&#131;&#209;&#130; &#208;&#178; &#208;&#191;&#208;&#190;&#208;&#191;&#208;&#176;&#208;&#191;">
<rect width="1690" height="356" transform="translate(-1499 -277)" fill="white"/>
<g id="Group 54">
<path id="Union" fill-rule="evenodd" clip-rule="evenodd" d="M8.00024 0C5.7911 0 4.00024 1.79086 4.00024 4V8.92061L0 12L4.00024 15.0794V20C4.00024 22.2091 5.7911 24 8.00024 24H139C141.209 24 143 22.2091 143 20V4C143 1.79086 141.209 0 139 0H8.00024Z" fill="#3F3F3F"/>
<path id="&#208;&#157;&#208;&#181;&#208;&#190;&#208;&#177;&#209;&#133;&#208;&#190;&#208;&#180;&#208;&#184;&#208;&#188;&#208;&#190;&#208;&#181; &#208;&#191;&#208;&#190;&#208;&#187;&#208;&#181;" d="M19.332 7.6H20.532V16H19.332V7.6ZM14.508 16H13.308V7.6H14.508V16ZM19.44 12.256H14.388V11.212H19.44V12.256ZM25.7918 16.072C25.1118 16.072 24.5118 15.932 23.9918 15.652C23.4798 15.372 23.0798 14.988 22.7918 14.5C22.5118 14.012 22.3718 13.452 22.3718 12.82C22.3718 12.188 22.5078 11.628 22.7798 11.14C23.0598 10.652 23.4398 10.272 23.9198 10C24.4078 9.72 24.9558 9.58 25.5638 9.58C26.1798 9.58 26.7238 9.716 27.1958 9.988C27.6678 10.26 28.0358 10.644 28.2998 11.14C28.5718 11.628 28.7078 12.2 28.7078 12.856C28.7078 12.904 28.7038 12.96 28.6958 13.024C28.6958 13.088 28.6918 13.148 28.6838 13.204H23.2718V12.376H28.0838L27.6158 12.664C27.6238 12.256 27.5398 11.892 27.3638 11.572C27.1878 11.252 26.9438 11.004 26.6318 10.828C26.3278 10.644 25.9718 10.552 25.5638 10.552C25.1638 10.552 24.8078 10.644 24.4958 10.828C24.1838 11.004 23.9398 11.256 23.7638 11.584C23.5878 11.904 23.4998 12.272 23.4998 12.688V12.88C23.4998 13.304 23.5958 13.684 23.7878 14.02C23.9878 14.348 24.2638 14.604 24.6158 14.788C24.9678 14.972 25.3718 15.064 25.8278 15.064C26.2038 15.064 26.5438 15 26.8478 14.872C27.1598 14.744 27.4318 14.552 27.6638 14.296L28.2998 15.04C28.0118 15.376 27.6518 15.632 27.2198 15.808C26.7958 15.984 26.3198 16.072 25.7918 16.072ZM33.2189 16.072C32.5789 16.072 32.0109 15.932 31.5149 15.652C31.0189 15.372 30.6269 14.988 30.3389 14.5C30.0509 14.004 29.9069 13.444 29.9069 12.82C29.9069 12.188 30.0509 11.628 30.3389 11.14C30.6269 10.652 31.0189 10.272 31.5149 10C32.0109 9.72 32.5789 9.58 33.2189 9.58C33.8509 9.58 34.4149 9.72 34.9109 10C35.4149 10.272 35.8069 10.652 36.0869 11.14C36.3749 11.62 36.5189 12.18 36.5189 12.82C36.5189 13.452 36.3749 14.012 36.0869 14.5C35.8069 14.988 35.4149 15.372 34.9109 15.652C34.4149 15.932 33.8509 16.072 33.2189 16.072ZM33.2189 15.064C33.6269 15.064 33.9909 14.972 34.3109 14.788C34.6389 14.604 34.8949 14.344 35.0789 14.008C35.2629 13.664 35.3549 13.268 35.3549 12.82C35.3549 12.364 35.2629 11.972 35.0789 11.644C34.8949 11.308 34.6389 11.048 34.3109 10.864C33.9909 10.68 33.6269 10.588 33.2189 10.588C32.8109 10.588 32.4469 10.68 32.1269 10.864C31.8069 11.048 31.5509 11.308 31.3589 11.644C31.1669 11.972 31.0709 12.364 31.0709 12.82C31.0709 13.268 31.1669 13.664 31.3589 14.008C31.5509 14.344 31.8069 14.604 32.1269 14.788C32.4469 14.972 32.8109 15.064 33.2189 15.064ZM41.1224 16.096C40.5944 16.096 40.1264 16.012 39.7184 15.844C39.3184 15.676 38.9744 15.428 38.6864 15.1C38.3984 14.764 38.1784 14.344 38.0264 13.84C37.8824 13.328 37.8104 12.728 37.8104 12.04C37.8104 11.496 37.8584 11.008 37.9544 10.576C38.0504 10.144 38.1864 9.76 38.3624 9.424C38.5464 9.088 38.7704 8.796 39.0344 8.548C39.3064 8.3 39.6104 8.096 39.9464 7.936C40.2904 7.768 40.6664 7.64 41.0744 7.552L43.9784 6.904L44.1464 7.972L41.4704 8.548C41.3104 8.58 41.1184 8.628 40.8944 8.692C40.6704 8.756 40.4424 8.856 40.2104 8.992C39.9784 9.12 39.7624 9.3 39.5624 9.532C39.3624 9.764 39.2024 10.068 39.0824 10.444C38.9624 10.812 38.9024 11.268 38.9024 11.812C38.9024 11.964 38.9064 12.08 38.9144 12.16C38.9224 12.24 38.9304 12.32 38.9384 12.4C38.9544 12.48 38.9664 12.6 38.9744 12.76L38.4944 12.268C38.6224 11.828 38.8264 11.444 39.1064 11.116C39.3864 10.788 39.7224 10.536 40.1144 10.36C40.5144 10.176 40.9504 10.084 41.4224 10.084C42.0144 10.084 42.5384 10.212 42.9944 10.468C43.4584 10.724 43.8224 11.076 44.0864 11.524C44.3504 11.972 44.4824 12.484 44.4824 13.06C44.4824 13.644 44.3424 14.168 44.0624 14.632C43.7904 15.088 43.4024 15.448 42.8984 15.712C42.3944 15.968 41.8024 16.096 41.1224 16.096ZM41.2304 15.136C41.6384 15.136 41.9984 15.048 42.3104 14.872C42.6224 14.688 42.8664 14.444 43.0424 14.14C43.2184 13.828 43.3064 13.48 43.3064 13.096C43.3064 12.712 43.2184 12.372 43.0424 12.076C42.8664 11.78 42.6224 11.548 42.3104 11.38C41.9984 11.204 41.6304 11.116 41.2064 11.116C40.8064 11.116 40.4464 11.2 40.1264 11.368C39.8064 11.528 39.5584 11.756 39.3824 12.052C39.2064 12.34 39.1184 12.676 39.1184 13.06C39.1184 13.444 39.2064 13.796 39.3824 14.116C39.5664 14.428 39.8144 14.676 40.1264 14.86C40.4464 15.044 40.8144 15.136 41.2304 15.136ZM44.9088 16L47.6448 12.448L47.6328 13.036L45.0288 9.64H46.3128L48.3048 12.256H47.8128L49.8048 9.64H51.0648L48.4248 13.06L48.4368 12.448L51.1968 16H49.8888L47.7888 13.216L48.2568 13.288L46.1928 16H44.9088ZM54.922 16.072C54.282 16.072 53.714 15.932 53.218 15.652C52.722 15.372 52.33 14.988 52.042 14.5C51.754 14.004 51.61 13.444 51.61 12.82C51.61 12.188 51.754 11.628 52.042 11.14C52.33 10.652 52.722 10.272 53.218 10C53.714 9.72 54.282 9.58 54.922 9.58C55.554 9.58 56.118 9.72 56.614 10C57.118 10.272 57.51 10.652 57.79 11.14C58.078 11.62 58.222 12.18 58.222 12.82C58.222 13.452 58.078 14.012 57.79 14.5C57.51 14.988 57.118 15.372 56.614 15.652C56.118 15.932 55.554 16.072 54.922 16.072ZM54.922 15.064C55.33 15.064 55.694 14.972 56.014 14.788C56.342 14.604 56.598 14.344 56.782 14.008C56.966 13.664 57.058 13.268 57.058 12.82C57.058 12.364 56.966 11.972 56.782 11.644C56.598 11.308 56.342 11.048 56.014 10.864C55.694 10.68 55.33 10.588 54.922 10.588C54.514 10.588 54.15 10.68 53.83 10.864C53.51 11.048 53.254 11.308 53.062 11.644C52.87 11.972 52.774 12.364 52.774 12.82C52.774 13.268 52.87 13.664 53.062 14.008C53.254 14.344 53.51 14.604 53.83 14.788C54.15 14.972 54.514 15.064 54.922 15.064ZM64.1827 15.46V10.648H61.4227L61.3627 11.872C61.3467 12.272 61.3187 12.66 61.2787 13.036C61.2467 13.404 61.1907 13.744 61.1107 14.056C61.0387 14.368 60.9307 14.624 60.7867 14.824C60.6427 15.024 60.4507 15.148 60.2107 15.196L59.0707 14.992C59.3187 15 59.5187 14.92 59.6707 14.752C59.8227 14.576 59.9387 14.336 60.0187 14.032C60.1067 13.728 60.1707 13.384 60.2107 13C60.2507 12.608 60.2827 12.204 60.3067 11.788L60.4027 9.64H65.3347V15.46H64.1827ZM58.8187 17.476V14.992H66.3067V17.476H65.2267V16H59.9107V17.476H58.8187ZM67.8074 16V9.64H68.9594V14.272L72.8594 9.64H73.9034V16H72.7514V11.368L68.8634 16H67.8074ZM76.1394 16V9.64H77.3274L80.0634 14.344H79.5834L82.3914 9.64H83.4714V16H82.4274V10.936L82.6194 11.044L80.0514 15.28H79.5474L76.9674 10.96L77.1954 10.912V16H76.1394ZM88.4377 16.072C87.7977 16.072 87.2297 15.932 86.7337 15.652C86.2377 15.372 85.8457 14.988 85.5577 14.5C85.2697 14.004 85.1257 13.444 85.1257 12.82C85.1257 12.188 85.2697 11.628 85.5577 11.14C85.8457 10.652 86.2377 10.272 86.7337 10C87.2297 9.72 87.7977 9.58 88.4377 9.58C89.0697 9.58 89.6337 9.72 90.1297 10C90.6337 10.272 91.0257 10.652 91.3057 11.14C91.5937 11.62 91.7377 12.18 91.7377 12.82C91.7377 13.452 91.5937 14.012 91.3057 14.5C91.0257 14.988 90.6337 15.372 90.1297 15.652C89.6337 15.932 89.0697 16.072 88.4377 16.072ZM88.4377 15.064C88.8457 15.064 89.2097 14.972 89.5297 14.788C89.8577 14.604 90.1137 14.344 90.2977 14.008C90.4817 13.664 90.5737 13.268 90.5737 12.82C90.5737 12.364 90.4817 11.972 90.2977 11.644C90.1137 11.308 89.8577 11.048 89.5297 10.864C89.2097 10.68 88.8457 10.588 88.4377 10.588C88.0297 10.588 87.6657 10.68 87.3457 10.864C87.0257 11.048 86.7697 11.308 86.5777 11.644C86.3857 11.972 86.2897 12.364 86.2897 12.82C86.2897 13.268 86.3857 13.664 86.5777 14.008C86.7697 14.344 87.0257 14.604 87.3457 14.788C87.6657 14.972 88.0297 15.064 88.4377 15.064ZM96.2332 16.072C95.5532 16.072 94.9532 15.932 94.4332 15.652C93.9212 15.372 93.5212 14.988 93.2332 14.5C92.9532 14.012 92.8132 13.452 92.8132 12.82C92.8132 12.188 92.9492 11.628 93.2212 11.14C93.5012 10.652 93.8812 10.272 94.3612 10C94.8492 9.72 95.3972 9.58 96.0052 9.58C96.6212 9.58 97.1652 9.716 97.6372 9.988C98.1092 10.26 98.4772 10.644 98.7412 11.14C99.0132 11.628 99.1492 12.2 99.1492 12.856C99.1492 12.904 99.1452 12.96 99.1372 13.024C99.1372 13.088 99.1332 13.148 99.1252 13.204H93.7132V12.376H98.5252L98.0572 12.664C98.0652 12.256 97.9812 11.892 97.8052 11.572C97.6292 11.252 97.3852 11.004 97.0732 10.828C96.7692 10.644 96.4132 10.552 96.0052 10.552C95.6052 10.552 95.2492 10.644 94.9372 10.828C94.6252 11.004 94.3812 11.256 94.2052 11.584C94.0292 11.904 93.9412 12.272 93.9412 12.688V12.88C93.9412 13.304 94.0372 13.684 94.2292 14.02C94.4292 14.348 94.7052 14.604 95.0572 14.788C95.4092 14.972 95.8132 15.064 96.2692 15.064C96.6452 15.064 96.9852 15 97.2892 14.872C97.6012 14.744 97.8732 14.552 98.1052 14.296L98.7412 15.04C98.4532 15.376 98.0932 15.632 97.6612 15.808C97.2372 15.984 96.7612 16.072 96.2332 16.072ZM104.159 16V9.64H110.051V16H108.899V10.36L109.175 10.648H105.035L105.311 10.36V16H104.159ZM115.004 16.072C114.364 16.072 113.796 15.932 113.3 15.652C112.804 15.372 112.412 14.988 112.124 14.5C111.836 14.004 111.692 13.444 111.692 12.82C111.692 12.188 111.836 11.628 112.124 11.14C112.412 10.652 112.804 10.272 113.3 10C113.796 9.72 114.364 9.58 115.004 9.58C115.636 9.58 116.2 9.72 116.696 10C117.2 10.272 117.592 10.652 117.872 11.14C118.16 11.62 118.304 12.18 118.304 12.82C118.304 13.452 118.16 14.012 117.872 14.5C117.592 14.988 117.2 15.372 116.696 15.652C116.2 15.932 115.636 16.072 115.004 16.072ZM115.004 15.064C115.412 15.064 115.776 14.972 116.096 14.788C116.424 14.604 116.68 14.344 116.864 14.008C117.048 13.664 117.14 13.268 117.14 12.82C117.14 12.364 117.048 11.972 116.864 11.644C116.68 11.308 116.424 11.048 116.096 10.864C115.776 10.68 115.412 10.588 115.004 10.588C114.596 10.588 114.232 10.68 113.912 10.864C113.592 11.048 113.336 11.308 113.144 11.644C112.952 11.972 112.856 12.364 112.856 12.82C112.856 13.268 112.952 13.664 113.144 14.008C113.336 14.344 113.592 14.604 113.912 14.788C114.232 14.972 114.596 15.064 115.004 15.064ZM118.865 15.988L118.937 15.016C118.993 15.024 119.045 15.032 119.093 15.04C119.141 15.048 119.185 15.052 119.225 15.052C119.481 15.052 119.681 14.964 119.825 14.788C119.977 14.612 120.089 14.38 120.161 14.092C120.233 13.796 120.285 13.464 120.317 13.096C120.349 12.728 120.373 12.36 120.389 11.992L120.497 9.64H125.381V16H124.229V10.312L124.505 10.648H121.241L121.505 10.3L121.421 12.064C121.397 12.624 121.353 13.148 121.289 13.636C121.225 14.124 121.125 14.552 120.989 14.92C120.861 15.288 120.681 15.576 120.449 15.784C120.225 15.992 119.933 16.096 119.573 16.096C119.469 16.096 119.357 16.084 119.237 16.06C119.125 16.044 119.001 16.02 118.865 15.988ZM130.44 16.072C129.76 16.072 129.16 15.932 128.64 15.652C128.128 15.372 127.728 14.988 127.44 14.5C127.16 14.012 127.02 13.452 127.02 12.82C127.02 12.188 127.156 11.628 127.428 11.14C127.708 10.652 128.088 10.272 128.568 10C129.056 9.72 129.604 9.58 130.212 9.58C130.828 9.58 131.372 9.716 131.844 9.988C132.316 10.26 132.684 10.644 132.948 11.14C133.22 11.628 133.356 12.2 133.356 12.856C133.356 12.904 133.352 12.96 133.344 13.024C133.344 13.088 133.34 13.148 133.332 13.204H127.92V12.376H132.732L132.264 12.664C132.272 12.256 132.188 11.892 132.012 11.572C131.836 11.252 131.592 11.004 131.28 10.828C130.976 10.644 130.62 10.552 130.212 10.552C129.812 10.552 129.456 10.644 129.144 10.828C128.832 11.004 128.588 11.256 128.412 11.584C128.236 11.904 128.148 12.272 128.148 12.688V12.88C128.148 13.304 128.244 13.684 128.436 14.02C128.636 14.348 128.912 14.604 129.264 14.788C129.616 14.972 130.02 15.064 130.476 15.064C130.852 15.064 131.192 15 131.496 14.872C131.808 14.744 132.08 14.552 132.312 14.296L132.948 15.04C132.66 15.376 132.3 15.632 131.868 15.808C131.444 15.984 130.968 16.072 130.44 16.072Z" fill="white"/>
</g>
</g>
</g>
</svg>
