<svg width="32" height="32" viewBox="0 0 32 32" fill="none" xmlns="http://www.w3.org/2000/svg">
<g clip-path="url(#clip0_4252_18863)">
<path d="M8.50188 0.0937153C5.57688 0.643715 3.28313 2.98747 2.78938 5.93121C2.54563 7.36246 2.78313 9.01245 3.41438 10.2625C4.42063 12.2687 6.45188 13.8125 8.53313 14.1437L9.00188 14.2125L9.01438 22.9437L9.03313 31.675L9.18313 31.8375C9.45813 32.1312 11.2016 31.9999 11.2016 31.9999C11.2016 31.9999 11.9706 31.9999 11.9956 31.9999C12.0269 31.9999 12.8016 32 12.8016 32C13.6016 32 14.2394 32 14.3831 32C14.5269 32 16.0016 31.9999 16.0016 31.9999C16.0016 31.9999 16.7578 31.9812 16.8016 32C16.8453 32.0125 16.8016 32 17.6016 32C17.6016 32 19.0144 32 19.1706 32C19.3269 32 20.8016 31.9999 20.8016 31.9999C20.8016 31.9999 21.5766 32 21.6016 32C21.6266 32 22.4016 32 22.4016 32C22.4016 32 23.8019 32 23.9644 32C24.1269 32 24.0016 32 24.8016 32C24.8016 32 26.3703 32 26.4016 32C26.4016 32 27.2016 31.9625 27.2016 31.9999C27.2016 31.9999 28.7519 32.0687 29.0331 31.9625C29.3269 31.85 29.3144 32.2375 29.3144 21.5187C29.3081 13.6687 29.2956 11.4375 29.2331 11.3312C29.0956 11.0812 24.1019 5.79996 23.9519 5.74371C23.8706 5.71246 22.2331 5.68746 20.3144 5.68746H16.8269L16.7831 5.48121C16.5769 4.44372 15.9456 3.23746 15.1081 2.29372C14.3269 1.40622 12.9269 0.556215 11.6894 0.212465C11.1831 0.0749653 10.9394 0.0437153 10.0331 0.0249653C9.28938 0.0124653 8.83313 0.0312153 8.50188 0.0937153ZM11.4581 1.33747C13.8706 2.05622 15.5956 4.13121 15.8019 6.54371C16.0581 9.58121 14.1706 12.2187 11.1894 12.975C10.5081 13.15 9.03313 13.1375 8.36438 12.95C6.58313 12.4625 5.22688 11.35 4.43938 9.71871C3.97688 8.76871 3.85188 8.21871 3.85188 7.12496C3.85188 6.12496 3.92688 5.70621 4.25813 4.88121C5.00188 3.01872 6.81438 1.53747 8.76438 1.19372C8.94563 1.15622 9.50188 1.14372 10.0019 1.14997C10.7644 1.16872 10.9956 1.19997 11.4581 1.33747ZM23.1894 9.28746C23.1894 10.9375 23.2144 11.8 23.2581 11.8875C23.4081 12.1625 23.6081 12.1875 25.9706 12.1875H28.1894V21.35V30.5062V30.816C28.1023 30.816 27.0331 30.816 27.0331 30.816C26.4753 30.816 26.0776 30.816 25.0269 30.816H23.9644H22.8394C22.5922 30.816 21.6519 30.816 21.5644 30.816C21.4769 30.816 20.4157 30.816 20.2894 30.816H19.1706H18.1019C17.8631 30.816 16.9078 30.8347 16.8016 30.816H15.5081L14.3769 30.8125H13.2114C13.1175 30.8125 12.0769 30.8125 11.9956 30.8125C11.8706 30.8125 11.4991 30.8125 11.1128 30.8125H10.1269V22.3937V14.275L10.7706 14.1937C11.7956 14.0687 12.9894 13.625 13.8144 13.0625C15.1706 12.1312 16.1644 10.8062 16.6519 9.26871C16.8331 8.68746 16.9081 8.23121 16.9706 7.38746L17.0144 6.81246H20.1019H23.1894V9.28746ZM25.5394 9.01246C26.1956 9.71246 26.8894 10.4562 27.0894 10.6687L27.4519 11.0625H25.8831H24.3144V9.40621C24.3144 8.49371 24.3206 7.74996 24.3331 7.74996C24.3456 7.74996 24.8894 8.31871 25.5394 9.01246Z" fill="#E43A2D"/>
<path d="M13.9006 13.9812C13.5006 14.0562 13.3506 14.6249 13.6506 14.9312L13.8131 15.0937L16.6443 15.1124C18.1943 15.1249 19.5631 15.1124 19.6818 15.0937C20.2693 14.9812 20.3818 14.2499 19.8443 14.0249C19.6693 13.9562 19.1193 13.9374 16.8318 13.9437C15.2943 13.9499 13.9693 13.9687 13.9006 13.9812Z" fill="#E43A2D"/>
<path d="M13.7085 17.4062C13.396 17.6249 13.421 18.1749 13.7523 18.3437C13.9148 18.4249 14.5835 18.4374 19.2522 18.4249L24.5585 18.4062L24.7022 18.2624C24.9147 18.0562 24.896 17.6562 24.671 17.4624L24.496 17.3124H19.171C14.5585 17.3124 13.8273 17.3249 13.7085 17.4062Z" fill="#E43A2D"/>
<path d="M13.8087 20.6937C13.465 20.8187 13.3712 21.3625 13.6587 21.6062L13.8212 21.75H19.1775C23.29 21.7437 24.5587 21.7312 24.6337 21.6687C24.9462 21.425 24.9337 20.95 24.6087 20.75C24.415 20.6312 24.2587 20.625 19.19 20.6312C16.0462 20.6312 13.9087 20.6562 13.8087 20.6937Z" fill="#E43A2D"/>
<path d="M13.6322 24.1499C13.426 24.3687 13.4385 24.7124 13.651 24.9312L13.8135 25.0937L19.0197 25.1124C22.6697 25.1249 24.2885 25.1124 24.4572 25.0624C24.876 24.9374 25.001 24.4249 24.676 24.1249C24.5385 23.9999 24.476 23.9999 19.1572 23.9999H13.7697L13.6322 24.1499Z" fill="#E43A2D"/>
<path d="M9.08239 8.14625V8.65825H11.046V9.41711H9.08239V10.24H7.60057V9.41711H6.71875V8.65825H7.60057V3.83997H10.3551C11.2218 3.83997 11.8975 4.02282 12.3824 4.38854C12.8733 4.75425 13.1187 5.29063 13.1187 5.99768C13.1187 6.69863 12.8733 7.23197 12.3824 7.59768C11.8975 7.96339 11.2218 8.14625 10.3551 8.14625H9.08239ZM11.6278 6.00682C11.6278 5.69597 11.5157 5.45825 11.2915 5.29368C11.0733 5.12911 10.7581 5.04682 10.346 5.04682H9.08239V6.98511H10.346C10.7581 6.98511 11.0733 6.90282 11.2915 6.73825C11.5157 6.56758 11.6278 6.32378 11.6278 6.00682Z" fill="#E43A2D"/>
</g>
<defs>
<clipPath id="clip0_4252_18863">
<rect width="32" height="32" fill="white"/>
</clipPath>
</defs>
</svg>
