<svg width="32" height="32" viewBox="0 0 32 32" fill="none" xmlns="http://www.w3.org/2000/svg">
<g clip-path="url(#clip0_2608_177599)">
<path d="M24 0H8C3.58172 0 0 3.58172 0 8V24C0 28.4183 3.58172 32 8 32H24C28.4183 32 32 28.4183 32 24V8C32 3.58172 28.4183 0 24 0Z" fill="#333333"/>
<path d="M7.125 8.5H24.875V17.4288C24.875 19.7164 23.6537 21.8331 21.6731 22.9753L16 26.25L10.327 22.9753C8.3463 21.8299 7.125 19.7164 7.125 17.4288V8.5Z" fill="#FFDD2D"/>
<path fill-rule="evenodd" clip-rule="evenodd" d="M11.9961 13.1987V15.9767C12.3757 15.5464 13.0655 15.2585 13.8565 15.2585H14.7139V18.4858C14.7139 19.3432 14.4798 20.0962 14.1349 20.5107H17.8653C17.5204 20.0962 17.2863 19.3464 17.2863 18.4889V15.2585H18.1437C18.9315 15.2585 19.6245 15.5496 20.0041 15.9767V13.1987H11.9961Z" fill="#333333"/>
</g>
<defs>
<clipPath id="clip0_2608_177599">
<rect width="32" height="32" fill="white"/>
</clipPath>
</defs>
</svg>
