<svg width="32" height="32" viewBox="0 0 32 32" fill="none" xmlns="http://www.w3.org/2000/svg">
<path d="M10.1248 1.125C10.0123 1.2375 9.99983 1.33125 9.99983 2.2375V3.21875L7.61233 3.9625C3.73733 5.16875 3.99983 5.0625 3.99983 5.4875C3.99983 5.60625 5.34983 10.0125 6.99983 15.2875L9.99983 24.8687V27.8125C9.99983 30.6687 10.0061 30.7562 10.1248 30.875C10.2498 31 10.3311 31 18.9998 31C27.6686 31 27.7498 31 27.8748 30.875C27.9998 30.75 27.9998 30.6687 27.9998 24.375C27.9998 18.3125 27.9936 17.9812 27.8811 17.6687C27.8186 17.4937 26.9186 15.7562 25.8811 13.8187L23.9998 10.2875V5.76875C23.9998 1.33125 23.9998 1.25 23.8748 1.125C23.7498 1 23.6686 1 16.9998 1C10.3311 1 10.2498 1 10.1248 1.125ZM22.9998 12V22H22.6623C22.3436 22 22.3061 21.9812 22.1623 21.7937L21.9998 21.5812V13.1687C21.9998 3.3375 22.1186 4.5 21.1248 4.5H20.4998V3.875C20.4998 2.90625 20.8686 3 16.9998 3C13.1311 3 13.4998 2.90625 13.4998 3.875V4.5H12.8748C12.3311 4.5 12.2311 4.51875 12.1248 4.625C11.9998 4.75 11.9998 4.83125 11.9998 16C11.9998 27.1687 11.9998 27.25 12.1248 27.375C12.2311 27.4812 12.3311 27.5 12.8748 27.5H13.4998V28.125C13.4998 29.0875 13.1748 29 16.7498 29H19.7498L19.8498 29.1625C19.9123 29.25 20.1373 29.475 20.3561 29.6625L20.7561 30H15.8811H10.9998V16V2H16.9998H22.9998V12ZM19.4998 4.625C19.4998 5.16875 19.5186 5.26875 19.6248 5.375C19.7311 5.48125 19.8311 5.5 20.3748 5.5H20.9998V12.8125C20.9998 16.8312 20.9873 20.125 20.9748 20.125C20.9623 20.125 20.5936 19.6312 20.1561 19.0312L19.3623 17.9312L19.5498 17.6375C19.8623 17.1562 19.9998 16.6437 19.9998 16C19.9998 15.0937 19.7061 14.3875 19.0748 13.8C18.4686 13.2312 17.8623 13 16.9936 13C16.0873 13 15.3873 13.2937 14.7998 13.925C14.2311 14.5312 13.9998 15.1375 13.9998 16C13.9998 16.8812 14.2373 17.475 14.8311 18.1062L15.1373 18.4312L15.0373 18.7312C14.8186 19.4187 14.8561 20.0937 15.1498 20.6875C15.2311 20.8437 16.0123 22.0375 16.8936 23.3375C18.3061 25.425 18.4998 25.7375 18.4998 25.95C18.4998 26.3312 18.6811 27.1187 18.8748 27.5812L19.0498 28H16.7748H14.4998V27.375C14.4998 26.525 14.4748 26.5 13.6248 26.5H12.9998V16V5.5H13.6248C14.4748 5.5 14.4998 5.475 14.4998 4.625V4H16.9998H19.4998V4.625ZM9.99983 4.84375V5.30625L9.08108 5.59375C8.49983 5.775 8.11858 5.93125 8.04983 6.0125C7.89983 6.18125 7.90608 6.51875 8.06233 6.975C8.13108 7.175 8.18108 7.36875 8.16233 7.40625C8.14983 7.45 7.91858 7.54375 7.65608 7.61875C7.10608 7.7875 6.93733 7.91875 6.93733 8.19375C6.93733 8.30625 7.62483 10.5937 8.46858 13.2875L9.99983 18.1812L9.98733 19.675L9.96858 21.175L7.57483 13.5187C6.25608 9.3125 5.18733 5.85625 5.19983 5.85C5.23733 5.81875 9.84358 4.38125 9.92483 4.38125C9.97483 4.375 9.99983 4.50625 9.99983 4.84375ZM9.99983 10.4812L9.99358 14.5312L9.06233 11.5687C8.54983 9.9375 8.13733 8.59375 8.14358 8.59375C8.14983 8.5875 8.40608 8.50625 8.70608 8.4125C9.19983 8.2625 9.26233 8.225 9.35608 8.03125C9.44983 7.83125 9.44983 7.8 9.28733 7.28125C9.19358 6.98125 9.12483 6.73125 9.13733 6.71875C9.16233 6.7 9.89358 6.45 9.95608 6.44375C9.98108 6.4375 9.99983 8.25625 9.99983 10.4812ZM25.4561 15.3187C26.4748 17.2312 26.8936 18.0687 26.9373 18.3062C26.9748 18.5187 26.9998 20.75 26.9998 24.3187V30H25.5811C24.7936 30 23.9123 29.975 23.6186 29.9437C22.5936 29.8312 21.7061 29.4312 20.9623 28.7312C20.1123 27.9375 19.6686 27.0125 19.5686 25.8437L19.5186 25.2812L17.7873 22.725C16.7561 21.1937 16.0311 20.0625 15.9936 19.9125C15.8998 19.5687 16.0061 19.05 16.2373 18.7187C16.3373 18.575 16.5436 18.4 16.7498 18.2937C17.0498 18.1375 17.1436 18.1187 17.5123 18.1375C18.1873 18.175 18.2498 18.2375 20.0436 20.7187C20.9123 21.9125 21.6561 22.9187 21.6998 22.95C21.7436 22.975 22.2248 23 22.7686 23C23.6686 23 23.7623 22.9875 23.8748 22.875C23.9998 22.75 23.9998 22.6687 23.9998 17.675C23.9998 14.8875 24.0123 12.6187 24.0186 12.6312C24.0311 12.6437 24.6811 13.85 25.4561 15.3187ZM17.8561 14.2562C18.2998 14.4687 18.5811 14.7625 18.7998 15.2375C18.9311 15.5312 18.9498 15.6375 18.9248 16.0875C18.9061 16.4375 18.8561 16.675 18.7623 16.85C18.5623 17.2375 18.5123 17.2562 18.1311 17.1437C17.8998 17.075 17.6311 17.0562 17.2748 17.075C16.8311 17.1 16.6873 17.1375 16.2811 17.3375L15.7998 17.575L15.6248 17.4062C15.2873 17.0812 15.1061 16.6437 15.0748 16.0875C15.0498 15.6437 15.0686 15.5312 15.1998 15.2375C15.4061 14.7937 15.6686 14.5 16.0623 14.2875C16.6498 13.9687 17.2248 13.9562 17.8561 14.2562Z" fill="#E43A2D"/>
</svg>
