<svg width="32" height="32" viewBox="0 0 32 32" fill="none" xmlns="http://www.w3.org/2000/svg">
<path d="M0.142857 6.31426C0 6.45712 0 6.54997 0 13.6C0 20.65 0 20.7428 0.142857 20.8857C0.285714 21.0285 0.378571 21.0285 5.28571 21.0285H10.2857V23.1714C10.2857 25.2214 10.2929 25.3214 10.4286 25.4571C10.5714 25.6 10.6643 25.6 21.1429 25.6C31.6214 25.6 31.7143 25.6 31.8571 25.4571C32 25.3143 32 25.2214 32 18.1714C32 11.1214 32 11.0285 31.8571 10.8857C31.7143 10.7428 31.6214 10.7428 26.7143 10.7428H21.7143V8.59997C21.7143 6.54997 21.7071 6.44997 21.5714 6.31426C21.4286 6.1714 21.3357 6.1714 10.8571 6.1714C0.378571 6.1714 0.285714 6.1714 0.142857 6.31426ZM20.5714 13.6V19.8857H10.8571H1.14286V13.6V7.31426H10.8571H20.5714V13.6ZM30.8571 12.4571V13.0285H26.2857H21.7143V12.4571V11.8857H26.2857H30.8571V12.4571ZM30.8571 15.8857V17.6H26.2857H21.7143V15.8857V14.1714H26.2857H30.8571V15.8857ZM30.8571 21.6V24.4571H21.1429H11.4286V22.7428V21.0285H16.4286C21.3357 21.0285 21.4286 21.0285 21.5714 20.8857C21.7 20.7571 21.7143 20.65 21.7143 19.7428V18.7428H26.2857H30.8571V21.6Z" fill="#E43A2D"/>
<path d="M2.42801 8.60003C2.2923 8.73574 2.28516 8.83574 2.28516 10.1715C2.28516 11.5072 2.2923 11.6072 2.42801 11.7429C2.56373 11.8786 2.66373 11.8857 3.99944 11.8857C5.33516 11.8857 5.43516 11.8786 5.57087 11.7429C5.70658 11.6072 5.71373 11.5072 5.71373 10.1715C5.71373 8.83574 5.70658 8.73574 5.57087 8.60003C5.43516 8.46431 5.33516 8.45717 3.99944 8.45717C2.66373 8.45717 2.56373 8.46431 2.42801 8.60003ZM4.57087 10.1715V10.7429H3.99944H3.42801V10.1715V9.60003H3.99944H4.57087V10.1715Z" fill="#E43A2D"/>
<path d="M16.1429 9.7428C16.05 9.83565 16 9.97851 16 10.1714C16 10.3642 16.05 10.5071 16.1429 10.5999C16.2786 10.7357 16.3786 10.7428 17.7143 10.7428C19.05 10.7428 19.15 10.7357 19.2857 10.5999C19.3786 10.5071 19.4286 10.3642 19.4286 10.1714C19.4286 9.97851 19.3786 9.83565 19.2857 9.7428C19.15 9.60708 19.05 9.59994 17.7143 9.59994C16.3786 9.59994 16.2786 9.60708 16.1429 9.7428Z" fill="#E43A2D"/>
<path d="M2.42801 13.1714C2.33516 13.2642 2.28516 13.4071 2.28516 13.6C2.28516 13.7928 2.33516 13.9357 2.42801 14.0285C2.56373 14.1642 2.66373 14.1714 3.99944 14.1714C5.33516 14.1714 5.43516 14.1642 5.57087 14.0285C5.66373 13.9357 5.71373 13.7928 5.71373 13.6C5.71373 13.4071 5.66373 13.2642 5.57087 13.1714C5.43516 13.0357 5.33516 13.0285 3.99944 13.0285C2.66373 13.0285 2.56373 13.0357 2.42801 13.1714Z" fill="#E43A2D"/>
<path d="M6.99833 13.1714C6.90547 13.2642 6.85547 13.4071 6.85547 13.6C6.85547 13.7928 6.90547 13.9357 6.99833 14.0285C7.13404 14.1642 7.23404 14.1714 8.56975 14.1714C9.90547 14.1714 10.0055 14.1642 10.1412 14.0285C10.234 13.9357 10.284 13.7928 10.284 13.6C10.284 13.4071 10.234 13.2642 10.1412 13.1714C10.0055 13.0357 9.90547 13.0285 8.56975 13.0285C7.23404 13.0285 7.13404 13.0357 6.99833 13.1714Z" fill="#E43A2D"/>
<path d="M11.5725 13.1714C11.4797 13.2642 11.4297 13.4071 11.4297 13.6C11.4297 13.7928 11.4797 13.9357 11.5725 14.0285C11.7083 14.1642 11.8083 14.1714 13.144 14.1714C14.4797 14.1714 14.5797 14.1642 14.7154 14.0285C14.8083 13.9357 14.8583 13.7928 14.8583 13.6C14.8583 13.4071 14.8083 13.2642 14.7154 13.1714C14.5797 13.0357 14.4797 13.0285 13.144 13.0285C11.8083 13.0285 11.7083 13.0357 11.5725 13.1714Z" fill="#E43A2D"/>
<path d="M16.1429 13.1714C16.05 13.2642 16 13.4071 16 13.6C16 13.7928 16.05 13.9357 16.1429 14.0285C16.2786 14.1642 16.3786 14.1714 17.7143 14.1714C19.05 14.1714 19.15 14.1642 19.2857 14.0285C19.3786 13.9357 19.4286 13.7928 19.4286 13.6C19.4286 13.4071 19.3786 13.2642 19.2857 13.1714C19.15 13.0357 19.05 13.0285 17.7143 13.0285C16.3786 13.0285 16.2786 13.0357 16.1429 13.1714Z" fill="#E43A2D"/>
<path d="M2.42801 15.4572C2.33516 15.55 2.28516 15.6929 2.28516 15.8857C2.28516 16.0786 2.33516 16.2214 2.42801 16.3143C2.57087 16.4572 2.66373 16.4572 6.85658 16.4572C11.0494 16.4572 11.1423 16.4572 11.2852 16.3143C11.478 16.1214 11.478 15.65 11.2852 15.4572C11.1423 15.3143 11.0494 15.3143 6.85658 15.3143C2.66373 15.3143 2.57087 15.3143 2.42801 15.4572Z" fill="#E43A2D"/>
<path d="M15.8198 15.4499C15.1983 15.7356 14.8555 16.3071 14.8555 17.0428C14.8626 17.7714 15.2412 18.3714 15.8698 18.6285C16.284 18.8071 18.0769 18.7856 18.4626 18.6071C19.0769 18.3214 19.4269 17.7499 19.4269 17.0285C19.4269 16.5142 19.2912 16.1571 18.9769 15.8214C18.5626 15.3856 18.3055 15.3142 17.1412 15.3142C16.284 15.3142 16.0555 15.3428 15.8198 15.4499ZM17.8912 16.5571C18.1555 16.6714 18.2626 16.8999 18.184 17.2142C18.1198 17.4642 17.7555 17.5999 17.1412 17.5999C16.5269 17.5999 16.1626 17.4642 16.0983 17.2142C16.0269 16.9071 16.1269 16.6714 16.3769 16.5642C16.6769 16.4285 17.5769 16.4285 17.8912 16.5571Z" fill="#E43A2D"/>
<path d="M2.42801 17.7428C2.33516 17.8357 2.28516 17.9785 2.28516 18.1714C2.28516 18.3642 2.33516 18.5071 2.42801 18.5999C2.56373 18.7357 2.66373 18.7428 4.28516 18.7428C5.90658 18.7428 6.00658 18.7357 6.1423 18.5999C6.23516 18.5071 6.28516 18.3642 6.28516 18.1714C6.28516 17.9785 6.23516 17.8357 6.1423 17.7428C6.00658 17.6071 5.90658 17.5999 4.28516 17.5999C2.66373 17.5999 2.56373 17.6071 2.42801 17.7428Z" fill="#E43A2D"/>
<path d="M26.1049 20.0215C25.4835 20.3072 25.1406 20.8786 25.1406 21.6143C25.1478 22.3429 25.5263 22.9429 26.1549 23.2C26.5692 23.3786 28.3621 23.3572 28.7478 23.1786C29.3621 22.8929 29.7121 22.3215 29.7121 21.6C29.7121 20.8786 29.3621 20.3072 28.7478 20.0215C28.3263 19.8286 26.5263 19.8286 26.1049 20.0215ZM28.1763 21.1286C28.4406 21.2429 28.5478 21.4715 28.4692 21.7857C28.4049 22.0357 28.0406 22.1715 27.4263 22.1715C26.8121 22.1715 26.4478 22.0357 26.3835 21.7857C26.3121 21.4786 26.4121 21.2429 26.6621 21.1357C26.9621 21 27.8621 21 28.1763 21.1286Z" fill="#E43A2D"/>
</svg>
