<svg width="40" height="40" viewBox="0 0 40 40" fill="none" xmlns="http://www.w3.org/2000/svg">
<g clip-path="url(#clip0_859_115040)">
<path d="M10.6667 18.6673H19.3333C19.5101 18.6673 19.6797 18.5971 19.8047 18.4721C19.9298 18.347 20 18.1775 20 18.0007C20 17.8238 19.9298 17.6543 19.8047 17.5292C19.6797 17.4042 19.5101 17.334 19.3333 17.334H10.6667C10.4899 17.334 10.3203 17.4042 10.1953 17.5292C10.0702 17.6543 10 17.8238 10 18.0007C10 18.1775 10.0702 18.347 10.1953 18.4721C10.3203 18.5971 10.4899 18.6673 10.6667 18.6673Z" fill="#E43A2D"/>
<path d="M10.6665 23.3327C10.6665 23.5095 10.7367 23.6791 10.8618 23.8041C10.9868 23.9291 11.1564 23.9993 11.3332 23.9993H26.6665C26.8433 23.9993 27.0129 23.9291 27.1379 23.8041C27.2629 23.6791 27.3332 23.5095 27.3332 23.3327C27.3332 23.1559 27.2629 22.9863 27.1379 22.8613C27.0129 22.7363 26.8433 22.666 26.6665 22.666H11.3332C11.1564 22.666 10.9868 22.7363 10.8618 22.8613C10.7367 22.9863 10.6665 23.1559 10.6665 23.3327Z" fill="#E43A2D"/>
<path d="M0.666667 10.6666H4.574L7.36133 26.3132C7.60067 27.6599 7.75 28.4959 7.87333 29.0139L6.33333 31.3566C6.12883 31.6836 6.01561 32.0594 6.00543 32.4449C5.99525 32.8305 6.08849 33.2117 6.27545 33.549C6.46242 33.8864 6.7363 34.1675 7.06864 34.3632C7.40098 34.5589 7.77965 34.662 8.16533 34.6619H10.0233C9.57897 35.236 9.33643 35.9406 9.33333 36.6666C9.32929 37.1972 9.45197 37.721 9.69116 38.1947C9.93035 38.6683 10.2792 39.0779 10.7086 39.3896C11.138 39.7013 11.6356 39.906 12.16 39.9866C12.6844 40.0672 13.2205 40.0215 13.7237 39.8532C14.2269 39.685 14.6827 39.399 15.0531 39.0191C15.4235 38.6392 15.6979 38.1764 15.8535 37.6691C16.009 37.1618 16.0412 36.6247 15.9474 36.1025C15.8535 35.5803 15.6364 35.088 15.314 34.6666H22.018C21.5768 35.2402 21.3362 35.9429 21.3333 36.6666C21.3333 37.5506 21.6845 38.3985 22.3096 39.0236C22.9348 39.6487 23.7826 39.9999 24.6667 39.9999C25.5507 39.9999 26.3986 39.6487 27.0237 39.0236C27.6488 38.3985 28 37.5506 28 36.6666C27.9973 35.943 27.757 35.2403 27.316 34.6666H29.3333C29.5101 34.6666 29.6797 34.5963 29.8047 34.4713C29.9298 34.3463 30 34.1767 30 33.9999C30 33.8231 29.9298 33.6535 29.8047 33.5285C29.6797 33.4035 29.5101 33.3332 29.3333 33.3332L8.16267 33.3286C8.01636 33.3286 7.87267 33.2898 7.74625 33.2161C7.61983 33.1425 7.5152 33.0366 7.44303 32.9094C7.37085 32.7821 7.33372 32.638 7.33542 32.4917C7.33711 32.3454 7.37757 32.2021 7.45267 32.0766L8.92467 29.8419L28.306 28.8259C28.771 28.8002 29.217 28.6326 29.5839 28.3457C29.9508 28.0588 30.2209 27.6664 30.358 27.2212L32.6727 19.6266C34.5866 19.1017 36.3015 18.0204 37.6002 16.5197C38.8989 15.0191 39.7228 13.1667 39.9675 11.1972C40.2122 9.22781 39.8667 7.23007 38.9748 5.45722C38.0829 3.68438 36.6847 2.21626 34.9574 1.23894C33.2302 0.261626 31.2516 -0.180879 29.2726 -0.032485C27.2936 0.115909 25.4032 0.848519 23.841 2.07249C22.2788 3.29646 21.1152 4.95667 20.4976 6.84271C19.8801 8.72874 19.8363 10.7557 20.372 12.6666H6.28467C5.98667 10.9906 5.78933 9.88258 5.78933 9.88258C5.7618 9.7286 5.68101 9.58921 5.56109 9.48879C5.44117 9.38836 5.28975 9.33331 5.13333 9.33325H0.666667C0.489856 9.33325 0.320286 9.40348 0.195262 9.52851C0.0702379 9.65353 0 9.8231 0 9.99991C0 10.1767 0.0702379 10.3463 0.195262 10.4713C0.320286 10.5963 0.489856 10.6666 0.666667 10.6666ZM12.6667 38.6666C12.2711 38.6666 11.8844 38.5493 11.5555 38.3295C11.2266 38.1098 10.9703 37.7974 10.8189 37.4319C10.6675 37.0665 10.6279 36.6644 10.7051 36.2764C10.7823 35.8884 10.9727 35.5321 11.2525 35.2524C11.5322 34.9727 11.8885 34.7822 12.2765 34.705C12.6644 34.6278 13.0666 34.6674 13.432 34.8188C13.7975 34.9702 14.1098 35.2265 14.3296 35.5554C14.5494 35.8843 14.6667 36.271 14.6667 36.6666C14.6667 37.197 14.456 37.7057 14.0809 38.0808C13.7058 38.4559 13.1971 38.6666 12.6667 38.6666ZM24.6667 38.6666C24.2711 38.6666 23.8844 38.5493 23.5555 38.3295C23.2266 38.1098 22.9703 37.7974 22.8189 37.4319C22.6675 37.0665 22.6279 36.6644 22.7051 36.2764C22.7823 35.8884 22.9727 35.5321 23.2525 35.2524C23.5322 34.9727 23.8885 34.7822 24.2765 34.705C24.6644 34.6278 25.0666 34.6674 25.432 34.8188C25.7975 34.9702 26.1098 35.2265 26.3296 35.5554C26.5494 35.8843 26.6667 36.271 26.6667 36.6666C26.6667 37.197 26.456 37.7057 26.0809 38.0808C25.7058 38.4559 25.1971 38.6666 24.6667 38.6666ZM30 1.33325C31.7141 1.33325 33.3897 1.84154 34.8149 2.79384C36.2402 3.74615 37.351 5.0997 38.007 6.68332C38.6629 8.26695 38.8345 10.0095 38.5001 11.6907C38.1657 13.3719 37.3403 14.9161 36.1283 16.1282C34.9162 17.3402 33.372 18.1656 31.6908 18.5C30.0096 18.8345 28.267 18.6628 26.6834 18.0069C25.0998 17.3509 23.7462 16.2401 22.7939 14.8149C21.8416 13.3896 21.3333 11.714 21.3333 9.99991C21.336 7.70218 22.2499 5.49932 23.8747 3.87458C25.4994 2.24983 27.7023 1.33589 30 1.33325ZM20.8407 13.9999C21.69 15.9756 23.1585 17.6216 25.0249 18.6899C26.8913 19.7582 29.0543 20.1908 31.188 19.9226L29.0833 26.8299C29.0292 27.0151 28.9187 27.1789 28.7672 27.2984C28.6157 27.4178 28.4307 27.4871 28.238 27.4966L9.10467 28.4966C8.72533 26.3686 7.37867 18.8079 6.52267 13.9999H20.8407Z" fill="#3F3F3F"/>
<path d="M25.1717 9.22105C24.9428 9.4871 24.9428 9.91832 25.1717 10.1844L28.2848 13.8005C28.3948 13.9282 28.5439 14 28.6994 14C28.8549 14 29.0041 13.9282 29.1141 13.8005L34.8283 7.16281C35.0572 6.89676 35.0572 6.46547 34.8283 6.19949C34.5992 5.9335 34.228 5.9335 33.999 6.19949L28.6994 12.3555L26.001 9.22105C25.772 8.95514 25.4007 8.95507 25.1717 9.22105Z" fill="#E43A2D"/>
</g>
<defs>
<clipPath id="clip0_859_115040">
<rect width="40" height="40" fill="white"/>
</clipPath>
</defs>
</svg>
