<svg width="40" height="40" viewBox="0 0 40 40" fill="none" xmlns="http://www.w3.org/2000/svg">
<g id="fast-delivery 1">
<g id="Group">
<path id="Vector (Stroke)" fill-rule="evenodd" clip-rule="evenodd" d="M10.3651 24.2136C8.80954 24.9612 8.15462 26.8284 8.90227 28.3839C9.64992 29.9394 11.517 30.5944 13.0726 29.8467C14.6281 29.099 15.283 27.2319 14.5354 25.6764C13.7877 24.1209 11.9206 23.4659 10.3651 24.2136ZM7.494 29.0608C6.37252 26.7275 7.3549 23.9268 9.68821 22.8053C12.0215 21.6838 14.8222 22.6662 15.9436 24.9995C17.0651 27.3328 16.0827 30.1335 13.7494 31.255C11.4161 32.3765 8.61547 31.3941 7.494 29.0608Z" fill="#3F3F3F"/>
<path id="Vector (Stroke)_2" fill-rule="evenodd" clip-rule="evenodd" d="M30.3431 24.0943C28.7202 24.6818 27.8809 26.4736 28.4684 28.0965C29.0559 29.7193 30.8477 30.5586 32.4706 29.9711C34.0934 29.3837 34.9327 27.5918 34.3452 25.969C33.7578 24.3461 31.9659 23.5068 30.3431 24.0943ZM26.9992 28.6283C26.1179 26.1941 27.3769 23.5063 29.8112 22.6251C32.2455 21.7438 34.9332 23.0028 35.8145 25.4371C36.6957 27.8714 35.4367 30.5591 33.0024 31.4404C30.5682 32.3216 27.8804 31.0626 26.9992 28.6283Z" fill="#3F3F3F"/>
<path id="Vector (Stroke)_3" fill-rule="evenodd" clip-rule="evenodd" d="M4.69044 8.99762C4.72418 8.5927 5.06267 8.28125 5.46899 8.28125H27.5005C27.9319 8.28125 28.2817 8.63103 28.2817 9.0625V10.625H34.1414C34.4534 10.625 34.7355 10.8106 34.8589 11.0972L37.3478 16.875H37.6562C39.0154 16.875 39.9999 17.892 39.9999 19.2187V27.8124C39.9999 28.2439 39.6502 28.5937 39.2187 28.5937H35.3518C34.9204 28.5937 34.5706 28.2439 34.5706 27.8124C34.5706 27.381 34.9204 27.0312 35.3518 27.0312H38.4375V25.0781H34.264C33.8326 25.0781 33.4828 24.7283 33.4828 24.2968C33.4828 23.8653 33.8326 23.5156 34.264 23.5156H38.4375V19.2187C38.4375 18.742 38.1395 18.4375 37.6562 18.4375H31.0166C30.5852 18.4375 30.2354 18.0877 30.2354 17.6562V12.1875H28.2817V23.5156H28.5492C28.9807 23.5156 29.3305 23.8653 29.3305 24.2968C29.3305 24.7283 28.9807 25.0781 28.5492 25.0781H14.5956C14.1641 25.0781 13.8143 24.7283 13.8143 24.2968C13.8143 23.8653 14.1641 23.5156 14.5956 23.5156H26.7192V9.84374H6.18784L5.04852 23.5156H8.84171C9.27318 23.5156 9.62296 23.8653 9.62296 24.2968C9.62296 24.7283 9.27318 25.0781 8.84171 25.0781H4.91831L4.75555 27.0312H7.77335C8.20482 27.0312 8.5546 27.381 8.5546 27.8124C8.5546 28.2439 8.20482 28.5937 7.77335 28.5937H3.90649C3.68802 28.5937 3.47952 28.5022 3.33159 28.3414C3.18365 28.1806 3.1098 27.9653 3.12795 27.7475L4.69044 8.99762ZM31.7979 12.1875V16.875H35.6465L33.6273 12.1875H31.7979ZM14.8827 27.8124C14.8827 27.381 15.2325 27.0312 15.6639 27.0312H27.4613C27.8928 27.0312 28.2426 27.381 28.2426 27.8124C28.2426 28.2439 27.8928 28.5937 27.4613 28.5937H15.6639C15.2325 28.5937 14.8827 28.2439 14.8827 27.8124Z" fill="#3F3F3F"/>
<path id="Vector (Stroke)_4" fill-rule="evenodd" clip-rule="evenodd" d="M0 20.4883C0 20.0568 0.349776 19.707 0.781247 19.707H6.1788C6.61027 19.707 6.96005 20.0568 6.96005 20.4883C6.96005 20.9197 6.61027 21.2695 6.1788 21.2695H0.781247C0.349776 21.2695 0 20.9197 0 20.4883Z" fill="#E43A2D"/>
<path id="Vector (Stroke)_5" fill-rule="evenodd" clip-rule="evenodd" d="M2.34375 16.6797C2.34375 16.2482 2.69353 15.8984 3.125 15.8984H11.6475C12.079 15.8984 12.4288 16.2482 12.4288 16.6797C12.4288 17.1112 12.079 17.4609 11.6475 17.4609H3.125C2.69353 17.4609 2.34375 17.1112 2.34375 16.6797Z" fill="#E43A2D"/>
<path id="Vector (Stroke)_6" fill-rule="evenodd" clip-rule="evenodd" d="M1.17188 12.8711C1.17188 12.4396 1.52165 12.0898 1.95312 12.0898H8.13193C8.5634 12.0898 8.91317 12.4396 8.91317 12.8711C8.91317 13.3026 8.5634 13.6523 8.13193 13.6523H1.95312C1.52165 13.6523 1.17188 13.3026 1.17188 12.8711Z" fill="#E43A2D"/>
<path id="Vector (Stroke)_7" fill-rule="evenodd" clip-rule="evenodd" d="M10.8662 12.8711C10.8662 12.4396 11.216 12.0898 11.6475 12.0898H14.5415C14.973 12.0898 15.3228 12.4396 15.3228 12.8711C15.3228 13.3026 14.973 13.6523 14.5415 13.6523H11.6475C11.216 13.6523 10.8662 13.3026 10.8662 12.8711Z" fill="#E43A2D"/>
<path id="Vector (Stroke)_8" fill-rule="evenodd" clip-rule="evenodd" d="M14.3818 16.6797C14.3818 16.2482 14.7316 15.8984 15.1631 15.8984H16.6101C17.0416 15.8984 17.3914 16.2482 17.3914 16.6797C17.3914 17.1112 17.0416 17.4609 16.6101 17.4609H15.1631C14.7316 17.4609 14.3818 17.1112 14.3818 16.6797Z" fill="#E43A2D"/>
</g>
</g>
</svg>
