<svg width="40" height="40" viewBox="0 0 40 40" fill="none" xmlns="http://www.w3.org/2000/svg">
<g clip-path="url(#clip0_859_115189)">
<path d="M0.915891 24.8683L3.66206 27.3043C3.91823 27.5315 4.04464 27.8084 4.04862 28.1507L4.09128 31.8214C4.10659 33.1512 5.07159 34.2649 6.38573 34.4695L10.0131 35.0341C10.3514 35.0867 10.6074 35.2513 10.7959 35.5371L12.8161 38.6021C13.5482 39.7124 14.9619 40.1277 16.1782 39.5893L19.5348 38.1032C19.8479 37.9646 20.1523 37.9646 20.4653 38.1032L23.822 39.5893C24.1796 39.7475 24.5541 39.8235 24.9235 39.8234C25.8105 39.8233 26.6672 39.3859 27.184 38.6021L29.2043 35.5371C29.3928 35.2513 29.6487 35.0867 29.9871 35.0341L33.6144 34.4696C34.9285 34.265 35.8935 33.1513 35.9089 31.8215L35.9515 28.1507C35.9555 27.8085 36.0819 27.5317 36.3381 27.3044L39.0843 24.8685C40.0791 23.986 40.2889 22.5274 39.5829 21.4002L37.6342 18.2892C37.4525 17.999 37.4092 17.6978 37.5018 17.3682L38.4951 13.8342C38.855 12.5539 38.2428 11.2134 37.0396 10.6469L33.7183 9.0834C33.4085 8.93754 33.2092 8.70746 33.1089 8.38012L32.0339 4.8702C31.6444 3.59855 30.405 2.80168 29.0862 2.97582L25.447 3.45605C25.1078 3.50098 24.8154 3.41512 24.554 3.19395L21.7521 0.822148C20.7369 -0.0370703 19.2632 -0.0370703 18.248 0.822148L15.4462 3.19371C15.1847 3.41488 14.8928 3.50074 14.5533 3.4559L10.9139 2.97566C9.5955 2.80129 8.35566 3.59832 7.96628 4.86996L6.8912 8.38012C6.79097 8.70738 6.59167 8.93746 6.28183 9.08324L2.96058 10.6468C1.7573 11.2132 1.14519 12.5537 1.50503 13.834L2.49831 17.368C2.59097 17.6976 2.54761 17.9989 2.36589 18.2891L0.417219 21.4001C-0.288719 22.5272 -0.0790311 23.9858 0.915891 24.8683ZM1.74136 22.2296L3.69003 19.1186C4.10698 18.4529 4.21503 17.7014 4.00253 16.9453L3.00925 13.4113C2.85433 12.86 3.108 12.3045 3.62613 12.0605L6.94738 10.4969C7.65808 10.1623 8.15527 9.58855 8.38511 8.83762L9.46019 5.32754C9.62784 4.77996 10.1416 4.44957 10.7094 4.52473L14.3488 5.00496C15.1276 5.10777 15.8557 4.89387 16.4556 4.38637L19.2575 2.0148C19.6946 1.6448 20.3053 1.6448 20.7425 2.0148L23.5444 4.38645C24.144 4.89395 24.8726 5.10801 25.6512 5.00496L29.2905 4.52473C29.8586 4.44973 30.3721 4.77996 30.5397 5.32754L31.6147 8.83738C31.8446 9.5884 32.3419 10.1622 33.0525 10.4968L36.3738 12.0604C36.892 12.3044 37.1457 12.8599 36.9907 13.4113L35.9974 16.9453C35.7849 17.7014 35.8929 18.4529 36.3099 19.1186L38.2585 22.2295C38.5626 22.7149 38.4757 23.3193 38.0472 23.6994L35.301 26.1353C34.7134 26.6566 34.3979 27.3473 34.3889 28.1325L34.3463 31.8032C34.3396 32.376 33.9398 32.8374 33.3739 32.9255L29.7467 33.49C28.9705 33.6108 28.3318 34.0213 27.8995 34.6771L25.8792 37.742C25.5641 38.2202 24.9779 38.3923 24.4544 38.1604L21.0978 36.6743C20.7385 36.5152 20.3693 36.4357 19.9999 36.4357C19.6305 36.4357 19.2611 36.5153 18.902 36.6743L15.5454 38.1604C15.0218 38.3921 14.4357 38.2202 14.1206 37.742L12.1003 34.677C11.6679 34.0212 11.0292 33.6107 10.2532 33.49L6.62589 32.9254C6.05995 32.8373 5.66011 32.3758 5.65347 31.8031L5.61081 28.1325C5.60183 27.3471 5.28644 26.6564 4.6987 26.1353L1.95253 23.6993C1.52425 23.3193 1.4373 22.715 1.74136 22.2296ZM20.0001 32.1732C26.7122 32.1732 32.1729 26.7125 32.1729 20.0004C32.1729 13.2882 26.7123 7.82754 20.0001 7.82754C13.2879 7.82754 7.82722 13.2882 7.82722 20.0003C7.82722 26.7124 13.288 32.1732 20.0001 32.1732ZM20.0001 9.38996C25.8507 9.38996 30.6104 14.1497 30.6104 20.0003C30.6104 25.8508 25.8507 30.6106 20.0001 30.6106C14.1495 30.6106 9.38972 25.8508 9.38972 20.0003C9.38972 14.1497 14.1495 9.38996 20.0001 9.38996ZM13.5671 20.2118C13.2621 19.9067 13.2621 19.4121 13.5671 19.1069C13.8722 18.8018 14.3669 18.8019 14.6721 19.1069L18.2672 22.7021L25.3282 15.6412C25.6333 15.3361 26.1278 15.3361 26.4331 15.6412C26.7382 15.9463 26.7382 16.441 26.4331 16.7461L18.8197 24.3595C18.6732 24.506 18.4745 24.5883 18.2673 24.5883C18.0601 24.5883 17.8614 24.506 17.7149 24.3595L13.5671 20.2118Z" fill="#3F3F3F"/>
<path d="M13.5672 19.1066C13.2621 19.4118 13.2621 19.9064 13.5672 20.2115L17.7149 24.3592C17.8615 24.5057 18.0602 24.588 18.2673 24.588C18.4745 24.588 18.6732 24.5057 18.8198 24.3592L26.4331 16.7458C26.7382 16.4407 26.7382 15.946 26.4331 15.6409C26.1279 15.3358 25.6334 15.3358 25.3282 15.6409L18.2673 22.7019L14.6721 19.1066C14.367 18.8016 13.8723 18.8015 13.5672 19.1066Z" fill="#E43A2D"/>
</g>
<defs>
<clipPath id="clip0_859_115189">
<rect width="40" height="40" fill="white"/>
</clipPath>
</defs>
</svg>
