<svg width="40" height="40" viewBox="0 0 40 40" fill="none" xmlns="http://www.w3.org/2000/svg">
<g clip-path="url(#clip0_859_115110)">
<path d="M28.7672 6.88867C27.0624 6.88867 25.6753 8.27577 25.6753 9.98061C25.6753 11.6854 27.0624 13.0725 28.7672 13.0725C30.4721 13.0725 31.8592 11.6854 31.8592 9.98061C31.8592 8.27577 30.4721 6.88867 28.7672 6.88867ZM28.7672 11.8983C27.7097 11.8983 26.8494 11.038 26.8494 9.98053C26.8494 8.92311 27.7097 8.06273 28.7672 8.06273C29.8247 8.06273 30.685 8.92303 30.685 9.98053C30.685 11.038 29.8247 11.8983 28.7672 11.8983Z" fill="#E43A2D"/>
<path d="M17.495 28.1797C15.4449 28.1797 13.7769 29.8477 13.7769 31.8979C13.7769 34.4599 16.945 37.6574 17.0798 37.7924C17.19 37.9025 17.3393 37.9643 17.495 37.9643C17.6507 37.9643 17.8 37.9024 17.9101 37.7924C18.0449 37.6576 21.2131 34.4599 21.2131 31.8979C21.2132 29.8476 19.5452 28.1797 17.495 28.1797ZM17.495 36.5212C16.5289 35.446 14.9511 33.3787 14.9511 31.8978C14.9511 30.4951 16.0922 29.3538 17.495 29.3538C18.8978 29.3538 20.039 30.4951 20.039 31.8978C20.0391 33.3788 18.461 35.4462 17.495 36.5212Z" fill="#3F3F3F"/>
<path d="M17.4951 30.1387C16.524 30.1387 15.7339 30.9287 15.7339 31.8999C15.7339 32.8711 16.524 33.6612 17.4951 33.6612C18.4662 33.6612 19.2564 32.8711 19.2564 31.8999C19.2564 30.9287 18.4662 30.1387 17.4951 30.1387ZM17.4951 32.487C17.1714 32.487 16.908 32.2237 16.908 31.8999C16.908 31.5762 17.1714 31.3128 17.4951 31.3128C17.8189 31.3128 18.0822 31.5762 18.0822 31.8999C18.0822 32.2237 17.8189 32.487 17.4951 32.487Z" fill="#E43A2D"/>
<path d="M25.2308 0.0425822C24.9308 -0.0810889 24.5877 0.0616446 24.4641 0.36133L21.6158 7.26379L11.1427 4.49388V0.585392C11.1427 0.261175 10.8799 -0.00171437 10.5556 -0.00171437C10.2313 -0.00171437 9.96851 0.261175 9.96851 0.585392V4.94599C9.96851 5.2124 10.1479 5.44536 10.4055 5.51349L21.8122 8.53042C21.8623 8.54363 21.9127 8.54995 21.9625 8.54995C22.1953 8.54995 22.4126 8.41081 22.5051 8.18675L25.5494 0.809218C25.6731 0.509533 25.5304 0.166253 25.2308 0.0425822Z" fill="#3F3F3F"/>
<path d="M7.57453 23.3906L0.737381 21.5822C0.42418 21.4993 0.102697 21.6862 0.019651 21.9996C-0.0632391 22.3131 0.123713 22.6343 0.43707 22.7172L6.83727 24.41V31.998C6.83727 32.3223 7.10008 32.5852 7.42437 32.5852C7.74867 32.5852 8.01148 32.3223 8.01148 31.998V23.9581C8.01148 23.6917 7.8321 23.4587 7.57453 23.3906Z" fill="#3F3F3F"/>
<path d="M7.42437 0.00195312C7.10008 0.00195312 6.83727 0.264842 6.83727 0.589059V3.35889L0.737381 1.74554C0.42418 1.66257 0.102697 1.8496 0.019651 2.16296C-0.0632391 2.47647 0.123713 2.79772 0.43707 2.88061L7.27422 4.68896C7.32375 4.702 7.37414 4.70849 7.42437 4.70849C7.5525 4.70849 7.67875 4.66646 7.7825 4.58661C7.92695 4.47544 8.01148 4.30357 8.01148 4.12138V0.589059C8.01148 0.264842 7.74859 0.00195312 7.42437 0.00195312Z" fill="#3F3F3F"/>
<path d="M7.42451 30.7637C7.10021 30.7637 6.8374 31.0266 6.8374 31.3508V39.4133C6.8374 39.7375 7.10021 40.0004 7.42451 40.0004C7.7488 40.0004 8.01161 39.7375 8.01161 39.4133V31.3508C8.01161 31.0266 7.74873 30.7637 7.42451 30.7637Z" fill="#3F3F3F"/>
<path d="M7.57453 6.79092L0.737381 4.98257C0.42418 4.8996 0.102697 5.08663 0.019651 5.39999C-0.0632391 5.71342 0.123713 6.03475 0.43707 6.11764L6.83734 7.81052V19.9565L0.737381 18.3431C0.42418 18.2601 0.102697 18.4472 0.019651 18.7605C-0.0632391 19.074 0.123713 19.3953 0.43707 19.4782L7.27422 21.2865C7.32375 21.2996 7.37414 21.3061 7.42437 21.3061C7.5525 21.3061 7.67875 21.264 7.7825 21.1842C7.92695 21.073 8.01148 20.9012 8.01148 20.719V7.35841C8.01148 7.09209 7.83211 6.85904 7.57453 6.79092Z" fill="#3F3F3F"/>
<path d="M39.6368 5.34787C39.3368 5.22405 38.9937 5.36686 38.8701 5.66662L36.578 11.2213L34.3216 10.6245C34.3488 10.4068 34.364 10.191 34.364 9.97855C34.364 6.89247 31.8532 4.38179 28.7672 4.38179C28.2927 4.38179 27.832 4.44163 27.3917 4.55327L28.9367 0.809229C29.0603 0.509543 28.9176 0.166264 28.618 0.0425928C28.318 -0.0810783 27.975 0.0615771 27.8514 0.361341L25.8539 5.2017C24.2458 6.18615 23.1704 7.95895 23.1704 9.97847C23.1704 10.2924 23.2019 10.613 23.2597 10.9374L10.7058 7.61724C10.5298 7.57075 10.3419 7.60849 10.1976 7.71966C10.0531 7.83083 9.96858 8.00262 9.96858 8.18489V11.159C9.23069 11.8389 8.76733 12.8126 8.76733 13.8927C8.76733 14.96 9.31725 16.1375 9.96858 17.158V21.5453C9.96858 21.8117 10.148 22.0447 10.4055 22.1128L30.5986 27.4538C30.6488 27.467 30.6991 27.4733 30.7489 27.4733C30.9817 27.4733 31.199 27.3342 31.2915 27.1101L36.2623 15.0643C36.3269 14.9078 36.3207 14.7312 36.2455 14.5795C36.1703 14.4279 36.0333 14.3161 35.8698 14.2728L33.3195 13.5983C33.6267 12.9981 33.8877 12.3835 34.0721 11.7732L36.7746 12.4879C36.8247 12.5011 36.8751 12.5074 36.9249 12.5074C37.1577 12.5074 37.375 12.3683 37.4675 12.1442L39.9557 6.11451C40.0792 5.81483 39.9364 5.47155 39.6368 5.34787ZM28.7671 5.556C31.2058 5.556 33.1898 7.53997 33.1898 9.97863C33.1898 12.8363 29.9398 16.6204 28.7671 17.8927C27.5945 16.6205 24.3445 12.8363 24.3445 9.97863C24.3445 7.54005 26.3285 5.556 28.7671 5.556ZM9.94155 13.8925C9.94155 12.4898 11.0827 11.3485 12.4855 11.3485C13.8883 11.3485 15.0295 12.4898 15.0295 13.8925C15.0295 15.3735 13.4515 17.4409 12.4855 18.5159C11.5194 17.4407 9.94155 15.3734 9.94155 13.8925ZM34.921 15.2363L30.4022 26.1872L11.1428 21.0933V18.7544C11.6375 19.3506 12.0251 19.7418 12.0704 19.7871C12.1806 19.8972 12.3298 19.959 12.4856 19.959C12.6414 19.959 12.7906 19.8972 12.9007 19.7871C13.0356 19.6522 16.2037 16.4546 16.2037 13.8926C16.2037 11.8424 14.5357 10.1744 12.4855 10.1744C12.0121 10.1744 11.5596 10.2643 11.1428 10.4264V8.94723L23.62 12.2473C24.8479 15.6262 28.1796 18.9883 28.3519 19.1607C28.4621 19.2708 28.6113 19.3326 28.7671 19.3326C28.9228 19.3326 29.0721 19.2708 29.1822 19.1607C29.3128 19.0301 31.2568 17.0683 32.7256 14.6556L34.921 15.2363Z" fill="#3F3F3F"/>
<path d="M39.5628 31.8494L32.7478 30.0469C32.4631 29.9717 32.1672 30.1187 32.055 30.3906L28.4249 39.1874C28.3012 39.4871 28.444 39.8304 28.7436 39.9541C28.8169 39.9843 28.8927 39.9986 28.9673 39.9986C29.1979 39.9986 29.4168 39.8618 29.5103 39.6353L32.9443 31.3135L39.2626 32.9847C39.5762 33.0679 39.8973 32.8806 39.9803 32.5672C40.0631 32.2537 39.8762 31.9323 39.5628 31.8494Z" fill="#3F3F3F"/>
<path d="M39.5627 28.6118L34.601 27.2995L39.3159 15.8737C39.4395 15.574 39.2969 15.2307 38.9972 15.107C38.6974 14.9834 38.3542 15.126 38.2306 15.4258L33.2597 27.4716C33.1951 27.6281 33.2013 27.8047 33.2765 27.9563C33.3517 28.108 33.4886 28.2198 33.6522 28.2631L39.2624 29.7469C39.3127 29.7602 39.3631 29.7666 39.4129 29.7666C39.6727 29.7666 39.9104 29.5926 39.9801 29.3295C40.0631 29.0162 39.8761 28.6949 39.5627 28.6118Z" fill="#3F3F3F"/>
<path d="M30.0697 29.5476C29.9945 29.396 29.8575 29.2842 29.6939 29.2409L10.7058 24.2187C10.5298 24.1722 10.3419 24.21 10.1975 24.3211C10.053 24.4323 9.96851 24.6041 9.96851 24.7863V39.413C9.96851 39.7373 10.2313 40.0001 10.5556 40.0001C10.8799 40.0001 11.1427 39.7373 11.1427 39.413V25.5488L28.7453 30.2045L25.0378 39.1891C24.9141 39.4887 25.0568 39.832 25.3565 39.9557C25.4298 39.9859 25.5056 40.0002 25.5802 40.0002C25.8108 40.0002 26.0297 39.8634 26.1232 39.6369L30.0866 30.0324C30.151 29.876 30.1449 29.6993 30.0697 29.5476Z" fill="#3F3F3F"/>
<path d="M12.4854 12.1348C11.5143 12.1348 10.7241 12.9248 10.7241 13.896C10.7241 14.8672 11.5143 15.6572 12.4854 15.6572C13.4564 15.6572 14.2466 14.8672 14.2466 13.896C14.2466 12.9248 13.4565 12.1348 12.4854 12.1348ZM12.4854 14.4831C12.1616 14.4831 11.8983 14.2198 11.8983 13.896C11.8983 13.5723 12.1616 13.3089 12.4854 13.3089C12.8091 13.3089 13.0725 13.5723 13.0725 13.896C13.0725 14.2198 12.8091 14.4831 12.4854 14.4831Z" fill="#E43A2D"/>
</g>
<defs>
<clipPath id="clip0_859_115110">
<rect width="40" height="40" fill="white"/>
</clipPath>
</defs>
</svg>
