<svg width="40" height="40" viewBox="0 0 40 40" fill="none" xmlns="http://www.w3.org/2000/svg">
<g clip-path="url(#clip0_859_111043)">
<path d="M38.2933 35.6725C40.5373 31.7746 40.5373 26.977 38.2933 23.0791C38.2912 23.057 38.2912 23.0346 38.2933 23.0125L38.2332 22.9525C37.1378 21.0842 35.5816 19.5279 33.7132 18.4325C33.6966 18.4113 33.6763 18.3932 33.6533 18.3791H33.5933C30.8601 16.8125 27.636 16.3363 24.5666 17.0458C25.8539 13.5375 25.5219 9.63925 23.6599 6.39914C23.6579 6.37697 23.6579 6.35465 23.6599 6.33247L23.5999 6.27247C22.5044 4.40416 20.9482 2.84794 19.0799 1.75247C19.0632 1.73127 19.0429 1.71321 19.0199 1.69914H18.9599C15.0754 -0.532526 10.2978 -0.532526 6.41325 1.69914H6.35325C6.33023 1.71321 6.30992 1.73127 6.29325 1.75247C4.41761 2.84523 2.85427 4.40168 1.75325 6.27247L1.69325 6.33247C1.69531 6.35465 1.69531 6.37697 1.69325 6.39914C-0.537398 10.2792 -0.537398 15.0524 1.69325 18.9325C1.69531 18.9546 1.69531 18.977 1.69325 18.9991C1.71839 19.0376 1.74743 19.0733 1.77992 19.1058C2.87424 20.9537 4.42046 22.4931 6.27325 23.5791C6.28992 23.6003 6.31023 23.6184 6.33325 23.6325C6.3608 23.6485 6.38982 23.6619 6.41992 23.6725C8.32167 24.7613 10.4752 25.3336 12.6666 25.3325C13.5996 25.3282 14.5294 25.2231 15.4399 25.0191C14.93 26.4001 14.6682 27.8604 14.6666 29.3325C14.6666 31.5533 15.2506 33.7352 16.3599 35.6591C17.0061 36.7805 17.8225 37.7948 18.7799 38.6658H16.6666C16.2984 38.6658 15.9999 38.9643 15.9999 39.3325C15.9999 39.7007 16.2984 39.9991 16.6666 39.9991H37.9999C38.3681 39.9991 38.6666 39.7007 38.6666 39.3325C38.6666 38.9643 38.3681 38.6658 37.9999 38.6658H35.8866C36.8381 37.7979 37.6499 36.7882 38.2933 35.6725ZM13.3332 23.9991V23.3325C13.3332 22.9643 13.0348 22.6658 12.6666 22.6658C12.2984 22.6658 11.9999 22.9643 11.9999 23.3325V23.9991C10.4659 23.9106 8.96624 23.509 7.59325 22.8191L7.91325 22.2725C8.09734 21.9521 7.98691 21.5432 7.66658 21.3591C7.34626 21.175 6.93734 21.2855 6.75325 21.6058L6.43325 22.1591C5.15192 21.3112 4.05454 20.2138 3.20658 18.9325L3.75992 18.6125C4.08024 18.4284 4.19068 18.0195 4.00658 17.6991C3.82249 17.3788 3.41357 17.2684 3.09325 17.4525L2.54658 17.7725C1.8523 16.3893 1.4506 14.8778 1.36658 13.3325H1.99992C2.3681 13.3325 2.66658 13.034 2.66658 12.6658C2.66658 12.2976 2.3681 11.9991 1.99992 11.9991H1.33325C1.42179 10.4651 1.82336 8.96546 2.51325 7.59247L3.05992 7.91247C3.38024 8.09657 3.78915 7.98613 3.97325 7.66581C4.15734 7.34548 4.04691 6.93657 3.72658 6.75247L3.17325 6.43247C4.03094 5.14786 5.13989 4.05025 6.43325 3.20581L6.75325 3.75914C6.93734 4.07946 7.34626 4.1899 7.66658 4.00581C7.98691 3.82171 8.09734 3.4128 7.91325 3.09247L7.59325 2.54581C8.96624 1.85592 10.4659 1.45435 11.9999 1.36581V1.99914C11.9999 2.36733 12.2984 2.66581 12.6666 2.66581C13.0348 2.66581 13.3332 2.36733 13.3332 1.99914V1.33247C14.8673 1.42101 16.3669 1.82259 17.7399 2.51247L17.4199 3.05914C17.2358 3.37946 17.3463 3.78838 17.6666 3.97247C17.9869 4.15657 18.3958 4.04613 18.5799 3.72581L18.8999 3.17247C20.1812 4.02043 21.2786 5.11781 22.1266 6.39914L21.5732 6.71914C21.2529 6.90323 21.1425 7.31215 21.3266 7.63247C21.5107 7.9528 21.9196 8.06323 22.2399 7.87914L22.7866 7.55914C23.4924 8.93981 23.9055 10.4514 23.9999 11.9991H23.3333C22.9651 11.9991 22.6666 12.2976 22.6666 12.6658C22.6666 13.034 22.9651 13.3325 23.3333 13.3325H23.9599C23.8857 14.7699 23.5301 16.1787 22.9132 17.4791C22.2744 17.718 21.6548 18.0055 21.0599 18.3391H20.9999C20.9769 18.3532 20.9566 18.3713 20.9399 18.3925C19.0716 19.4879 17.5154 21.0442 16.4199 22.9125L16.3599 22.9725C16.362 22.9946 16.362 23.017 16.3599 23.0391C16.2866 23.1658 16.2132 23.2925 16.1466 23.4258C15.2374 23.7373 14.2918 23.93 13.3332 23.9991ZM20.9199 38.6658C19.7115 37.8394 18.6746 36.7867 17.8666 35.5658L18.4266 35.2458C18.7469 35.0617 18.8573 34.6528 18.6732 34.3325C18.4892 34.0121 18.0802 33.9017 17.7599 34.0858L17.1999 34.4125C16.5042 33.0382 16.0958 31.5365 15.9999 29.9991H16.6666C17.0348 29.9991 17.3332 29.7007 17.3332 29.3325C17.3332 28.9643 17.0348 28.6658 16.6666 28.6658H16.0332C16.1218 27.1318 16.5234 25.6321 17.2132 24.2591L17.7599 24.5791C18.0802 24.7632 18.4892 24.6528 18.6732 24.3325C18.8573 24.0121 18.7469 23.6032 18.4266 23.4191L17.8732 23.0991C18.7212 21.8178 19.8186 20.7204 21.0999 19.8725L21.4199 20.4258C21.604 20.7461 22.0129 20.8566 22.3333 20.6725C22.6536 20.4884 22.764 20.0795 22.5799 19.7591L22.2599 19.2125C23.6329 18.5226 25.1326 18.121 26.6666 18.0325V18.6658C26.6666 19.034 26.9651 19.3325 27.3333 19.3325C27.7014 19.3325 27.9999 19.034 27.9999 18.6658V18.0325C29.5339 18.121 31.0336 18.5226 32.4066 19.2125L32.0866 19.7591C31.9025 20.0795 32.0129 20.4884 32.3333 20.6725C32.6536 20.8566 33.0625 20.7461 33.2466 20.4258L33.5666 19.8725C34.8479 20.7204 35.9453 21.8178 36.7933 23.0991L36.2399 23.4191C35.9196 23.6032 35.8092 24.0121 35.9933 24.3325C36.1773 24.6528 36.5863 24.7632 36.9066 24.5791L37.4533 24.2591C38.1547 25.6296 38.5677 27.1294 38.6666 28.6658H37.9999C37.6317 28.6658 37.3333 28.9643 37.3333 29.3325C37.3333 29.7007 37.6317 29.9991 37.9999 29.9991H38.6666C38.5769 31.5351 38.1754 33.0367 37.4866 34.4125L36.9266 34.0858C36.7194 33.9667 36.4644 33.9672 36.2576 34.0871C36.0509 34.207 35.9238 34.4281 35.9243 34.6671C35.9248 34.9061 36.0527 35.1267 36.2599 35.2458L36.8199 35.5658C36.006 36.7885 34.9622 37.8414 33.7466 38.6658H20.9199Z" fill="#3F3F3F"/>
<path d="M27.3333 21.332C22.915 21.332 19.3333 24.9138 19.3333 29.332C19.3333 33.7503 22.915 37.332 27.3333 37.332C31.7515 37.332 35.3333 33.7503 35.3333 29.332C35.3333 24.9138 31.7515 21.332 27.3333 21.332ZM33.4333 26.6654L29.5733 27.9187C29.2145 27.3468 28.6523 26.9323 27.9999 26.7587V22.6987C30.3943 22.9432 32.4709 24.4593 33.4333 26.6654ZM25.9999 29.332C25.9999 28.5957 26.5969 27.9987 27.3333 27.9987C28.0696 27.9987 28.6666 28.5957 28.6666 29.332C28.6666 30.0684 28.0696 30.6654 27.3333 30.6654C26.5969 30.6654 25.9999 30.0684 25.9999 29.332ZM26.6666 22.6654V26.7254C26.0164 26.8956 25.4544 27.3052 25.0933 27.872L21.2333 26.6654C22.1956 24.4593 24.2722 22.9432 26.6666 22.6987V22.6654ZM20.6666 29.332C20.6663 28.8568 20.7178 28.3829 20.8199 27.9187L24.6666 29.172V29.332C24.6719 29.9491 24.891 30.5451 25.2866 31.0187L22.8999 34.2987C21.4824 33.0365 20.6701 31.23 20.6666 29.332ZM23.9999 35.0854L26.3799 31.8054C27.0032 32.0632 27.7033 32.0632 28.3266 31.8054L30.6666 35.0854C28.5968 36.303 26.0297 36.303 23.9599 35.0854H23.9999ZM31.7866 34.2987L29.3999 31.0187C29.7883 30.5424 30.0003 29.9466 29.9999 29.332C29.9999 29.2787 29.9999 29.2254 29.9999 29.172L33.8599 27.9187C33.9576 28.3834 34.0045 28.8572 33.9999 29.332C33.9964 31.23 33.1841 33.0365 31.7666 34.2987H31.7866Z" fill="#3F3F3F"/>
<path d="M20.6665 12.666C20.6665 8.24774 17.0848 4.66602 12.6665 4.66602C8.24823 4.66602 4.6665 8.24774 4.6665 12.666C4.6665 17.0843 8.24823 20.666 12.6665 20.666C14.7882 20.666 16.8231 19.8232 18.3234 18.3229C19.8237 16.8226 20.6665 14.7877 20.6665 12.666ZM17.0998 17.6327L14.7132 14.3527C15.1088 13.8791 15.3279 13.283 15.3332 12.666C15.3332 12.6127 15.3332 12.5594 15.3332 12.506L19.1932 11.2527C19.2909 11.7173 19.3378 12.1912 19.3332 12.666C19.3297 14.564 18.5173 16.3705 17.0998 17.6327ZM11.3332 12.666C11.3332 11.9296 11.9301 11.3327 12.6665 11.3327C13.4029 11.3327 13.9998 11.9296 13.9998 12.666C13.9998 13.4024 13.4029 13.9993 12.6665 13.9993C11.9301 13.9993 11.3332 13.4024 11.3332 12.666ZM18.7665 9.99935L14.9065 11.2527C14.5478 10.6808 13.9855 10.2663 13.3332 10.0927V6.03268C15.7275 6.27719 17.8042 7.79329 18.7665 9.99935ZM11.9998 6.03268V10.0927C11.3496 10.263 10.7877 10.6725 10.4265 11.2394L6.5665 9.99935C7.52881 7.79329 9.60548 6.27719 11.9998 6.03268ZM5.99984 12.666C5.9996 12.1907 6.05101 11.7168 6.15317 11.2527L9.99984 12.506V12.666C10.0051 13.283 10.2243 13.8791 10.6198 14.3527L8.23317 17.6327C6.81567 16.3705 6.00334 14.564 5.99984 12.666ZM9.33317 18.4193L11.7132 15.1393C12.3365 15.3971 13.0366 15.3971 13.6598 15.1393L15.9998 18.4193C13.9301 19.637 11.3629 19.637 9.29317 18.4193H9.33317Z" fill="#3F3F3F"/>
<path d="M30 5.33203H28.6667C28.2985 5.33203 28 5.63051 28 5.9987C28 6.36689 28.2985 6.66536 28.6667 6.66536H30C32.5773 6.66536 34.6667 8.7547 34.6667 11.332V12.392L33.8067 11.5254C33.6376 11.3563 33.3911 11.2902 33.1601 11.3521C32.9291 11.414 32.7486 11.5944 32.6867 11.8254C32.6249 12.0564 32.6909 12.3029 32.86 12.472L34.86 14.472C34.9852 14.5982 35.1556 14.6692 35.3333 14.6692C35.5111 14.6692 35.6815 14.5982 35.8067 14.472L37.8067 12.472C38.0681 12.2106 38.0681 11.7868 37.8067 11.5254C37.5453 11.264 37.1214 11.264 36.86 11.5254L36 12.392V11.332C36 8.01832 33.3137 5.33203 30 5.33203Z" fill="#E43A2D"/>
<path d="M11.3331 33.332H9.9998C7.42247 33.332 5.33313 31.2427 5.33313 28.6653V27.6053L6.19313 28.472C6.31831 28.5982 6.48871 28.6692 6.66646 28.6692C6.84422 28.6692 7.01462 28.5982 7.1398 28.472C7.26601 28.3468 7.337 28.1764 7.337 27.9987C7.337 27.8209 7.26601 27.6505 7.1398 27.5253L5.1398 25.5253C5.01462 25.3991 4.84422 25.3281 4.66646 25.3281C4.48871 25.3281 4.31831 25.3991 4.19313 25.5253L2.19313 27.5253C1.93172 27.7867 1.93172 28.2106 2.19313 28.472C2.45455 28.7334 2.87838 28.7334 3.1398 28.472L3.9998 27.6053V28.6653C3.9998 31.979 6.68609 34.6653 9.9998 34.6653H11.3331C11.7013 34.6653 11.9998 34.3668 11.9998 33.9987C11.9998 33.6305 11.7013 33.332 11.3331 33.332Z" fill="#E43A2D"/>
</g>
<defs>
<clipPath id="clip0_859_111043">
<rect width="40" height="40" fill="white"/>
</clipPath>
</defs>
</svg>
