<svg width="22" height="22" viewBox="0 0 22 22" fill="none" xmlns="http://www.w3.org/2000/svg">
<path d="M8.71044 3.90245C8.43203 3.20641 7.75791 2.75 7.00827 2.75H4.4868C3.52759 2.75 2.75 3.52742 2.75 4.48666C2.75 12.6401 9.35971 19.25 17.513 19.25C18.4722 19.25 19.2496 18.4723 19.2496 17.5131L19.25 14.9911C19.25 14.2415 18.7937 13.5675 18.0977 13.289L15.681 12.3227C15.0558 12.0726 14.344 12.1852 13.8267 12.6163L13.203 13.1365C12.4745 13.7435 11.4028 13.6952 10.7323 13.0247L8.97604 11.2668C8.30558 10.5963 8.25603 9.5254 8.86304 8.79697L9.38313 8.17328C9.81421 7.65596 9.92777 6.9439 9.67768 6.31867L8.71044 3.90245Z" stroke="#4F4F4F" stroke-width="2" stroke-linecap="round" stroke-linejoin="round"/>
</svg>
