<svg width="30" height="31" viewBox="0 0 30 31" fill="none" xmlns="http://www.w3.org/2000/svg">
<path d="M11.8779 5.82152C11.4982 4.87238 10.579 4.25 9.55674 4.25H6.11836C4.81035 4.25 3.75 5.31012 3.75 6.61817C3.75 17.7365 12.7632 26.75 23.8813 26.75C25.1893 26.75 26.2494 25.6895 26.2494 24.3815L26.25 20.9425C26.25 19.9202 25.6278 19.0011 24.6787 18.6214L21.3832 17.3037C20.5306 16.9626 19.56 17.1161 18.8545 17.704L18.004 18.4134C17.0107 19.2411 15.5492 19.1753 14.635 18.261L12.2401 15.8638C11.3258 14.9495 11.2582 13.4892 12.086 12.4959L12.7952 11.6454C13.383 10.9399 13.5379 9.96895 13.1968 9.11637L11.8779 5.82152Z" stroke="#B5B5B5" stroke-width="2.5" stroke-linecap="round" stroke-linejoin="round"/>
</svg>
