<svg width="80" height="56" viewBox="0 0 80 56" fill="none" xmlns="http://www.w3.org/2000/svg">
<path d="M32 39.9998L52.76 27.9998L32 15.9998V39.9998ZM78.24 8.67976C78.76 10.5598 79.12 13.0798 79.36 16.2798C79.64 19.4798 79.76 22.2398 79.76 24.6398L80 27.9998C80 36.7598 79.36 43.1998 78.24 47.3198C77.24 50.9198 74.92 53.2398 71.32 54.2398C69.44 54.7598 66 55.1198 60.72 55.3598C55.52 55.6398 50.76 55.7598 46.36 55.7598L40 55.9998C23.24 55.9998 12.8 55.3598 8.68 54.2398C5.08 53.2398 2.76 50.9198 1.76 47.3198C1.24 45.4398 0.88 42.9198 0.64 39.7198C0.36 36.5198 0.24 33.7598 0.24 31.3598L0 27.9998C0 19.2398 0.64 12.7998 1.76 8.67976C2.76 5.07976 5.08 2.75976 8.68 1.75976C10.56 1.23976 14 0.879755 19.28 0.639755C24.48 0.359755 29.24 0.239756 33.64 0.239756L40 -0.000244141C56.76 -0.000244141 67.2 0.639756 71.32 1.75976C74.92 2.75976 77.24 5.07976 78.24 8.67976Z" fill="white"/>
</svg>
