<svg width="93" height="32" viewBox="0 0 93 32" fill="none" xmlns="http://www.w3.org/2000/svg">
<g clip-path="url(#clip0_672_26523)">
<path fill-rule="evenodd" clip-rule="evenodd" d="M30.7028 31.9663C32.6207 32.556 30.1535 25.2291 30.1535 25.2291C31.2522 21.7091 32.3402 9.69198 31.6575 6.02913C30.9748 2.36513 28.4148 2.49198 23.7108 1.4897C18.9226 0.461126 6.87991 -0.127446 4.26657 0.0234114C1.66924 0.168554 -0.240094 2.06913 0.0265723 5.88627C0.300706 9.69198 4.46711 23.8748 6.53324 27.3948C8.59191 30.9148 11.6351 30.3 13.4506 30.0646C15.9402 29.7354 25.3119 27.3948 25.3119 27.3948C24.4735 26.2406 28.786 31.3766 30.7028 31.9663ZM18.1332 9.8177L19.8015 6.01884H24.7935L19.3364 17.1526V23.7126H13.6084V17.1526L10.5578 10.9286L8.14391 6.01884H13.1359L16.4682 13.5903L18.1332 9.8177Z" fill="#ED484A"/>
</g>
<path d="M45.824 25.2C45.4187 25.2 45.024 25.1307 44.64 24.992C44.256 24.864 43.9253 24.672 43.648 24.416L44.304 23.264C44.5173 23.4667 44.752 23.6213 45.008 23.728C45.264 23.8347 45.536 23.888 45.824 23.888C46.1973 23.888 46.5067 23.792 46.752 23.6C46.9973 23.408 47.2267 23.0667 47.44 22.576L47.968 21.408L48.128 21.216L51.456 13.52H52.96L48.848 22.848C48.6027 23.4453 48.3253 23.9147 48.016 24.256C47.7173 24.5973 47.3867 24.8373 47.024 24.976C46.6613 25.1253 46.2613 25.2 45.824 25.2ZM47.84 22.272L43.968 13.52H45.568L48.864 21.072L47.84 22.272ZM57.9351 22.096C57.0285 22.096 56.2285 21.9093 55.5351 21.536C54.8525 21.1627 54.3191 20.6507 53.9351 20C53.5618 19.3493 53.3751 18.6027 53.3751 17.76C53.3751 16.9173 53.5565 16.1707 53.9191 15.52C54.2925 14.8693 54.7991 14.3627 55.4391 14C56.0898 13.6267 56.8205 13.44 57.6311 13.44C58.4525 13.44 59.1778 13.6213 59.8071 13.984C60.4365 14.3467 60.9271 14.8587 61.2791 15.52C61.6418 16.1707 61.8231 16.9333 61.8231 17.808C61.8231 17.872 61.8178 17.9467 61.8071 18.032C61.8071 18.1173 61.8018 18.1973 61.7911 18.272H54.5751V17.168H60.9911L60.3671 17.552C60.3778 17.008 60.2658 16.5227 60.0311 16.096C59.7965 15.6693 59.4711 15.3387 59.0551 15.104C58.6498 14.8587 58.1751 14.736 57.6311 14.736C57.0978 14.736 56.6231 14.8587 56.2071 15.104C55.7911 15.3387 55.4658 15.6747 55.2311 16.112C54.9965 16.5387 54.8791 17.0293 54.8791 17.584V17.84C54.8791 18.4053 55.0071 18.912 55.2631 19.36C55.5298 19.7973 55.8978 20.1387 56.3671 20.384C56.8365 20.6293 57.3751 20.752 57.9831 20.752C58.4845 20.752 58.9378 20.6667 59.3431 20.496C59.7591 20.3253 60.1218 20.0693 60.4311 19.728L61.2791 20.72C60.8951 21.168 60.4151 21.5093 59.8391 21.744C59.2738 21.9787 58.6391 22.096 57.9351 22.096ZM63.956 22V10.128H65.492V22H63.956ZM68.4248 22V10.128H69.9608V22H68.4248ZM73.2615 22.096C72.9628 22.096 72.7068 21.9947 72.4935 21.792C72.2802 21.5787 72.1735 21.312 72.1735 20.992C72.1735 20.672 72.2802 20.4107 72.4935 20.208C72.7068 20.0053 72.9628 19.904 73.2615 19.904C73.5495 19.904 73.7948 20.0053 73.9975 20.208C74.2108 20.4107 74.3175 20.672 74.3175 20.992C74.3175 21.312 74.2108 21.5787 73.9975 21.792C73.7948 21.9947 73.5495 22.096 73.2615 22.096ZM76.5185 22V13.52H77.9905V15.824L77.8465 15.248C78.0812 14.6613 78.4758 14.2133 79.0305 13.904C79.5852 13.5947 80.2678 13.44 81.0785 13.44V14.928C81.0145 14.9173 80.9505 14.912 80.8865 14.912C80.8332 14.912 80.7798 14.912 80.7265 14.912C79.9052 14.912 79.2545 15.1573 78.7745 15.648C78.2945 16.1387 78.0545 16.848 78.0545 17.776V22H76.5185ZM86.649 22.096C85.9237 22.096 85.2837 21.9627 84.729 21.696C84.185 21.4293 83.7583 21.024 83.449 20.48C83.1503 19.9253 83.001 19.232 83.001 18.4V13.52H84.537V18.224C84.537 19.056 84.7343 19.68 85.129 20.096C85.5343 20.512 86.0997 20.72 86.825 20.72C87.3583 20.72 87.8223 20.6133 88.217 20.4C88.6117 20.176 88.9157 19.856 89.129 19.44C89.3423 19.0133 89.449 18.5013 89.449 17.904V13.52H90.985V22H89.529V19.712L89.769 20.32C89.4917 20.8853 89.0757 21.3227 88.521 21.632C87.9663 21.9413 87.3423 22.096 86.649 22.096Z" fill="#707070"/>
<defs>
<clipPath id="clip0_672_26523">
<rect width="32" height="32" fill="white"/>
</clipPath>
</defs>
</svg>
