<svg width="88" height="16" viewBox="0 0 88 16" fill="none" xmlns="http://www.w3.org/2000/svg">
<path d="M7.99967 12.0496L11.2329 13.8912C11.825 14.2287 12.5496 13.7298 12.3938 13.0988L11.5368 9.63582L14.396 7.3027C14.918 6.87717 14.6375 6.07011 13.9519 6.01875L10.1889 5.71794L8.71644 2.44571C8.45155 1.85143 7.5478 1.85143 7.28291 2.44571L5.81042 5.71061L2.0474 6.01142C1.3618 6.06278 1.08133 6.86983 1.60332 7.29536L4.46259 9.62848L3.60559 13.0915C3.44977 13.7224 4.17433 14.2213 4.76644 13.8838L7.99967 12.0496Z" fill="white"/>
<path d="M25.9997 12.0496L29.2329 13.8912C29.825 14.2287 30.5496 13.7298 30.3938 13.0988L29.5368 9.63582L32.396 7.3027C32.918 6.87717 32.6375 6.07011 31.9519 6.01875L28.1889 5.71794L26.7164 2.44571C26.4515 1.85143 25.5478 1.85143 25.2829 2.44571L23.8104 5.71061L20.0474 6.01142C19.3618 6.06278 19.0813 6.86983 19.6033 7.29536L22.4626 9.62848L21.6056 13.0915C21.4498 13.7224 22.1743 14.2213 22.7664 13.8838L25.9997 12.0496Z" fill="white"/>
<path d="M43.9997 12.0496L47.2329 13.8912C47.825 14.2287 48.5496 13.7298 48.3938 13.0988L47.5368 9.63582L50.396 7.3027C50.918 6.87717 50.6375 6.07011 49.9519 6.01875L46.1889 5.71794L44.7164 2.44571C44.4515 1.85143 43.5478 1.85143 43.2829 2.44571L41.8104 5.71061L38.0474 6.01142C37.3618 6.06278 37.0813 6.86983 37.6033 7.29536L40.4626 9.62848L39.6056 13.0915C39.4498 13.7224 40.1743 14.2213 40.7664 13.8838L43.9997 12.0496Z" fill="white"/>
<path d="M61.9997 12.0496L65.2329 13.8912C65.825 14.2287 66.5496 13.7298 66.3938 13.0988L65.5368 9.63582L68.396 7.3027C68.918 6.87717 68.6375 6.07011 67.9519 6.01875L64.1889 5.71794L62.7164 2.44571C62.4515 1.85143 61.5478 1.85143 61.2829 2.44571L59.8104 5.71061L56.0474 6.01142C55.3618 6.06278 55.0813 6.86983 55.6033 7.29536L58.4626 9.62848L57.6056 13.0915C57.4498 13.7224 58.1743 14.2213 58.7664 13.8838L61.9997 12.0496Z" fill="white"/>
<path d="M79.9997 12.0496L83.2329 13.8912C83.825 14.2287 84.5496 13.7298 84.3938 13.0988L83.5368 9.63582L86.396 7.3027C86.918 6.87717 86.6375 6.07011 85.9519 6.01875L82.1889 5.71794L80.7164 2.44571C80.4515 1.85143 79.5478 1.85143 79.2829 2.44571L77.8104 5.71061L74.0474 6.01142C73.3618 6.06278 73.0813 6.86983 73.6033 7.29536L76.4626 9.62848L75.6056 13.0915C75.4498 13.7224 76.1743 14.2213 76.7664 13.8838L79.9997 12.0496Z" fill="white"/>
</svg>
