<?xml version="1.0" standalone="no"?>
<!DOCTYPE svg PUBLIC "-//W3C//DTD SVG 20010904//EN"
 "http://www.w3.org/TR/2001/REC-SVG-20010904/DTD/svg10.dtd">
<svg version="1.0" xmlns="http://www.w3.org/2000/svg"
 width="500.000000pt" height="500.000000pt" viewBox="0 0 500.000000 500.000000"
 preserveAspectRatio="xMidYMid meet">
<metadata>
Created by potrace 1.14, written by Peter Selinger 2001-2017
</metadata>
<g transform="translate(0.000000,500.000000) scale(0.100000,-0.100000)"
fill="#000000" stroke="none">
<path d="M2180 4499 c-224 -34 -447 -108 -657 -219 -91 -48 -223 -133 -278
-177 -233 -189 -382 -361 -529 -610 -94 -158 -179 -388 -222 -598 -21 -104
-27 -168 -31 -321 -6 -213 4 -337 44 -514 88 -397 329 -805 623 -1055 46 -38
91 -77 100 -86 36 -33 247 -168 327 -208 208 -104 416 -169 641 -202 125 -18
177 -21 352 -16 249 6 394 31 615 104 44 15 83 26 88 25 4 -1 7 3 7 8 0 6 6
10 13 10 29 0 261 123 367 194 463 314 765 778 866 1331 22 118 30 434 15 562
-55 464 -253 875 -579 1200 -324 322 -743 526 -1202 582 -134 17 -416 12 -560
-10z m480 -350 c120 -12 271 -48 397 -95 117 -43 305 -143 296 -157 -3 -6 -1
-7 5 -3 12 7 88 -41 85 -55 -2 -5 1 -8 6 -6 14 4 72 -43 66 -53 -3 -6 0 -8 7
-5 15 6 114 -81 110 -96 -1 -6 1 -8 6 -5 20 12 279 -325 266 -346 -3 -4 -1 -8
4 -8 25 0 149 -306 177 -440 61 -290 46 -610 -40 -867 -51 -151 -181 -414
-197 -398 -2 3 -5 -1 -5 -8 0 -18 -83 -127 -96 -127 -6 0 -7 -3 -4 -7 10 -9
-164 -183 -176 -176 -6 3 -7 1 -3 -5 7 -11 -32 -38 -47 -34 -5 1 -6 -1 -3 -6
3 -5 -25 -31 -62 -59 -416 -307 -974 -399 -1470 -241 -130 41 -312 123 -312
140 0 5 -3 7 -8 4 -9 -5 -160 94 -225 148 -39 33 -44 42 -34 55 10 14 10 14
-5 3 -15 -12 -26 -5 -98 68 -44 46 -105 116 -135 156 -62 82 -148 222 -148
242 0 6 -3 12 -7 12 -12 0 -83 177 -115 284 -75 262 -84 548 -23 811 57 248
158 460 318 665 30 39 208 220 250 254 40 34 130 96 130 91 0 -3 10 3 22 15
28 26 190 109 290 149 121 48 272 84 443 105 58 7 241 4 335 -5z"/>
<path d="M2310 4039 c-185 -22 -384 -97 -585 -220 -27 -17 -52 -34 -55 -38 -3
-3 -29 -26 -58 -50 -69 -57 -161 -171 -199 -246 -76 -150 -98 -252 -97 -430 2
-152 26 -243 90 -342 67 -103 240 -255 354 -311 14 -7 50 -26 80 -44 30 -17
75 -39 100 -49 385 -152 576 -247 660 -329 146 -143 157 -362 25 -519 -25 -29
-144 -121 -158 -121 -6 0 -18 -7 -27 -15 -51 -46 -307 -105 -455 -105 -137 0
-339 32 -430 66 -15 6 -15 4 -4 -14 7 -11 15 -20 18 -19 4 1 24 -11 46 -26 82
-57 163 -100 279 -148 65 -27 126 -49 135 -49 9 0 52 -9 96 -21 148 -37 511
-19 715 36 220 60 461 215 583 375 23 30 45 57 50 58 4 2 7 8 7 12 0 5 14 32
30 60 17 28 44 93 61 143 26 79 30 110 33 222 3 105 0 144 -15 200 -10 39 -21
77 -23 85 -11 40 -49 126 -67 152 -11 15 -17 28 -14 28 8 0 -54 81 -74 96 -9
7 -11 16 -6 25 5 8 5 11 0 7 -4 -4 -30 12 -57 37 -30 27 -103 70 -191 113
-469 231 -679 332 -685 332 -4 0 -31 16 -61 35 -29 19 -57 35 -63 35 -13 0
-148 130 -148 143 0 6 -6 18 -14 26 -23 28 -46 113 -46 174 0 60 34 177 51
177 5 0 9 6 9 14 0 17 77 92 91 89 5 -2 8 2 6 9 -1 6 30 33 68 59 129 89 328
137 519 125 101 -6 283 -39 314 -56 9 -5 49 -20 87 -34 39 -13 77 -27 86 -31
10 -4 16 -1 16 9 0 8 -4 13 -9 10 -5 -3 -25 8 -46 23 -86 67 -192 121 -372
188 -142 54 -439 78 -650 54z"/>
<path d="M2860 3768 c-196 -15 -335 -68 -446 -170 -24 -22 -44 -48 -44 -57 0
-9 -6 -23 -12 -29 -9 -9 -13 -44 -13 -100 0 -99 15 -137 82 -208 53 -58 242
-181 277 -182 5 0 12 -4 15 -9 8 -11 63 -37 74 -35 4 1 7 -2 7 -7 0 -5 14 -12
30 -16 17 -4 30 -11 30 -17 0 -6 3 -8 6 -5 4 4 19 0 33 -7 77 -41 107 -49 215
-52 176 -6 278 -28 375 -80 125 -68 201 -163 259 -324 52 -141 65 -220 65
-375 -1 -129 -4 -156 -38 -305 -2 -8 -4 -15 -5 -15 -2 0 -9 -26 -15 -60 l-6
-30 18 25 c10 13 26 31 36 39 9 9 17 21 17 28 0 8 11 30 24 51 47 75 113 238
146 360 21 76 22 98 17 275 -3 106 -8 206 -11 222 -4 17 -14 65 -22 109 -9 43
-25 104 -35 135 -11 31 -21 63 -23 72 -3 9 -14 36 -25 59 -11 24 -18 46 -16
51 3 4 2 9 -2 11 -5 1 -19 26 -33 53 -26 54 -73 127 -104 163 -11 12 -16 22
-12 22 15 0 -183 188 -235 223 -31 20 -59 37 -62 37 -3 0 -25 13 -49 29 -56
37 -184 89 -268 107 -52 12 -178 18 -250 12z"/>
<path d="M1177 3352 c-10 -10 -17 -22 -17 -27 0 -5 -6 -16 -14 -24 -29 -33
-116 -215 -153 -318 l-38 -108 0 -235 c0 -212 3 -244 24 -330 12 -52 24 -102
26 -110 9 -45 94 -269 110 -290 6 -8 31 -49 55 -90 54 -91 164 -215 250 -279
19 -14 37 -28 40 -31 10 -11 149 -90 158 -90 5 0 35 -13 68 -29 97 -48 193
-64 346 -58 200 8 287 31 408 106 107 67 150 140 150 250 -1 86 -24 137 -95
207 -68 66 -131 107 -283 184 -252 127 -241 123 -397 132 -77 4 -158 11 -180
17 -95 23 -114 29 -162 53 -59 30 -83 48 -140 106 -46 46 -92 113 -98 142 -2
10 -8 27 -13 37 -6 10 -21 52 -35 93 -54 158 -63 378 -22 550 42 175 42 175
12 142z"/>
</g>
</svg>
