<svg width="24" height="24" viewBox="0 0 24 24" fill="none" xmlns="http://www.w3.org/2000/svg">
<path fill-rule="evenodd" clip-rule="evenodd" d="M11.9616 5.09764L3.88959 19.0057H20.0581L11.9616 5.09764ZM13.5996 3.50895C16.5895 8.66376 19.5157 13.8596 22.5087 19.0123C23.0979 20.0735 21.9961 21.2907 21.0576 21.1915C14.9607 21.1915 8.86381 21.1915 2.76695 21.1915C2.03161 21.1862 0.891989 20.2267 1.49897 18.9114C4.49818 13.7326 7.49739 8.55376 10.4966 3.37494C10.673 3.0703 10.7693 2.84899 11.0732 2.63337C11.6099 2.25269 12.4767 2.13604 13.1361 2.82336C13.3386 3.03445 13.455 3.25956 13.5996 3.50895Z" fill="#B5B5B5"/>
<path d="M8.7168 11.9999H9.75811V17.0132H11.4456V11.9999H12.4869V17.0132H14.2691V11.9999H15.2593V18.01H8.7168V11.9999Z" fill="#B5B5B5"/>
</svg>
