<svg width="24" height="24" viewBox="0 0 24 24" fill="none" xmlns="http://www.w3.org/2000/svg">
<path d="M3.49396 8.12494L4.90684 8.94327C4.65117 9.20732 4.35794 9.43197 4.03668 9.60994C3.82665 9.72867 3.6719 9.92579 3.60612 10.1584C3.54035 10.391 3.56887 10.6402 3.68549 10.8518C3.8021 11.0634 3.99737 11.2202 4.22876 11.2882C4.46016 11.3561 4.70895 11.3296 4.92097 11.2145C5.53438 10.8741 6.07795 10.4203 6.52293 9.87702L10.1844 11.9999L6.52376 14.1191C6.07889 13.5757 5.53531 13.1219 4.9218 12.7816C4.81665 12.7222 4.7008 12.6842 4.58093 12.6699C4.46106 12.6556 4.33956 12.6652 4.22342 12.6982C4.10728 12.7312 3.99882 12.787 3.90428 12.8623C3.80975 12.9375 3.73102 13.0308 3.67264 13.1368C3.61425 13.2427 3.57737 13.3592 3.56412 13.4795C3.55087 13.5998 3.56152 13.7215 3.59544 13.8377C3.62936 13.9539 3.68589 14.0621 3.76176 14.1563C3.83764 14.2504 3.93136 14.3286 4.03751 14.3862C4.3587 14.5643 4.65192 14.7889 4.90768 15.0529L3.49479 15.8712C3.38672 15.9291 3.29137 16.0083 3.2144 16.1039C3.13744 16.1995 3.08043 16.3097 3.04678 16.4278C3.01312 16.546 3.0035 16.6697 3.01848 16.7917C3.03346 16.9136 3.07275 17.0313 3.134 17.1377C3.19525 17.2442 3.27722 17.3372 3.37503 17.4112C3.47284 17.4852 3.5845 17.5388 3.70336 17.5687C3.82223 17.5986 3.94587 17.6042 4.06695 17.5853C4.18803 17.5663 4.30408 17.5231 4.40818 17.4583L5.82106 16.6404C5.92169 16.9946 5.96958 17.3617 5.96318 17.7299C5.96054 17.8505 5.98165 17.9705 6.02532 18.0829C6.06899 18.1952 6.13435 18.2979 6.21766 18.3849C6.30097 18.4719 6.40059 18.5416 6.51081 18.5899C6.62102 18.6383 6.73967 18.6643 6.85995 18.6666L6.87698 18.6666C7.11653 18.6666 7.34652 18.5724 7.51748 18.4042C7.68845 18.236 7.78674 18.0072 7.7912 17.767C7.80408 17.0646 7.68423 16.366 7.43798 15.7083L11.0986 13.5879L11.0986 17.8258C10.4069 17.9404 9.74323 18.1854 9.14258 18.5479C8.93489 18.6733 8.78541 18.8764 8.72704 19.1124C8.66867 19.3484 8.70619 19.5979 8.83133 19.8062C8.95648 20.0144 9.159 20.1643 9.39436 20.2228C9.62971 20.2814 9.87861 20.2438 10.0863 20.1183C10.4012 19.9285 10.7423 19.7866 11.0986 19.697L11.0986 21.0833C11.0986 21.3264 11.1949 21.5595 11.3664 21.7315C11.5378 21.9034 11.7703 21.9999 12.0128 21.9999C12.2553 21.9999 12.4878 21.9034 12.6593 21.7315C12.8307 21.5595 12.927 21.3264 12.927 21.0833L12.927 19.697C13.2833 19.7866 13.6245 19.9285 13.9393 20.1183C14.147 20.2438 14.3959 20.2814 14.6313 20.2228C14.8666 20.1643 15.0691 20.0144 15.1943 19.8062C15.3194 19.5979 15.3569 19.3484 15.2986 19.1124C15.2402 18.8764 15.0907 18.6733 14.883 18.5479C14.2824 18.1854 13.6187 17.9404 12.927 17.8258L12.927 13.5879L16.5876 15.7083C16.341 16.3662 16.2209 17.0651 16.2336 17.7679C16.238 18.008 16.3363 18.2368 16.5073 18.405C16.6783 18.5733 16.9083 18.6675 17.1478 18.6674L17.1657 18.6674C17.2857 18.6652 17.4042 18.6393 17.5143 18.5912C17.6243 18.543 17.7239 18.4736 17.8072 18.3869C17.8905 18.3002 17.956 18.1979 17.9998 18.0858C18.0437 17.9737 18.0651 17.8541 18.0629 17.7337C18.0562 17.3649 18.1039 16.9972 18.2046 16.6424L19.6174 17.4583C19.7215 17.5205 19.8368 17.5614 19.9568 17.5785C20.0767 17.5957 20.1988 17.5887 20.3161 17.5581C20.4333 17.5275 20.5433 17.4739 20.6397 17.4003C20.7361 17.3267 20.8169 17.2346 20.8775 17.1294C20.9381 17.0242 20.9772 16.908 20.9926 16.7875C21.008 16.667 20.9993 16.5447 20.9672 16.4276C20.935 16.3104 20.8799 16.2009 20.8051 16.1053C20.7304 16.0097 20.6374 15.93 20.5317 15.8708L19.1188 15.0524C19.3745 14.7885 19.6677 14.5638 19.9889 14.3858C20.0951 14.3281 20.1888 14.25 20.2647 14.1559C20.3406 14.0617 20.3971 13.9534 20.431 13.8373C20.4649 13.7211 20.4756 13.5994 20.4623 13.4791C20.4491 13.3588 20.4122 13.2423 20.3538 13.1363C20.2954 13.0304 20.2167 12.9371 20.1222 12.8618C20.0276 12.7866 19.9192 12.7308 19.803 12.6978C19.6869 12.6648 19.5654 12.6551 19.4455 12.6695C19.3256 12.6838 19.2098 12.7217 19.1046 12.7812C18.4912 13.1216 17.9477 13.5754 17.5027 14.1187L13.8412 11.9999L17.5019 9.88077C17.9468 10.424 18.4904 10.8778 19.1038 11.2183C19.209 11.2777 19.3248 11.3157 19.4447 11.33C19.5646 11.3443 19.6861 11.3347 19.8022 11.3017C19.9183 11.2687 20.0268 11.2129 20.1213 11.1376C20.2159 11.0624 20.2946 10.9691 20.353 10.8631C20.4114 10.7572 20.4482 10.6407 20.4615 10.5204C20.4747 10.4001 20.4641 10.2783 20.4302 10.1622C20.3963 10.046 20.3397 9.93774 20.2639 9.8436C20.188 9.74946 20.0943 9.67132 19.9881 9.61369C19.6669 9.43561 19.3737 9.21097 19.1179 8.94702L20.5317 8.12494C20.6374 8.06569 20.7304 7.98596 20.8051 7.89038C20.8799 7.7948 20.935 7.68527 20.9672 7.56816C20.9993 7.45105 21.008 7.32869 20.9926 7.20821C20.9772 7.08772 20.9381 6.9715 20.8775 6.8663C20.8169 6.76111 20.7361 6.66903 20.6397 6.59543C20.5433 6.52183 20.4333 6.46817 20.3161 6.43757C20.1988 6.40697 20.0767 6.40005 19.9568 6.41719C19.8368 6.43433 19.7215 6.47521 19.6174 6.53744L18.2046 7.35535C18.1039 7.00116 18.056 6.634 18.0624 6.26577C18.0667 6.02293 17.9746 5.78833 17.8065 5.61349C17.6383 5.43866 17.4079 5.33787 17.1657 5.33327L17.1486 5.33327C16.9091 5.33323 16.6791 5.42746 16.5081 5.59569C16.3372 5.76392 16.2389 5.99271 16.2344 6.23285C16.2215 6.9353 16.3414 7.63385 16.5876 8.2916L12.927 10.412L12.927 6.1741C13.6187 6.05949 14.2824 5.81447 14.883 5.45202C15.0907 5.32654 15.2402 5.12347 15.2986 4.88749C15.3569 4.65151 15.3194 4.40194 15.1943 4.19369C15.0691 3.98544 14.8666 3.83556 14.6313 3.77704C14.3959 3.71851 14.147 3.75612 13.9393 3.8816C13.6245 4.07134 13.2833 4.2133 12.927 4.30285L12.927 2.9166C12.927 2.67349 12.8307 2.44033 12.6593 2.26842C12.4878 2.09651 12.2553 1.99994 12.0128 1.99994C11.7703 1.99994 11.5378 2.09651 11.3664 2.26842C11.1949 2.44033 11.0986 2.67349 11.0986 2.9166L11.0986 4.30285C10.7423 4.2133 10.4011 4.07134 10.0863 3.8816C9.87861 3.75612 9.62971 3.71851 9.39435 3.77704C9.159 3.83556 8.95648 3.98544 8.83133 4.19369C8.70619 4.40194 8.66867 4.65151 8.72704 4.88749C8.78541 5.12347 8.93489 5.32654 9.14258 5.45202C9.74323 5.81447 10.4069 6.05949 11.0986 6.1741L11.0986 10.412L7.43798 8.29161C7.68461 7.63364 7.80475 6.93481 7.79203 6.23202C7.78757 5.99188 7.68928 5.76309 7.51831 5.59486C7.34735 5.42663 7.11736 5.3324 6.87781 5.33244L6.85994 5.33244C6.73988 5.33466 6.62143 5.36058 6.51136 5.40871C6.40129 5.45684 6.30175 5.52625 6.21844 5.61296C6.13512 5.69967 6.06966 5.80199 6.02579 5.91407C5.98192 6.02615 5.96051 6.1458 5.96277 6.26619C5.96947 6.63496 5.92171 7.00269 5.82106 7.35744L4.40818 6.53952C4.30414 6.47254 4.18763 6.42741 4.0657 6.40687C3.94377 6.38633 3.81895 6.3908 3.69879 6.42001C3.57863 6.44923 3.46563 6.50257 3.36662 6.57683C3.26761 6.65109 3.18466 6.74471 3.12277 6.85204C3.06088 6.95936 3.02135 7.07816 3.00656 7.20124C2.99178 7.32432 3.00204 7.44913 3.03674 7.56812C3.07144 7.68711 3.12985 7.79781 3.20844 7.89351C3.28703 7.98922 3.38416 8.06795 3.49396 8.12494Z" fill="#B5B5B5"/>
</svg>
