<svg width="24" height="24" viewBox="0 0 24 24" fill="none" xmlns="http://www.w3.org/2000/svg">
<path d="M21.0408 21.5184C14.9492 21.5185 8.85759 21.5232 2.76596 21.5184C2.22599 21.518 1.68021 21.1622 1.36643 20.7394C0.927231 20.1475 0.896379 19.4358 1.20152 18.7746L1.20786 18.7608L1.21543 18.7477C4.21468 13.5689 7.21389 8.39015 10.2131 3.21134C10.4169 2.85936 10.5361 2.61339 10.8834 2.36699C11.6751 1.80543 12.6958 1.89329 13.3712 2.59725C13.5923 2.82766 13.7238 3.07314 13.8815 3.34512C16.872 8.50089 19.7968 13.6944 22.7906 18.8483L22.7921 18.851L22.7937 18.8538C22.9977 19.2212 23.0516 19.636 22.9502 20.0434C22.8907 20.2826 22.781 20.5077 22.6363 20.7067C22.2786 21.1987 21.6654 21.5759 21.0408 21.5184Z" fill="white"/>
<path fill-rule="evenodd" clip-rule="evenodd" d="M11.9616 5.09764L3.88959 19.0057H20.0581L11.9616 5.09764ZM13.5996 3.50895C16.5895 8.66376 19.5157 13.8596 22.5087 19.0123C23.0979 20.0735 21.9961 21.2907 21.0576 21.1915C14.9607 21.1915 8.86381 21.1915 2.76695 21.1915C2.03161 21.1862 0.891989 20.2267 1.49897 18.9114C4.49818 13.7326 7.49739 8.55376 10.4966 3.37494C10.673 3.0703 10.7693 2.84899 11.0732 2.63337C11.6099 2.25269 12.4767 2.13604 13.1361 2.82336C13.3386 3.03445 13.455 3.25956 13.5996 3.50895Z" fill="#E43A2D"/>
<path d="M8.7168 11.9999H9.75811V17.0132H11.4456V11.9999H12.4869V17.0132H14.2691V11.9999H15.2593V18.01H8.7168V11.9999Z" fill="#282828"/>
</svg>
