<svg width="24" height="24" viewBox="0 0 24 24" fill="none" xmlns="http://www.w3.org/2000/svg">
<g id="season">
<path id="Union" fill-rule="evenodd" clip-rule="evenodd" d="M11.9999 5.88269C11.8384 5.88269 11.6836 5.81855 11.5694 5.70438C11.4553 5.59021 11.3911 5.43536 11.3911 5.2739V2.60885C11.3911 2.44739 11.4553 2.29254 11.5694 2.17837C11.6836 2.0642 11.8384 2.00006 11.9999 2.00006C12.1614 2.00006 12.3162 2.0642 12.4304 2.17837C12.5446 2.29254 12.6087 2.44739 12.6087 2.60885V5.2739C12.6087 5.43536 12.5446 5.59021 12.4304 5.70438C12.3162 5.81855 12.1614 5.88269 11.9999 5.88269ZM12 17.4821C15.0276 17.4821 17.482 15.0277 17.482 12C17.482 8.9724 15.0276 6.51801 12 6.51801C8.97234 6.51801 6.51794 8.9724 6.51794 12C6.51794 15.0277 8.97234 17.4821 12 17.4821ZM11.5694 21.8218C11.6836 21.9359 11.8384 22.0001 11.9999 22.0001C12.1614 22.0001 12.3162 21.9359 12.4304 21.8218C12.5446 21.7076 12.6087 21.5528 12.6087 21.3913V18.737C12.6087 18.5755 12.5446 18.4207 12.4304 18.3065C12.3162 18.1923 12.1614 18.1282 11.9999 18.1282C11.8384 18.1282 11.6836 18.1923 11.5694 18.3065C11.4553 18.4207 11.3911 18.5755 11.3911 18.737V21.3913C11.3911 21.5528 11.4553 21.7076 11.5694 21.8218ZM8.63742 6.78401C8.53048 6.78409 8.4254 6.756 8.33276 6.70257C8.24012 6.64913 8.16319 6.57223 8.10972 6.47962L6.77696 4.17157C6.73635 4.1023 6.70985 4.02569 6.69897 3.94615C6.6881 3.8666 6.69306 3.78569 6.71358 3.70807C6.7341 3.63045 6.76978 3.55765 6.81855 3.49387C6.86731 3.4301 6.92822 3.37659 6.99775 3.33645C7.06728 3.2963 7.14406 3.27031 7.22368 3.25996C7.3033 3.24961 7.38418 3.25511 7.46166 3.27615C7.53914 3.29719 7.6117 3.33334 7.67515 3.38253C7.7386 3.43172 7.7917 3.49298 7.83138 3.56278L9.16415 5.87082C9.21756 5.96334 9.24569 6.06827 9.24571 6.17509C9.24573 6.28192 9.21765 6.38687 9.16427 6.4794C9.1109 6.57193 9.03412 6.64879 8.94164 6.70226C8.84916 6.75573 8.74425 6.78392 8.63742 6.78401ZM16.3916 20.6608C16.4842 20.7142 16.5893 20.7423 16.6962 20.7422C16.8033 20.7425 16.9086 20.7145 17.0014 20.661C17.0943 20.6076 17.1713 20.5306 17.2249 20.4378C17.2784 20.3451 17.3066 20.2398 17.3064 20.1327C17.3063 20.0256 17.2779 19.9205 17.2242 19.8278L15.8963 17.5278C15.8156 17.3878 15.6825 17.2856 15.5264 17.2437C15.3704 17.2018 15.2041 17.2237 15.0641 17.3044C14.9241 17.3851 14.8219 17.5181 14.78 17.6742C14.7381 17.8303 14.7599 17.9966 14.8406 18.1366L16.1685 20.4378C16.222 20.5304 16.2989 20.6073 16.3916 20.6608ZM6.17424 9.24597C6.06761 9.24595 5.96287 9.21781 5.87058 9.16439L3.56253 7.83163C3.49274 7.79194 3.43148 7.73885 3.38229 7.6754C3.3331 7.61194 3.29694 7.53939 3.27591 7.4619C3.25487 7.38442 3.24937 7.30354 3.25972 7.22392C3.27007 7.14431 3.29606 7.06752 3.3362 6.99799C3.37635 6.92846 3.42985 6.86756 3.49363 6.81879C3.55741 6.77002 3.6302 6.73435 3.70782 6.71383C3.78544 6.69331 3.86635 6.68834 3.9459 6.69922C4.02545 6.71009 4.10206 6.7366 4.17132 6.7772L6.47937 8.10997C6.59548 8.17701 6.68621 8.2805 6.73748 8.40439C6.78874 8.52827 6.79768 8.66562 6.7629 8.7951C6.72812 8.92459 6.65157 9.03897 6.54513 9.12049C6.43869 9.20202 6.30832 9.24613 6.17424 9.24597ZM19.8297 17.223C19.9221 17.2764 20.0269 17.3046 20.1336 17.3046C20.2671 17.3038 20.3967 17.2592 20.5023 17.1775C20.6079 17.0959 20.6838 16.9818 20.7182 16.8528C20.7527 16.7238 20.7437 16.5871 20.6928 16.4637C20.6419 16.3403 20.5519 16.237 20.4365 16.1698L18.1368 14.8419C18.0675 14.8013 17.9909 14.7748 17.9114 14.7639C17.8318 14.753 17.7509 14.758 17.6733 14.7785C17.5957 14.799 17.5229 14.8347 17.4591 14.8835C17.3953 14.9323 17.3418 14.9932 17.3017 15.0627C17.2615 15.1322 17.2355 15.209 17.2252 15.2886C17.2148 15.3682 17.2203 15.4491 17.2414 15.5266C17.2624 15.6041 17.2986 15.6766 17.3477 15.7401C17.3969 15.8035 17.4582 15.8566 17.528 15.8963L19.8297 17.223ZM5.27383 12.6089H2.60879C2.44733 12.6089 2.29248 12.5448 2.17831 12.4306C2.06414 12.3165 2 12.1616 2 12.0001C2 11.8387 2.06414 11.6838 2.17831 11.5697C2.29248 11.4555 2.44733 11.3914 2.60879 11.3914H5.27383C5.4353 11.3914 5.59014 11.4555 5.70432 11.5697C5.81849 11.6838 5.88263 11.8387 5.88263 12.0001C5.88263 12.1616 5.81849 12.3165 5.70432 12.4306C5.59014 12.5448 5.4353 12.6089 5.27383 12.6089ZM18.7367 12.6089H21.3911C21.5525 12.6089 21.7074 12.5448 21.8215 12.4306C21.9357 12.3165 21.9998 12.1616 21.9998 12.0001C21.9998 11.8387 21.9357 11.6838 21.8215 11.5697C21.7074 11.4555 21.5525 11.3914 21.3911 11.3914H18.7367C18.5753 11.3914 18.4204 11.4555 18.3062 11.5697C18.1921 11.6838 18.1279 11.8387 18.1279 12.0001C18.1279 12.1616 18.1921 12.3165 18.3062 12.4306C18.4204 12.5448 18.5753 12.6089 18.7367 12.6089ZM3.86645 17.3046C3.7324 17.3047 3.60206 17.2606 3.49567 17.179C3.38927 17.0975 3.31276 16.9831 3.27801 16.8536C3.24326 16.7242 3.25222 16.5868 3.30349 16.463C3.35476 16.3391 3.44548 16.2356 3.56157 16.1686L5.86962 14.8358C6.00937 14.7564 6.17488 14.7354 6.33003 14.7776C6.48517 14.8197 6.61736 14.9215 6.69774 15.0607C6.77813 15.1999 6.80018 15.3653 6.75909 15.5207C6.718 15.6761 6.6171 15.809 6.47841 15.8903L4.17036 17.223C4.07799 17.2765 3.97316 17.3046 3.86645 17.3046ZM17.4626 9.11607C17.5692 9.19752 17.6997 9.24147 17.8339 9.2411C17.9402 9.24094 18.0446 9.21281 18.1366 9.15952L20.4363 7.83163C20.5061 7.79194 20.5674 7.73885 20.6166 7.6754C20.6658 7.61194 20.7019 7.53939 20.7229 7.4619C20.744 7.38442 20.7495 7.30354 20.7391 7.22392C20.7288 7.14431 20.7028 7.06752 20.6626 6.99799C20.6225 6.92846 20.569 6.86756 20.5052 6.81879C20.4414 6.77002 20.3687 6.73435 20.291 6.71383C20.2134 6.69331 20.1325 6.68834 20.053 6.69922C19.9734 6.71009 19.8968 6.7366 19.8275 6.7772L17.5278 8.1051C17.4116 8.17218 17.3208 8.27576 17.2696 8.39974C17.2183 8.52373 17.2094 8.66117 17.2444 8.7907C17.2793 8.92024 17.356 9.03462 17.4626 9.11607ZM7.30385 20.7424C7.19702 20.7423 7.0921 20.7141 6.99963 20.6606C6.90715 20.6072 6.83037 20.5303 6.77699 20.4378C6.72362 20.3452 6.69553 20.2403 6.69556 20.1335C6.69558 20.0266 6.72371 19.9217 6.77712 19.8292L8.10988 17.5209C8.14957 17.4511 8.20266 17.3899 8.26612 17.3407C8.32957 17.2915 8.40213 17.2553 8.47961 17.2343C8.55709 17.2132 8.63797 17.2077 8.71759 17.2181C8.7972 17.2284 8.87399 17.2544 8.94352 17.2946C9.01305 17.3347 9.07395 17.3882 9.12272 17.452C9.17149 17.5158 9.20716 17.5886 9.22768 17.6662C9.24821 17.7438 9.25317 17.8247 9.2423 17.9043C9.23142 17.9838 9.20492 18.0604 9.16431 18.1297L7.83155 20.438C7.77807 20.5306 7.70115 20.6075 7.60851 20.6609C7.51587 20.7144 7.41079 20.7425 7.30385 20.7424ZM15.0635 6.69385C15.1558 6.74727 15.2606 6.77549 15.3673 6.77567C15.4743 6.77607 15.5796 6.74823 15.6724 6.69495C15.7653 6.64168 15.8425 6.56487 15.8962 6.47225L17.2228 4.17248C17.2634 4.10322 17.29 4.02661 17.3008 3.94706C17.3117 3.86751 17.3067 3.7866 17.2862 3.70898C17.2657 3.63136 17.23 3.55857 17.1813 3.49479C17.1325 3.43101 17.0716 3.37751 17.0021 3.33737C16.9325 3.29722 16.8557 3.27123 16.7761 3.26088C16.6965 3.25053 16.6156 3.25603 16.5381 3.27707C16.4607 3.2981 16.3881 3.33426 16.3246 3.38345C16.2612 3.43264 16.2081 3.4939 16.1684 3.56369L14.8405 5.86346C14.7874 5.95595 14.7594 6.06078 14.7595 6.16746C14.7596 6.27414 14.7878 6.37892 14.8411 6.4713C14.8944 6.56369 14.9711 6.64043 15.0635 6.69385Z" fill="#F9C908"/>
</g>
</svg>
