<svg width="24" height="24" viewBox="0 0 24 24" fill="none" xmlns="http://www.w3.org/2000/svg">
<path fill-rule="evenodd" clip-rule="evenodd" d="M10.375 21.9595L10.375 2.04036C10.2879 2.01381 10.1966 1.99995 10.1038 1.99995C9.85894 1.99995 9.62406 2.09653 9.45088 2.26844C9.2777 2.44035 9.18041 2.6735 9.18041 2.91662L9.18041 4.30287C8.8205 4.21331 8.47592 4.07136 8.1579 3.88162C7.94811 3.75614 7.6967 3.71852 7.45897 3.77705C7.22124 3.83558 7.01667 3.98545 6.89026 4.1937C6.76385 4.40195 6.72596 4.65152 6.78492 4.8875C6.84388 5.12348 6.99486 5.32655 7.20465 5.45203C7.81136 5.81448 8.48178 6.0595 9.18041 6.17411L9.18041 10.412L5.48285 8.29161C5.73197 7.63365 5.85332 6.93481 5.84047 6.23203C5.83596 5.99189 5.73669 5.7631 5.56399 5.59487C5.3913 5.42664 5.15899 5.33241 4.91703 5.33245L4.89898 5.33245C4.77771 5.33467 4.65806 5.36059 4.54688 5.40872C4.4357 5.45685 4.33515 5.52626 4.251 5.61297C4.16684 5.69968 4.10072 5.802 4.05641 5.91408C4.0121 6.02616 3.99046 6.14582 3.99275 6.2662C3.99951 6.63497 3.95128 7.0027 3.84961 7.35745L2.42247 6.53953C2.31738 6.47255 2.1997 6.42742 2.07653 6.40688C1.95337 6.38634 1.82729 6.39081 1.70592 6.42002C1.58455 6.44924 1.47041 6.50259 1.3704 6.57684C1.27039 6.6511 1.1866 6.74472 1.12409 6.85205C1.06157 6.95937 1.02164 7.07817 1.00671 7.20125C0.99177 7.32433 1.00214 7.44914 1.03719 7.56813C1.07224 7.68712 1.13124 7.79782 1.21062 7.89352C1.29 7.98923 1.38811 8.06796 1.49903 8.12495L2.92617 8.94328C2.66792 9.20732 2.37172 9.43198 2.04722 9.60995C1.83506 9.72868 1.67875 9.9258 1.61232 10.1584C1.54588 10.391 1.57469 10.6402 1.69248 10.8518C1.81028 11.0634 2.00751 11.2202 2.24124 11.2882C2.47497 11.3561 2.72627 11.3296 2.94044 11.2145C3.56004 10.8741 4.10909 10.4203 4.55857 9.87703L8.25696 11.9999L4.55941 14.1191C4.11005 13.5758 3.56097 13.1219 2.94128 12.7816C2.83506 12.7222 2.71804 12.6842 2.59696 12.6699C2.47589 12.6556 2.35315 12.6652 2.23585 12.6982C2.11854 12.7312 2.00898 12.787 1.91349 12.8623C1.818 12.9375 1.73848 13.0308 1.6795 13.1368C1.62053 13.2427 1.58328 13.3592 1.56989 13.4795C1.55651 13.5998 1.56726 13.7215 1.60152 13.8377C1.63579 13.9539 1.69289 14.0621 1.76953 14.1563C1.84617 14.2504 1.94083 14.3286 2.04805 14.3862C2.37249 14.5643 2.66867 14.7889 2.92701 15.0529L1.49986 15.8712C1.3907 15.9291 1.29439 16.0083 1.21664 16.1039C1.1389 16.1995 1.08132 16.3097 1.04733 16.4278C1.01333 16.546 1.00361 16.6697 1.01874 16.7917C1.03388 16.9136 1.07356 17.0313 1.13543 17.1377C1.1973 17.2442 1.28009 17.3372 1.37889 17.4112C1.47769 17.4852 1.59047 17.5388 1.71054 17.5687C1.8306 17.5986 1.9555 17.6042 2.0778 17.5853C2.2001 17.5663 2.31732 17.5231 2.42247 17.4583L3.84961 16.6404C3.95126 16.9946 3.99963 17.3617 3.99317 17.7299C3.99049 17.8505 4.01182 17.9705 4.05593 18.0829C4.10004 18.1952 4.16606 18.2979 4.25021 18.3849C4.33436 18.4719 4.43499 18.5416 4.54632 18.5899C4.65765 18.6383 4.77749 18.6643 4.89898 18.6666L4.91619 18.6666C5.15815 18.6666 5.39046 18.5724 5.56316 18.4042C5.73585 18.236 5.83513 18.0072 5.83964 17.767C5.85264 17.0646 5.73158 16.366 5.48285 15.7083L9.18041 13.5879L9.18041 17.8258C8.48178 17.9404 7.81136 18.1854 7.20465 18.5479C6.99486 18.6733 6.84388 18.8764 6.78492 19.1124C6.72596 19.3484 6.76386 19.5979 6.89026 19.8062C7.01667 20.0144 7.22124 20.1643 7.45897 20.2228C7.6967 20.2814 7.94811 20.2438 8.1579 20.1183C8.47593 19.9285 8.8205 19.7866 9.18041 19.697L9.18041 21.0833C9.18041 21.3264 9.2777 21.5595 9.45088 21.7315C9.62406 21.9034 9.85894 21.9999 10.1039 21.9999C10.1966 21.9999 10.2879 21.9861 10.375 21.9595Z" fill="#B5B5B5"/>
<path fill-rule="evenodd" clip-rule="evenodd" d="M12.3748 17.4467C12.5799 17.47 12.7885 17.482 12.9998 17.482C16.0275 17.482 18.4818 15.0276 18.4818 11.9999C18.4818 8.97229 16.0275 6.51789 12.9998 6.51789C12.7885 6.51789 12.5799 6.52986 12.3748 6.55313L12.3748 17.4467ZM12.5697 5.70426C12.6839 5.81843 12.8387 5.88257 13.0002 5.88257C13.1617 5.88257 13.3165 5.81843 13.4307 5.70426C13.5449 5.59009 13.609 5.43524 13.609 5.27378L13.609 2.60874C13.609 2.44728 13.5449 2.29243 13.4307 2.17826C13.3165 2.06409 13.1617 1.99995 13.0002 1.99995C12.8387 1.99995 12.6839 2.06409 12.5697 2.17826C12.4556 2.29243 12.3914 2.44728 12.3914 2.60874L12.3914 5.27378C12.3914 5.43524 12.4556 5.59009 12.5697 5.70426ZM13.0002 21.9999C12.8387 21.9999 12.6839 21.9358 12.5697 21.8216C12.4556 21.7075 12.3914 21.5526 12.3914 21.3912L12.3914 18.7368C12.3914 18.5754 12.4556 18.4205 12.5697 18.3063C12.6839 18.1922 12.8387 18.128 13.0002 18.128C13.1617 18.128 13.3165 18.1922 13.4307 18.3063C13.5449 18.4205 13.609 18.5754 13.609 18.7368L13.609 21.3912C13.609 21.5526 13.5449 21.7075 13.4307 21.8216C13.3165 21.9358 13.1617 21.9999 13.0002 21.9999ZM17.6962 20.7422C17.5893 20.7423 17.4842 20.7142 17.3916 20.6607C17.2989 20.6073 17.222 20.5304 17.1685 20.4378L15.8406 18.1366C15.7599 17.9966 15.7381 17.8302 15.78 17.6742C15.8219 17.5181 15.9241 17.3851 16.0641 17.3043C16.2041 17.2236 16.3704 17.2018 16.5265 17.2437C16.6825 17.2856 16.8156 17.3878 16.8963 17.5278L18.2242 19.8278C18.2779 19.9204 18.3063 20.0256 18.3064 20.1327C18.3066 20.2398 18.2784 20.345 18.2249 20.4378C18.1713 20.5305 18.0942 20.6075 18.0014 20.661C17.9086 20.7144 17.8033 20.7424 17.6962 20.7422ZM21.1334 17.3044C21.0267 17.3044 20.9219 17.2763 20.8295 17.2229L18.5278 15.8962C18.458 15.8565 18.3968 15.8034 18.3476 15.74C18.2984 15.6765 18.2622 15.604 18.2412 15.5265C18.2201 15.449 18.2146 15.3681 18.225 15.2885C18.2353 15.2089 18.2613 15.1321 18.3015 15.0626C18.3416 14.993 18.3951 14.9321 18.4589 14.8834C18.5227 14.8346 18.5955 14.7989 18.6731 14.7784C18.7507 14.7579 18.8316 14.7529 18.9112 14.7638C18.9907 14.7747 19.0673 14.8012 19.1366 14.8418L21.4363 16.1697C21.5517 16.2369 21.6418 16.3401 21.6926 16.4636C21.7435 16.587 21.7525 16.7237 21.718 16.8527C21.6836 16.9817 21.6077 17.0958 21.5021 17.1774C21.3965 17.259 21.2669 17.3037 21.1334 17.3044ZM22.3912 12.6087L19.7369 12.6087C19.5754 12.6087 19.4206 12.5446 19.3064 12.4304C19.1923 12.3163 19.1281 12.1614 19.1281 11.9999C19.1281 11.8385 19.1923 11.6836 19.3064 11.5695C19.4206 11.4553 19.5754 11.3912 19.7369 11.3912L22.3912 11.3912C22.5527 11.3912 22.7075 11.4553 22.8217 11.5695C22.9359 11.6836 23 11.8385 23 11.9999C23 12.1614 22.9359 12.3163 22.8217 12.4304C22.7075 12.5446 22.5527 12.6087 22.3912 12.6087ZM18.8342 9.2409C18.7 9.24127 18.5695 9.19732 18.4629 9.11587C18.3563 9.03442 18.2796 8.92004 18.2447 8.7905C18.2098 8.66097 18.2186 8.52353 18.2699 8.39955C18.3211 8.27556 18.4119 8.17198 18.5281 8.1049L20.8278 6.777C20.8971 6.7364 20.9737 6.70989 21.0533 6.69902C21.1328 6.68814 21.2137 6.69311 21.2913 6.71363C21.3689 6.73415 21.4417 6.76982 21.5055 6.81859C21.5693 6.86736 21.6228 6.92826 21.6629 6.9978C21.7031 7.06733 21.7291 7.14411 21.7394 7.22373C21.7498 7.30335 21.7443 7.38422 21.7232 7.46171C21.7022 7.53919 21.6661 7.61174 21.6169 7.6752C21.5677 7.73865 21.5064 7.79175 21.4366 7.83143L19.1369 9.15932C19.0449 9.21261 18.9405 9.24075 18.8342 9.2409ZM16.3676 6.77556C16.2609 6.77537 16.1561 6.74716 16.0638 6.69374C15.9715 6.64032 15.8948 6.56358 15.8414 6.47119C15.7881 6.37881 15.76 6.27403 15.7599 6.16735C15.7598 6.06067 15.7877 5.95583 15.8409 5.86335L17.1687 3.56358C17.2084 3.49378 17.2615 3.43253 17.325 3.38334C17.3884 3.33415 17.461 3.29799 17.5385 3.27696C17.6159 3.25592 17.6968 3.25042 17.7764 3.26077C17.8561 3.27111 17.9328 3.29711 18.0024 3.33725C18.0719 3.3774 18.1328 3.4309 18.1816 3.49468C18.2303 3.55845 18.266 3.63125 18.2865 3.70887C18.3071 3.78649 18.312 3.8674 18.3011 3.94695C18.2903 4.0265 18.2638 4.10311 18.2232 4.17237L16.8965 6.47214C16.8428 6.56475 16.7656 6.64157 16.6728 6.69484C16.5799 6.74811 16.4746 6.77595 16.3676 6.77556Z" fill="#B5B5B5"/>
</svg>
