<svg width="24" height="24" viewBox="0 0 24 24" fill="none" xmlns="http://www.w3.org/2000/svg">
<path d="M15.0005 9.00012L11.0005 13.0001L9.00049 11.0001M20.0005 10.1652C20.0005 16.7334 15.0324 19.6782 12.9263 20.6315L12.9236 20.6327C12.7021 20.7329 12.5911 20.7832 12.3394 20.8264C12.18 20.8538 11.822 20.8538 11.6626 20.8264C11.4099 20.783 11.2977 20.7326 11.0744 20.6315C8.96829 19.6782 4.00049 16.7334 4.00049 10.1652V6.20032C4.00049 5.08021 4.00049 4.51974 4.21848 4.09192C4.41022 3.71559 4.71596 3.40986 5.09229 3.21811C5.52011 3.00012 6.08058 3.00012 7.20068 3.00012H16.8007C17.9208 3.00012 18.4801 3.00012 18.9079 3.21811C19.2842 3.40986 19.591 3.71559 19.7827 4.09192C20.0005 4.51932 20.0005 5.07912 20.0005 6.19703V10.1652Z" stroke="#3EB16C" stroke-width="1.7" stroke-linecap="round" stroke-linejoin="round"/>
</svg>
