<svg width="24" height="24" viewBox="0 0 24 24" fill="none" xmlns="http://www.w3.org/2000/svg">
<path d="M12 18.0745L16.8499 20.8368C17.738 21.343 18.8249 20.5947 18.5911 19.6482L17.3056 14.4537L21.5945 10.9541C22.3775 10.3157 21.9568 9.10517 20.9284 9.02813L15.2839 8.57692L13.0751 3.66857C12.6778 2.77714 11.3222 2.77714 10.9249 3.66857L8.71612 8.56591L3.07159 9.01713C2.04319 9.09416 1.62248 10.3047 2.40547 10.943L6.69438 14.4427L5.40887 19.6372C5.17514 20.5837 6.26198 21.332 7.15015 20.8258L12 18.0745Z" fill="#E43A2D"/>
<path d="M12 18.0745L16.8499 20.8368C17.738 21.343 18.8249 20.5947 18.5911 19.6482L17.3056 14.4537L21.5945 10.9541C22.3775 10.3157 21.9568 9.10517 20.9284 9.02813L15.2839 8.57692L13.0751 3.66857C12.6778 2.77714 11.3222 2.77714 10.9249 3.66857L8.71612 8.56591L3.07159 9.01713C2.04319 9.09416 1.62248 10.3047 2.40547 10.943L6.69438 14.4427L5.40887 19.6372C5.17514 20.5837 6.26198 21.332 7.15015 20.8258L12 18.0745Z" fill="url(#paint0_linear_672_26508)"/>
<defs>
<linearGradient id="paint0_linear_672_26508" x1="1.93808" y1="12.1698" x2="22" y2="12.1698" gradientUnits="userSpaceOnUse">
<stop stop-color="#E43A2D"/>
<stop offset="0.9999" stop-color="#FF6A36"/>
<stop offset="1" stop-color="#EA5521"/>
</linearGradient>
</defs>
</svg>
