<svg width="84" height="16" viewBox="0 0 84 16" fill="none" xmlns="http://www.w3.org/2000/svg">
<path d="M8.00016 12.0496L11.2334 13.8912C11.8255 14.2287 12.5501 13.7298 12.3942 13.0988L11.5372 9.63582L14.3965 7.3027C14.9185 6.87717 14.638 6.07011 13.9524 6.01875L10.1894 5.71794L8.71693 2.44571C8.45204 1.85143 7.54829 1.85143 7.2834 2.44571L5.81091 5.71061L2.04789 6.01142C1.36229 6.06278 1.08182 6.86983 1.60381 7.29536L4.46308 9.62848L3.60608 13.0915C3.45026 13.7224 4.17482 14.2213 4.76693 13.8838L8.00016 12.0496Z" fill="#E43A2D"/>
<path d="M25.0002 12.0496L28.2334 13.8912C28.8255 14.2287 29.5501 13.7298 29.3942 13.0988L28.5372 9.63582L31.3965 7.3027C31.9185 6.87717 31.638 6.07011 30.9524 6.01875L27.1894 5.71794L25.7169 2.44571C25.452 1.85143 24.5483 1.85143 24.2834 2.44571L22.8109 5.71061L19.0479 6.01142C18.3623 6.06278 18.0818 6.86983 18.6038 7.29536L21.4631 9.62848L20.6061 13.0915C20.4503 13.7224 21.1748 14.2213 21.7669 13.8838L25.0002 12.0496Z" fill="#E43A2D"/>
<path d="M42.0002 12.0496L45.2334 13.8912C45.8255 14.2287 46.5501 13.7298 46.3942 13.0988L45.5372 9.63582L48.3965 7.3027C48.9185 6.87717 48.638 6.07011 47.9524 6.01875L44.1894 5.71794L42.7169 2.44571C42.452 1.85143 41.5483 1.85143 41.2834 2.44571L39.8109 5.71061L36.0479 6.01142C35.3623 6.06278 35.0818 6.86983 35.6038 7.29536L38.4631 9.62848L37.6061 13.0915C37.4503 13.7224 38.1748 14.2213 38.7669 13.8838L42.0002 12.0496Z" fill="#E43A2D"/>
<path d="M59.0002 12.0496L62.2334 13.8912C62.8255 14.2287 63.5501 13.7298 63.3942 13.0988L62.5372 9.63582L65.3965 7.3027C65.9185 6.87717 65.638 6.07011 64.9524 6.01875L61.1894 5.71794L59.7169 2.44571C59.452 1.85143 58.5483 1.85143 58.2834 2.44571L56.8109 5.71061L53.0479 6.01142C52.3623 6.06278 52.0818 6.86983 52.6038 7.29536L55.4631 9.62848L54.6061 13.0915C54.4503 13.7224 55.1748 14.2213 55.7669 13.8838L59.0002 12.0496Z" fill="#E43A2D"/>
<path d="M76.0002 12.0496L79.2334 13.8912C79.8255 14.2287 80.5501 13.7298 80.3942 13.0988L79.5372 9.63582L82.3965 7.3027C82.9185 6.87717 82.638 6.07011 81.9524 6.01875L78.1894 5.71794L76.7169 2.44571C76.452 1.85143 75.5483 1.85143 75.2834 2.44571L73.8109 5.71061L70.0479 6.01142C69.3623 6.06278 69.0818 6.86983 69.6038 7.29536L72.4631 9.62848L71.6061 13.0915C71.4503 13.7224 72.1748 14.2213 72.7669 13.8838L76.0002 12.0496Z" fill="#E43A2D"/>
</svg>
