<svg width="69" height="20" viewBox="0 0 69 20" fill="none" xmlns="http://www.w3.org/2000/svg">
<path d="M34.5209 8.36814C34.0517 8.188 33.438 8.13407 32.7702 8.13407H29.0518V6.98129H35.4415V5H26.4346V13.5736H32.5355C33.3839 13.5736 34.0154 13.5016 34.4849 13.3214C35.4776 12.9431 36.1455 12.0246 36.1455 10.8178C36.1455 9.59307 35.5137 8.74643 34.5209 8.36814ZM33.2213 11.3401C33.077 11.3942 32.8785 11.4121 32.6256 11.4121H29.0518V10.0432H32.6256C32.9145 10.0432 33.1491 10.0614 33.3297 10.1514C33.5462 10.2594 33.6546 10.4576 33.6546 10.7096C33.6546 10.9619 33.5283 11.2321 33.2213 11.3401Z" fill="#333333"/>
<path d="M43.484 5H39.6574L36.1377 13.5736H39.0979L39.5852 12.3308H43.5561L44.0616 13.5736H47.0038L43.484 5ZM40.2349 10.4395L41.4806 6.98129H41.679L42.9245 10.4395H40.2349Z" fill="#333333"/>
<path d="M50.372 10.3856V13.5737H47.7549V5H50.372V8.13414H54.5776V5H57.1949V13.5737H54.5776V10.3856H50.372Z" fill="#333333"/>
<path d="M61.338 10.3316V13.5737H58.7207V5H61.338V8.22421H62.0599L65.2187 5H68.5036L64.3161 9.10671L68.6662 13.5737H65.1825L62.0599 10.3316H61.338Z" fill="#333333"/>
<path d="M0.666016 0H21.4239V9.7035C21.4239 12.3741 19.9962 14.8421 17.6786 16.1775L11.045 20L4.41135 16.1775C2.09371 14.8421 0.666018 12.3741 0.666018 9.7035L0.666016 0Z" fill="#FFDD2D"/>
<path fill-rule="evenodd" clip-rule="evenodd" d="M6.39258 5V8.21979C6.83379 7.72257 7.63601 7.38614 8.55326 7.38614H9.55V11.1291C9.55 12.1249 9.27885 13.0999 8.87658 13.5794H13.2123C12.8109 13.0994 12.5404 12.1256 12.5404 11.131V7.38614H13.5372C14.4544 7.38614 15.2566 7.72257 15.6978 8.21979V5H6.39258Z" fill="#333333"/>
</svg>
