<svg width="39" height="38" viewBox="0 0 39 38" fill="none" xmlns="http://www.w3.org/2000/svg">
<circle cx="19.667" cy="19" r="8" fill="black"/>
<path d="M19.667 3C22.8315 3 25.9249 3.93838 28.5561 5.69649C31.1873 7.45459 33.2381 9.95345 34.4491 12.8771C35.6601 15.8007 35.9769 19.0177 35.3596 22.1214C34.7422 25.2251 33.2183 28.0761 30.9807 30.3137C28.7431 32.5513 25.8921 34.0752 22.7884 34.6926C19.6847 35.3099 16.4677 34.9931 13.5441 33.7821C10.6204 32.5711 8.12158 30.5203 6.36348 27.8891C4.60538 25.2579 3.66699 22.1645 3.66699 19L6.80119 19C6.80119 21.5446 7.55576 24.0321 8.96947 26.1479C10.3832 28.2636 12.3925 29.9127 14.7435 30.8864C17.0944 31.8602 19.6813 32.115 22.177 31.6186C24.6727 31.1222 26.9652 29.8968 28.7645 28.0975C30.5638 26.2982 31.7891 24.0057 32.2856 21.51C32.782 19.0143 32.5272 16.4274 31.5534 14.0765C30.5797 11.7256 28.9306 9.71619 26.8148 8.30248C24.6991 6.88877 22.2116 6.1342 19.667 6.1342L19.667 3Z" stroke="#3EB16C" stroke-width="6"/>
</svg>
