<svg width="36" height="38" viewBox="0 0 36 38" fill="none" xmlns="http://www.w3.org/2000/svg">
<circle cx="16.333" cy="19" r="8" fill="black"/>
<path d="M16.333 3C18.4342 3 20.5147 3.41385 22.4559 4.21793C24.3972 5.022 26.161 6.20055 27.6467 7.68629C29.1325 9.17203 30.311 10.9359 31.1151 12.8771C31.9192 14.8183 32.333 16.8989 32.333 19C32.333 21.1012 31.9192 23.1817 31.1151 25.1229C30.311 27.0641 29.1325 28.828 27.6467 30.3137C26.161 31.7994 24.3971 32.978 22.4559 33.7821C20.5147 34.5861 18.4342 35 16.333 35L16.333 31.8658C18.0226 31.8658 19.6956 31.533 21.2565 30.8865C22.8175 30.2399 24.2358 29.2922 25.4305 28.0975C26.6252 26.9028 27.5729 25.4845 28.2195 23.9235C28.866 22.3626 29.1988 20.6896 29.1988 19C29.1988 17.3104 28.866 15.6374 28.2195 14.0765C27.5729 12.5155 26.6252 11.0972 25.4305 9.90251C24.2358 8.70781 22.8175 7.76012 21.2565 7.11355C19.6956 6.46698 18.0226 6.1342 16.333 6.1342L16.333 3Z" stroke="#3EB16C" stroke-width="6"/>
</svg>
