<svg width="32" height="32" viewBox="0 0 32 32" fill="none" xmlns="http://www.w3.org/2000/svg">
<circle cx="16" cy="16" r="16" fill="#269EDA"/>
<g clip-path="url(#clip0_1049_430)">
<path fill-rule="evenodd" clip-rule="evenodd" d="M21.1831 10.9533C21.3479 10.884 21.5282 10.8601 21.7053 10.8841C21.8824 10.9081 22.0499 10.9791 22.1903 11.0898C22.3306 11.2004 22.4387 11.3467 22.5034 11.5134C22.568 11.68 22.5868 11.8609 22.5578 12.0373L21.0458 21.2086C20.8991 22.0933 19.9285 22.6006 19.1171 22.16C18.4385 21.7913 17.4305 21.2233 16.5238 20.6306C16.0705 20.334 14.6818 19.384 14.8525 18.708C14.9991 18.13 17.3325 15.958 18.6658 14.6666C19.1891 14.1593 18.9505 13.8666 18.3325 14.3333C16.7971 15.492 14.3338 17.254 13.5191 17.75C12.8005 18.1873 12.4258 18.262 11.9778 18.1873C11.1605 18.0513 10.4025 17.8406 9.7838 17.584C8.9478 17.2373 8.98847 16.088 9.78313 15.7533L21.1831 10.9533Z" fill="white"/>
</g>
<defs>
<clipPath id="clip0_1049_430">
<rect width="16" height="16" fill="white" transform="translate(8 8)"/>
</clipPath>
</defs>
</svg>
