<svg width="32" height="32" viewBox="0 0 32 32" fill="none" xmlns="http://www.w3.org/2000/svg">
<circle cx="16" cy="16" r="16" fill="#FF0000"/>
<path d="M14.4 18.5714L18.552 16L14.4 13.4286V18.5714ZM23.648 11.86C23.752 12.2629 23.824 12.8029 23.872 13.4886C23.928 14.1743 23.952 14.7657 23.952 15.28L24 16C24 17.8771 23.872 19.2571 23.648 20.14C23.448 20.9114 22.984 21.4086 22.264 21.6229C21.888 21.7343 21.2 21.8114 20.144 21.8629C19.104 21.9229 18.152 21.9486 17.272 21.9486L16 22C12.648 22 10.56 21.8629 9.736 21.6229C9.016 21.4086 8.552 20.9114 8.352 20.14C8.248 19.7371 8.176 19.1971 8.128 18.5114C8.072 17.8257 8.048 17.2343 8.048 16.72L8 16C8 14.1229 8.128 12.7429 8.352 11.86C8.552 11.0886 9.016 10.5914 9.736 10.3771C10.112 10.2657 10.8 10.1886 11.856 10.1371C12.896 10.0771 13.848 10.0514 14.728 10.0514L16 10C19.352 10 21.44 10.1371 22.264 10.3771C22.984 10.5914 23.448 11.0886 23.648 11.86Z" fill="white"/>
</svg>
