<svg xmlns="http://www.w3.org/2000/svg">
	<symbol id="favorite" viewBox="0 0 20 20">
		<path d="M17.1481 4.46983C18.6756 5.93416 18.7341 8.29044 17.2809 9.82277L9.99959 17.5002L2.71921 9.82275C1.26605 8.29042 1.32457 5.93411 2.85212 4.46978C4.55772 2.83476 7.36673 2.98416 8.87354 4.78974L10.0001 6.13914L11.1257 4.78958C12.6325 2.98401 15.4425 2.83481 17.1481 4.46983Z" stroke-width="1.66667" stroke-linecap="round" stroke-linejoin="round" />
	</symbol>
	<symbol id="user" viewBox="0 0 20 20">
		<path d="M16.6666 17.5C16.6666 15.1988 13.6818 13.3333 9.99992 13.3333C6.31802 13.3333 3.33325 15.1988 3.33325 17.5M9.99992 10.8333C7.69873 10.8333 5.83325 8.96785 5.83325 6.66667C5.83325 4.36548 7.69873 2.5 9.99992 2.5C12.3011 2.5 14.1666 4.36548 14.1666 6.66667C14.1666 8.96785 12.3011 10.8333 9.99992 10.8333Z" stroke-width="1.66667" stroke-linecap="round" stroke-linejoin="round" />
	</symbol>
	<symbol id="search" viewBox="0 0 20 20">
		<path d="M12.5 12.5L17.5 17.5M8.33333 14.1667C5.11167 14.1667 2.5 11.555 2.5 8.33333C2.5 5.11167 5.11167 2.5 8.33333 2.5C11.555 2.5 14.1667 5.11167 14.1667 8.33333C14.1667 11.555 11.555 14.1667 8.33333 14.1667Z" stroke-width="1.66667" stroke-linecap="round" stroke-linejoin="round" />
	</symbol>
	<symbol id="clear" viewBox="0 0 20 20">
		<path d="M15 15L10 10M10 10L5 5M10 10L15 5M10 10L5 15" stroke-width="1.66667" stroke-linecap="round" stroke-linejoin="round" />
	</symbol>
	<symbol id="phone" viewBox="0 0 20 20">
		<path d="M7.91858 3.54768C7.66548 2.91492 7.05265 2.5 6.37116 2.5H4.07891C3.2069 2.5 2.5 3.20675 2.5 4.07878C2.5 11.491 8.50883 17.5 15.9209 17.5C16.7929 17.5 17.4996 16.793 17.4996 15.921L17.5 13.6283C17.5 12.9468 17.0852 12.3341 16.4525 12.0809L14.2555 11.2025C13.6871 10.9751 13.04 11.0774 12.5697 11.4693L12.0027 11.9422C11.3405 12.4941 10.3662 12.4502 9.75664 11.8407L8.16004 10.2426C7.55053 9.63302 7.50548 8.65945 8.05731 7.99724L8.53012 7.43025C8.92201 6.95997 9.02524 6.31264 8.79789 5.74425L7.91858 3.54768Z" stroke-width="1.66667" stroke-linecap="round" stroke-linejoin="round" />
	</symbol>
	<symbol id="arr" viewBox="0 0 12 12">
		<path fill-rule="evenodd" clip-rule="evenodd" d="M2.87109 5.48163L3.70233 4.65039L5.99951 6.94757L8.29669 4.65039L9.12793 5.48163L5.99951 8.61005L2.87109 5.48163Z" />
	</symbol>
	<symbol id="clock" viewBox="0 0 20 20">
		<path d="M10 5.83333V10H14.1667M10 17.5C5.85786 17.5 2.5 14.1421 2.5 10C2.5 5.85786 5.85786 2.5 10 2.5C14.1421 2.5 17.5 5.85786 17.5 10C17.5 14.1421 14.1421 17.5 10 17.5Z" stroke-width="1.66667" stroke-linecap="round" stroke-linejoin="round" />
	</symbol>
	<symbol id="basket" viewBox="0 0 24 24">
		<path d="M3 3H3.26835C3.74213 3 3.97943 3 4.17267 3.08548C4.34304 3.16084 4.48871 3.28218 4.59375 3.43604C4.71269 3.61026 4.75564 3.8429 4.84137 4.30727L7.00004 16L17.4218 16C17.875 16 18.1023 16 18.29 15.9199C18.4559 15.8492 18.5989 15.7346 18.7051 15.5889C18.8252 15.4242 18.8761 15.2037 18.9777 14.7631L18.9785 14.76L20.5477 7.95996L20.5481 7.95854C20.7023 7.29016 20.7796 6.95515 20.6947 6.69238C20.6202 6.46182 20.4635 6.26634 20.2556 6.14192C20.0184 6 19.6758 6 18.9887 6H5.5M18 21C17.4477 21 17 20.5523 17 20C17 19.4477 17.4477 19 18 19C18.5523 19 19 19.4477 19 20C19 20.5523 18.5523 21 18 21ZM8 21C7.44772 21 7 20.5523 7 20C7 19.4477 7.44772 19 8 19C8.55228 19 9 19.4477 9 20C9 20.5523 8.55228 21 8 21Z" stroke-width="2" stroke-linecap="round" stroke-linejoin="round" />
	</symbol>
	<symbol id="home" viewBox="0 0 20 20">
		<path d="M17.4993 14.7462V9.6541C17.4993 9.16367 17.4988 8.91831 17.4379 8.6901C17.3839 8.48786 17.2953 8.29647 17.1754 8.12353C17.0401 7.92837 16.852 7.76653 16.475 7.44358L11.975 3.58866C11.275 2.98905 10.9251 2.68939 10.5312 2.57536C10.1841 2.47488 9.81422 2.47488 9.46716 2.57536C9.07359 2.68931 8.72413 2.98868 8.02523 3.58738L3.52374 7.44358C3.14674 7.76654 2.95868 7.92837 2.82336 8.12353C2.70345 8.29648 2.61416 8.48786 2.56018 8.6901C2.49927 8.91831 2.49927 9.16366 2.49927 9.6541V14.7462C2.49927 15.6015 2.49927 16.029 2.64199 16.3664C2.83229 16.8162 3.19707 17.174 3.65649 17.3603C4.00106 17.5 4.43789 17.5 5.31153 17.5C6.18517 17.5 6.62247 17.5 6.96704 17.3603C7.42647 17.174 7.79114 16.8162 7.98145 16.3665C8.12417 16.0291 8.12427 15.6014 8.12427 14.7461V13.8283C8.12427 12.8145 8.96373 11.9926 9.99927 11.9926C11.0348 11.9926 11.8743 12.8145 11.8743 13.8283V14.7461C11.8743 15.6014 11.8743 16.0291 12.017 16.3665C12.2073 16.8162 12.5721 17.174 13.0315 17.3603C13.3761 17.5 13.8129 17.5 14.6865 17.5C15.5602 17.5 15.9975 17.5 16.342 17.3603C16.8015 17.174 17.1661 16.8162 17.3564 16.3664C17.4992 16.029 17.4993 15.6015 17.4993 14.7462Z" stroke-width="1.83333" stroke-linecap="round" stroke-linejoin="round" />
	</symbol>
	<symbol id="burger" viewBox="0 0 20 20">
		<path d="M2.49927 15H17.4993M2.49927 10H17.4993M2.49927 5H17.4993" stroke-width="1.83333" stroke-linecap="round" stroke-linejoin="round" />
	</symbol>
	<symbol id="location" viewBox="0 0 20 20">
		<path id="Vector" d="M10.0002 1.66797C6.3335 1.66797 3.3335 4.66797 3.3335 8.33464C3.3335 12.8346 9.16683 17.918 9.41683 18.168C9.5835 18.2513 9.8335 18.3346 10.0002 18.3346C10.1668 18.3346 10.4168 18.2513 10.5835 18.168C10.8335 17.918 16.6668 12.8346 16.6668 8.33464C16.6668 4.66797 13.6668 1.66797 10.0002 1.66797ZM10.0002 16.418C8.25016 14.7513 5.00016 11.168 5.00016 8.33464C5.00016 5.58464 7.25016 3.33464 10.0002 3.33464C12.7502 3.33464 15.0002 5.58464 15.0002 8.33464C15.0002 11.0846 11.7502 14.7513 10.0002 16.418ZM10.0002 5.0013C8.16683 5.0013 6.66683 6.5013 6.66683 8.33464C6.66683 10.168 8.16683 11.668 10.0002 11.668C11.8335 11.668 13.3335 10.168 13.3335 8.33464C13.3335 6.5013 11.8335 5.0013 10.0002 5.0013ZM10.0002 10.0013C9.0835 10.0013 8.3335 9.2513 8.3335 8.33464C8.3335 7.41797 9.0835 6.66797 10.0002 6.66797C10.9168 6.66797 11.6668 7.41797 11.6668 8.33464C11.6668 9.2513 10.9168 10.0013 10.0002 10.0013Z" />
	</symbol>
	<symbol id="arrow-up" viewBox="0 0 28 28">
		<path d="M13.9996 3.5L8.16626 9.33333M13.9996 3.5L19.8329 9.33333M13.9996 3.5V24.5" stroke-width="2.33333" stroke-linecap="round" stroke-linejoin="round" />
	</symbol>
	<symbol id="arrow-slider" viewBox="0 0 28 28">
		<path d="M15.75 19.25L10.5 14L15.75 8.75" stroke-width="2.33333" stroke-linecap="round" stroke-linejoin="round" />
	</symbol>
	<symbol id="arr-link" viewBox="0 0 20 20">
		<path d="M4.1665 10H15.8332M15.8332 10L10.8332 5M15.8332 10L10.8332 15" stroke-width="1.66667" stroke-linecap="round" stroke-linejoin="round" />
	</symbol>
	<symbol id="reset" viewBox="0 0 20 20">
		<path d="M15.8333 11.3793C15.8333 12.4705 15.4912 13.5372 14.8502 14.4445C14.2093 15.3518 13.2982 16.059 12.2323 16.4766C11.1664 16.8942 9.99353 17.0034 8.86198 16.7905C7.73042 16.5777 6.69102 16.0522 5.87521 15.2806C5.05941 14.509 4.50384 13.5259 4.27876 12.4557C4.05368 11.3854 4.16919 10.2761 4.61071 9.26795C5.05222 8.25981 5.79989 7.39813 6.75918 6.79189C7.71846 6.18565 8.84628 5.86207 10 5.86207H13.6062L11.5155 7.84L12.3333 8.62069L15.8333 5.31034L12.3333 2L11.5155 2.78014L13.6079 4.75862H10C8.61553 4.75862 7.26216 5.14692 6.11101 5.87441C4.95987 6.6019 4.06266 7.63591 3.53285 8.84568C3.00303 10.0555 2.86441 11.3867 3.13451 12.6709C3.4046 13.9552 4.07129 15.1349 5.05026 16.0608C6.02922 16.9868 7.2765 17.6173 8.63437 17.8728C9.99224 18.1282 11.3997 17.9971 12.6788 17.496C13.9579 16.9949 15.0511 16.1463 15.8203 15.0576C16.5895 13.9688 17 12.6888 17 11.3793H15.8333Z" />
	</symbol>
	<symbol id="tab-01" viewBox="0 0 20 20">
		<path d="M10.0002 3.33203C6.32424 3.33203 3.3335 6.32277 3.3335 9.99871C3.3335 13.6746 6.32424 16.6654 10.0002 16.6654C13.6761 16.6654 16.6669 13.6746 16.6669 9.99871C16.6669 6.32277 13.6761 3.33203 10.0002 3.33203ZM13.4108 5.82227C13.4857 5.73887 13.5915 5.68961 13.7038 5.68516C13.8006 5.67418 13.9252 5.72137 14.0065 5.79867C14.8708 6.61695 15.4584 7.65863 15.7041 8.81098C15.7432 8.99488 15.6545 9.18207 15.4876 9.26832C15.0799 9.4791 14.5957 9.58121 14.1319 9.58121C13.5272 9.58121 12.9543 9.40785 12.6222 9.07582C11.9159 8.36988 12.2104 7.15367 13.4108 5.82227ZM6.58955 14.2402C6.51467 14.3236 6.40889 14.3733 6.29658 14.3778C6.2917 14.3782 6.286 14.3782 6.28029 14.3782C6.17369 14.3782 6.07115 14.3375 5.99385 14.2642C5.12959 13.4459 4.54201 12.4043 4.29627 11.2515C4.25721 11.0676 4.34592 10.8804 4.51275 10.7942C5.45189 10.3096 6.79139 10.3999 7.37814 10.9866C8.08369 11.6927 7.78908 12.9089 6.58955 14.2402ZM7.37811 9.07586C7.04607 9.40789 6.47314 9.58125 5.8685 9.58125C5.40463 9.58125 4.92123 9.4791 4.51271 9.26836C4.34588 9.18211 4.25717 8.99492 4.29623 8.81102C4.54201 7.65867 5.12955 6.61699 5.99381 5.79871C6.07518 5.72141 6.19482 5.6734 6.29654 5.6852C6.40885 5.68969 6.51463 5.73891 6.58951 5.8223C7.7899 7.15367 8.08447 8.36988 7.37811 9.07586ZM11.7759 15.555C11.1989 15.7389 10.6015 15.8321 10.0002 15.8321C9.39881 15.8321 8.80143 15.7389 8.22447 15.555C8.04135 15.4964 7.92174 15.3206 7.93475 15.1289C8.03893 13.6295 8.92678 12.4987 10.0002 12.4987C11.0736 12.4987 11.9614 13.6295 12.0656 15.1289C12.0786 15.3206 11.959 15.4964 11.7759 15.555ZM8.3335 9.99871C8.3335 9.07953 9.08139 8.33203 10.0002 8.33203C10.919 8.33203 11.6669 9.07949 11.6669 9.99871C11.6669 10.9179 10.919 11.6654 10.0002 11.6654C9.08139 11.6654 8.3335 10.9179 8.3335 9.99871ZM12.0656 4.90145C11.9614 6.40047 11.0736 7.53125 10.0002 7.53125C8.92678 7.53125 8.03893 6.40047 7.93475 4.90145C7.92174 4.7098 8.04053 4.53402 8.22365 4.47582C9.37764 4.10715 10.6228 4.10715 11.7767 4.47582C11.9598 4.53402 12.0786 4.7098 12.0656 4.90145ZM15.7041 11.1852C15.4583 12.338 14.8708 13.3796 14.0065 14.1979C13.9292 14.2712 13.8267 14.3119 13.7201 14.3119C13.7144 14.3119 13.7087 14.3119 13.7038 14.3115C13.5915 14.307 13.4857 14.2578 13.4108 14.1744C12.2105 12.843 11.9159 11.6264 12.6222 10.9204C13.209 10.3332 14.5477 10.2441 15.4876 10.7279C15.6545 10.8141 15.7432 11.0013 15.7041 11.1852Z" />
		<path d="M10 0C4.48566 0 0 4.48609 0 10C0 15.5139 4.48566 20 10 20C15.5143 20 20 15.5139 20 10C20 4.48609 15.5143 0 10 0ZM10 17.5C5.86426 17.5 2.5 14.1354 2.5 10C2.5 5.86465 5.86426 2.5 10 2.5C14.1357 2.5 17.5 5.86465 17.5 10C17.5 14.1354 14.1357 17.5 10 17.5Z" />
	</symbol>
	<symbol id="tab-02" viewBox="0 0 20 20">
		<path d="M9.87364 2.24436C7.54424 2.21016 4.30844 2.26016 3.64224 4.04976L2.00544 7.89056C1.93284 7.80751 1.83764 7.7474 1.73144 7.71756L1.07244 7.53216C0.999979 7.51161 0.924171 7.50558 0.84937 7.51441C0.774569 7.52324 0.702248 7.54675 0.636557 7.5836C0.570867 7.62045 0.513101 7.66991 0.466576 7.72914C0.420051 7.78837 0.385682 7.85621 0.365442 7.92876L0.0216421 9.14956C0.00112531 9.22201 -0.0048847 9.2978 0.00395687 9.37258C0.0127984 9.44736 0.0363176 9.51965 0.0731651 9.58532C0.110013 9.65099 0.159463 9.70873 0.21868 9.75525C0.277897 9.80176 0.345714 9.83612 0.418242 9.85636L1.07744 10.042C1.09944 10.048 1.12144 10.05 1.14344 10.0536C1.01744 10.3676 0.939042 10.7128 0.939042 10.9182V15.3822C0.939042 15.611 1.03504 15.717 1.18744 15.7666V16.9558C1.1872 17.0613 1.20782 17.1659 1.24811 17.2635C1.2884 17.3611 1.34757 17.4497 1.42222 17.5244C1.49687 17.599 1.58553 17.6582 1.68311 17.6985C1.78069 17.7388 1.88527 17.7594 1.99084 17.7592H4.14624C4.25181 17.7594 4.35639 17.7388 4.45397 17.6985C4.55155 17.6582 4.64021 17.599 4.71486 17.5244C4.78951 17.4497 4.84868 17.3611 4.88897 17.2635C4.92926 17.1659 4.94988 17.0613 4.94964 16.9558V15.8102H15.0502V16.9558C15.0501 17.0613 15.0707 17.1659 15.111 17.2635C15.1514 17.361 15.2106 17.4497 15.2852 17.5243C15.3599 17.599 15.4485 17.6581 15.5461 17.6984C15.6437 17.7387 15.7483 17.7594 15.8538 17.7592H18.0088C18.1144 17.7594 18.219 17.7388 18.3166 17.6985C18.4142 17.6582 18.5029 17.599 18.5776 17.5244C18.6523 17.4498 18.7115 17.3611 18.7518 17.2635C18.7922 17.1659 18.8128 17.0614 18.8126 16.9558V15.7668C18.9652 15.7172 19.0606 15.6112 19.0606 15.3824V10.9184C19.0606 10.713 18.982 10.3678 18.8562 10.0538C18.8782 10.0504 18.9002 10.0484 18.9222 10.0422L19.5816 9.85656C19.6542 9.8363 19.7219 9.80192 19.7811 9.7554C19.8403 9.70888 19.8898 9.65113 19.9266 9.58547C19.9634 9.5198 19.9869 9.44751 19.9958 9.37274C20.0046 9.29797 19.9986 9.2222 19.978 9.14976L19.6346 7.92896C19.6144 7.8564 19.58 7.78856 19.5334 7.72933C19.4869 7.67009 19.4291 7.62063 19.3634 7.58378C19.2977 7.54694 19.2254 7.52343 19.1506 7.5146C19.0757 7.50578 18.9999 7.51181 18.9274 7.53236L18.2684 7.71776C18.1622 7.74772 18.067 7.80781 17.9942 7.89076L16.3574 4.04996C15.6434 2.23316 12.2028 2.27876 9.87344 2.24456M16.5448 8.13336C16.5836 8.24856 16.4676 8.32536 16.3462 8.33236C16.3462 8.33236 15.9494 8.36596 15.4022 8.41016C14.9858 7.43736 14.0182 6.75176 12.8972 6.75176C11.667 6.75176 10.6226 7.57776 10.2876 8.70256C10.1948 8.70376 10.087 8.70776 10.0008 8.70776C7.88144 8.70776 3.65304 8.33236 3.65304 8.33236C3.53184 8.32516 3.41564 8.24836 3.45444 8.13336C5.08284 3.16916 5.13144 3.54236 9.90964 3.59456C14.6876 3.64656 14.7154 3.29196 16.5448 8.13336ZM12.8972 7.68996C13.1922 7.68894 13.4829 7.76137 13.7429 7.90072C14.0029 8.04007 14.2241 8.24195 14.3866 8.48816C13.4296 8.55916 12.3282 8.63176 11.3018 8.67396C11.4495 8.37747 11.6772 8.1282 11.9591 7.95431C12.2411 7.78043 12.566 7.68886 12.8972 7.68996ZM1.88124 9.30076C1.89564 9.32216 1.90964 9.34356 1.92564 9.36416H1.86364L1.88124 9.30076ZM2.94004 10.5476C3.35924 10.5408 5.60964 11.2982 5.60964 11.2982C5.89064 11.3774 6.13804 11.9086 6.13664 12.2006C6.13244 13.184 3.59484 12.8426 2.56464 12.8466C2.49542 12.8467 2.42684 12.8332 2.36286 12.8067C2.29887 12.7803 2.24073 12.7415 2.19177 12.6926C2.14281 12.6436 2.104 12.5855 2.07755 12.5215C2.0511 12.4576 2.03754 12.389 2.03764 12.3198V11.0748C2.03764 10.7828 2.52084 10.5548 2.94004 10.5476ZM17.0596 10.5476C17.4788 10.5546 17.962 10.7828 17.962 11.0748V12.3198C17.9622 12.389 17.9486 12.4576 17.9222 12.5216C17.8958 12.5856 17.8569 12.6437 17.808 12.6927C17.759 12.7417 17.7009 12.7805 17.6369 12.8069C17.5729 12.8334 17.5043 12.8469 17.435 12.8468C16.405 12.8428 13.8672 13.184 13.863 12.2006C13.8616 11.9086 14.109 11.3774 14.39 11.2982C14.39 11.2982 16.6404 10.5408 17.0596 10.5476Z" />
	</symbol>
	<symbol id="tab-03" viewBox="0 0 20 20">
		<path d="M14.8002 1.68672C10.2276 -0.953281 4.32633 0.627948 1.68633 5.20056C-0.953671 9.77318 0.627558 15.6744 5.20017 18.3144C9.77279 20.9544 15.674 19.3732 18.314 14.8006C20.954 10.2279 19.3728 4.32672 14.8002 1.68672ZM14.5761 6.31474L15.2347 5.49408C15.4294 5.23695 15.7226 5.1291 16.0104 5.11054C17.5449 7.01264 18.1091 9.55541 17.498 11.9739C17.3141 12.0524 17.1356 12.0417 16.957 12.031C16.3374 11.9042 15.5753 11.4642 14.7985 10.9696L14.7639 10.9496C13.549 9.69387 13.4737 7.66431 14.5761 6.31474ZM7.72812 9.93587C8.07453 10.1359 8.19166 10.573 7.99166 10.9194C7.79166 11.2658 7.35453 11.3829 7.00812 11.1829C6.66171 10.9829 6.54458 10.5458 6.74458 10.1994C6.94458 9.853 7.38171 9.73587 7.72812 9.93587ZM8.54458 7.08172C8.74458 6.73531 9.18171 6.61818 9.52812 6.81818C9.87453 7.01818 9.99166 7.45531 9.79166 7.80172C9.59166 8.14813 9.15453 8.26525 8.80812 8.06525C8.46171 7.86525 8.34458 7.42813 8.54458 7.08172ZM8.89166 9.36056C9.25166 8.73702 10.0166 8.53205 10.6402 8.89205C11.2637 9.25205 11.4687 10.017 11.1087 10.6406C10.7487 11.2641 9.98371 11.4691 9.36017 11.1091C8.73663 10.7491 8.53166 9.9841 8.89166 9.36056ZM13.9002 3.24556C14.0387 3.32556 14.1773 3.40556 14.2959 3.52021C14.3198 3.71877 14.2744 3.87733 14.1744 4.05054C13.8544 4.60479 13.2466 5.17761 12.4948 5.75972C12.4948 5.75972 12.4748 5.79436 12.4402 5.77436C10.9034 6.59608 8.96602 6.03177 8.01502 4.55895L7.42363 3.66326C7.26115 3.38469 7.22794 3.0422 7.29866 2.75972C7.31866 2.72508 7.31866 2.72508 7.33866 2.69044C9.44574 1.92087 11.8217 2.04556 13.9002 3.24556ZM2.39761 10.3686C2.32833 10.3286 2.31369 10.2739 2.2444 10.2339C2.18623 8.81472 2.53982 7.40228 3.27981 6.12056C3.75981 5.28918 4.41302 4.55779 5.11015 3.99033C5.34335 3.98641 5.58584 4.12641 5.75369 4.31569C6.1733 4.7889 6.55684 5.56459 6.86038 6.47884C6.86038 6.47884 6.86038 6.47884 6.87502 6.53348C7.18497 8.23664 6.0264 9.92333 4.33253 10.3772L3.29435 10.6554C2.97187 10.6539 2.63474 10.5979 2.39761 10.3686ZM8.10151 17.4491C8.0815 17.4838 8.02686 17.4984 7.97222 17.5131C7.33797 17.3316 6.68907 17.0956 6.10017 16.7556C4.54133 15.8556 3.42104 14.5159 2.79789 12.9553C2.88325 12.7274 3.05789 12.5049 3.31646 12.3771C3.92287 12.1268 4.73712 11.9964 5.70458 12.0007L5.73922 12.0207C7.44486 12.2665 8.69299 13.8647 8.60581 15.6157L8.5415 16.687C8.52543 16.9549 8.34543 17.2667 8.10151 17.4491ZM10.4522 13.2176C10.1058 13.0176 9.98868 12.5805 10.1887 12.234C10.3887 11.8876 10.8258 11.7705 11.1722 11.9705C11.5186 12.1705 11.6358 12.6076 11.4358 12.954C11.2558 13.2658 10.7986 13.4176 10.4522 13.2176ZM12.2722 10.0653C11.9258 9.86525 11.8087 9.42813 12.0087 9.08172C12.2087 8.73531 12.6458 8.61818 12.9922 8.81818C13.3386 9.01818 13.4558 9.45531 13.2558 9.80172C13.0558 10.1481 12.6186 10.2653 12.2722 10.0653ZM10.556 17.7578C10.4028 17.6231 10.2896 17.4192 10.2511 17.166C10.1993 16.5357 10.3568 15.7028 10.609 14.7861L10.629 14.7515C11.405 13.1673 13.3082 12.5109 14.9378 13.1284L15.9184 13.5098C16.2156 13.6352 16.4527 13.8645 16.5405 14.1923C15.2312 16.3001 12.9681 17.58 10.556 17.7578Z" />
	</symbol>
	<symbol id="help" viewBox="0 0 16 16">
		<g clip-path="url(#clip0_1144_87)">
			<path d="M8 16C5.87827 16 3.84344 15.1571 2.34315 13.6569C0.842855 12.1566 0 10.1217 0 8C0 5.87827 0.842855 3.84344 2.34315 2.34315C3.84344 0.842855 5.87827 0 8 0C10.1217 0 12.1566 0.842855 13.6569 2.34315C15.1571 3.84344 16 5.87827 16 8C16 10.1217 15.1571 12.1566 13.6569 13.6569C12.1566 15.1571 10.1217 16 8 16ZM9.6 5.6C9.6 5.824 9.432 6.24 9.264 6.4L8 7.664C7.544 8.128 7.2 8.944 7.2 9.6V10.4H8.8V9.6C8.8 9.368 8.968 8.96 9.136 8.8L10.4 7.536C10.856 7.072 11.2 6.256 11.2 5.6C11.2 4.75131 10.8629 3.93737 10.2627 3.33726C9.66263 2.73714 8.84869 2.4 8 2.4C7.15131 2.4 6.33737 2.73714 5.73726 3.33726C5.13714 3.93737 4.8 4.75131 4.8 5.6H6.4C6.4 5.17565 6.56857 4.76869 6.86863 4.46863C7.16869 4.16857 7.57565 4 8 4C8.42435 4 8.83131 4.16857 9.13137 4.46863C9.43143 4.76869 9.6 5.17565 9.6 5.6ZM7.2 12V13.6H8.8V12H7.2Z" />
		</g>
		<defs>
			<clipPath id="clip0_1144_87">
				<rect width="16" height="16" fill="white" />
			</clipPath>
		</defs>
	</symbol>
	<symbol id="security" viewBox="0 0 24 24">
		<path d="M15 9L11 13L9 11M20 10.165C20 16.7333 15.0319 19.6781 12.9258 20.6314L12.9231 20.6325C12.7016 20.7328 12.5906 20.7831 12.3389 20.8263C12.1795 20.8537 11.8215 20.8537 11.6621 20.8263C11.4094 20.7829 11.2972 20.7325 11.074 20.6314C8.9678 19.6781 4 16.7333 4 10.165V6.2002C4 5.08009 4 4.51962 4.21799 4.0918C4.40973 3.71547 4.71547 3.40973 5.0918 3.21799C5.51962 3 6.08009 3 7.2002 3H16.8002C17.9203 3 18.4796 3 18.9074 3.21799C19.2837 3.40973 19.5905 3.71547 19.7822 4.0918C20 4.5192 20 5.07899 20 6.19691V10.165Z" stroke-width="2" stroke-linecap="round" stroke-linejoin="round" />
	</symbol>
	<symbol id="present" viewBox="0 0 24 24">
		<path d="M22 12V20C22 20.5304 21.7893 21.0391 21.4142 21.4142C21.0391 21.7893 20.5304 22 20 22H4C3.46957 22 2.96086 21.7893 2.58579 21.4142C2.21071 21.0391 2 20.5304 2 20V12C1.73478 12 1.48043 11.8946 1.29289 11.7071C1.10536 11.5196 1 11.2652 1 11V8C1 7.46957 1.21071 6.96086 1.58579 6.58579C1.96086 6.21071 2.46957 6 3 6H6.17C6.05698 5.67873 5.99949 5.34057 6 5C6 4.20435 6.31607 3.44129 6.87868 2.87868C7.44129 2.31607 8.20435 2 9 2C10 2 10.88 2.5 11.43 3.24V3.23L12 4L12.57 3.23V3.24C13.12 2.5 14 2 15 2C15.7956 2 16.5587 2.31607 17.1213 2.87868C17.6839 3.44129 18 4.20435 18 5C18.0005 5.34057 17.943 5.67873 17.83 6H21C21.5304 6 22.0391 6.21071 22.4142 6.58579C22.7893 6.96086 23 7.46957 23 8V11C23 11.2652 22.8946 11.5196 22.7071 11.7071C22.5196 11.8946 22.2652 12 22 12ZM4 20H11V12H4V20ZM20 20V12H13V20H20ZM9 4C8.73478 4 8.48043 4.10536 8.29289 4.29289C8.10536 4.48043 8 4.73478 8 5C8 5.26522 8.10536 5.51957 8.29289 5.70711C8.48043 5.89464 8.73478 6 9 6C9.26522 6 9.51957 5.89464 9.70711 5.70711C9.89464 5.51957 10 5.26522 10 5C10 4.73478 9.89464 4.48043 9.70711 4.29289C9.51957 4.10536 9.26522 4 9 4ZM15 4C14.7348 4 14.4804 4.10536 14.2929 4.29289C14.1054 4.48043 14 4.73478 14 5C14 5.26522 14.1054 5.51957 14.2929 5.70711C14.4804 5.89464 14.7348 6 15 6C15.2652 6 15.5196 5.89464 15.7071 5.70711C15.8946 5.51957 16 5.26522 16 5C16 4.73478 15.8946 4.48043 15.7071 4.29289C15.5196 4.10536 15.2652 4 15 4ZM3 8V10H11V8H3ZM13 8V10H21V8H13Z" />
	</symbol>
	<symbol id="compare" viewBox="0 0 20 20">
		<path d="M13.8567 5.12174C17.0944 6.04914 19.2072 9.11468 18.9839 12.3863C18.7606 15.6837 16.2871 18.38 13.0494 18.9038C11.2888 19.1872 9.63981 18.8437 8.13686 17.882C6.63391 16.9202 5.64626 15.5635 5.12237 13.8547H4.89908C3.84272 13.8547 2.78636 13.8547 1.73 13.8547C1.26624 13.8547 1.00859 13.5971 1.00859 13.142C1 9.32936 1 5.51674 1 1.71272C1 1.25761 1.25765 1 1.71283 1C5.52602 1 9.34781 1 13.161 1C13.599 1 13.8567 1.2662 13.8567 1.70413C13.8567 2.76892 13.8567 3.8337 13.8567 4.89848C13.8567 4.97577 13.8567 5.04446 13.8567 5.13033V5.12174ZM2.29683 2.29663V12.5581H4.87331C4.7359 10.3684 5.38861 8.47925 6.9345 6.93359C8.48039 5.38794 10.3784 4.74392 12.5512 4.88131V2.29663H2.29683ZM6.50509 13.8547C7.08909 15.7696 9.25334 17.8906 12.285 17.7017C15.3252 17.5127 17.6269 15.0483 17.7128 12.1115C17.8073 8.9687 15.5142 6.98512 13.8567 6.51283V6.75327C13.8567 8.86566 13.8567 10.9866 13.8567 13.099C13.8567 13.5541 13.5647 13.8633 13.0837 13.8633C10.971 13.8461 8.84969 13.8633 6.73697 13.8633H6.4965L6.50509 13.8547ZM8.37733 7.37153C9.78581 8.77979 11.1857 10.1795 12.5684 11.562C12.5684 10.9952 12.5684 10.3941 12.5684 9.79305C12.5684 9.65566 12.5255 9.56979 12.431 9.48392C11.7525 8.81414 11.0826 8.14436 10.4128 7.46599C10.1723 7.22555 9.93181 6.97653 9.68275 6.74468C9.63981 6.70175 9.54534 6.65881 9.5024 6.67599C9.08157 6.8649 8.68651 7.09675 8.36874 7.37153H8.37733ZM7.38968 8.35044C7.12344 8.67675 6.90015 9.04599 6.71121 9.42381C6.65109 9.53545 6.65968 9.60414 6.75415 9.6986C7.67309 10.6174 8.59204 11.5362 9.51098 12.455C9.58828 12.5323 9.66557 12.5666 9.77722 12.5666C10.344 12.5666 10.9195 12.5666 11.4863 12.5666C11.5292 12.5666 11.5722 12.5666 11.6065 12.5666C10.2066 11.167 8.80675 9.76729 7.39827 8.35903L7.38968 8.35044ZM12.5512 7.73218V6.18653C12.0102 6.10925 11.3746 6.13501 11.0483 6.22946C11.5464 6.72751 12.0531 7.23414 12.5512 7.73218ZM7.7418 12.5581C7.23509 12.0514 6.72838 11.5448 6.22167 11.0382C6.13579 11.5362 6.11003 12.0428 6.18732 12.5581H7.7418Z" stroke-width="0.3" />
	</symbol>
	<symbol id="copy" viewBox="0 0 14 14">
		<path d="M5.25 5.25V3.61678C5.25 2.96339 5.25 2.63645 5.37716 2.38688C5.48901 2.16736 5.66736 1.98901 5.88688 1.87716C6.13645 1.75 6.46339 1.75 7.11678 1.75H10.3834C11.0368 1.75 11.3634 1.75 11.6129 1.87716C11.8325 1.98901 12.0111 2.16736 12.123 2.38688C12.2501 2.63645 12.2501 2.96314 12.2501 3.61654V6.88322C12.2501 7.53661 12.2501 7.86331 12.123 8.11287C12.0111 8.3324 11.8323 8.51111 11.6128 8.62297C11.3634 8.75 11.0373 8.75 10.3851 8.75H8.75M5.25 5.25H3.61678C2.96339 5.25 2.63645 5.25 2.38688 5.37716C2.16736 5.48901 1.98901 5.66736 1.87716 5.88688C1.75 6.13645 1.75 6.46339 1.75 7.11678V10.3834C1.75 11.0368 1.75 11.3634 1.87716 11.6129C1.98901 11.8325 2.16736 12.0111 2.38688 12.123C2.6362 12.25 2.96275 12.25 3.61486 12.25H6.8854C7.53752 12.25 7.86361 12.25 8.11293 12.123C8.33245 12.0111 8.51111 11.8323 8.62297 11.6128C8.75 11.3634 8.75 11.0373 8.75 10.3851V8.75M5.25 5.25H6.88345C7.53684 5.25 7.86337 5.25 8.11293 5.37716C8.33245 5.48901 8.51111 5.66736 8.62297 5.88688C8.75 6.1362 8.75 6.46275 8.75 7.11488L8.75 8.75" stroke-width="1.25868" stroke-linecap="round" stroke-linejoin="round" />
	</symbol>
	<symbol id="minus" viewBox="0 0 20 20">
		<path d="M5 10H15" stroke-width="1.66667" stroke-linecap="round" stroke-linejoin="round" />
	</symbol>
	<symbol id="plus" viewBox="0 0 20 20">
		<path d="M5 10H10M10 10H15M10 10V15M10 10V5" stroke-width="1.66667" stroke-linecap="round" stroke-linejoin="round" />
	</symbol>
	<symbol id="del" viewBox="0 0 20 20">
		<path d="M4.16536 4.5H3.83203V3.83333H7.4987H7.9987V3.33333V3H11.9987V3.33333V3.83333H12.4987H16.1654V4.5H15.832H15.332V5V15.8333C15.332 16.1582 15.2223 16.4239 14.989 16.6576C14.7562 16.8908 14.491 17.0004 14.166 17H14.1654H5.83203C5.50723 17 5.24192 16.8903 5.00892 16.6573L4.66258 17.0036L5.00892 16.6573C4.77596 16.4243 4.66582 16.1586 4.66536 15.833V5V4.5H4.16536ZM14.6654 5V4.5H14.1654H5.83203H5.33203V5V15.8333V16.3333H5.83203H14.1654H14.6654V15.8333V5ZM8.66536 7.16667V13.6667H7.9987V7.16667H8.66536ZM11.9987 7.16667V13.6667H11.332V7.16667H11.9987Z" />
	</symbol>
	<symbol id="star-rating" viewBox="0 0 43 42">
		<path d="M21.25 31.6303L29.7372 36.4644C31.2915 37.3503 33.1935 36.0407 32.7845 34.3844L30.5348 25.294L38.0404 19.1696C39.4107 18.0526 38.6744 15.934 36.8747 15.7992L26.9968 15.0096L23.1315 6.42C22.4362 4.86 20.0638 4.86 19.3685 6.42L15.5032 14.9903L5.62529 15.78C3.82558 15.9148 3.08934 18.0333 4.45957 19.1503L11.9652 25.2748L9.71553 34.3651C9.3065 36.0214 11.2085 37.331 12.7628 36.4451L21.25 31.6303Z" />
	</symbol>
	<symbol id="star-rating-outline" viewBox="0 0 16 16" fill="white">
		<path d="M8.24811 11.6152L8.00114 11.4745L7.75394 11.6147L4.5207 13.449L4.51982 13.4495C4.40376 13.5156 4.28019 13.5007 4.18905 13.4383C4.09983 13.3772 4.07114 13.296 4.09195 13.2115C4.09196 13.2114 4.09197 13.2114 4.09198 13.2113L4.94893 9.74859L5.02499 9.44125L4.77968 9.24108L1.9204 6.90797L1.92023 6.90782C1.83175 6.83569 1.81988 6.75197 1.84593 6.67678C1.87317 6.59818 1.94763 6.52037 2.08573 6.51002L2.08573 6.51003L2.08822 6.50983L5.85124 6.20902L6.14573 6.18548L6.26719 5.91617L7.73967 2.65128L7.73968 2.65128L7.74057 2.64927C7.77907 2.5629 7.87022 2.5 8.00065 2.5C8.13108 2.5 8.22223 2.5629 8.26073 2.64927L8.26146 2.65089L9.73394 5.92312L9.85529 6.19279L10.1501 6.21635L13.9131 6.51717L13.9156 6.51736C14.0537 6.5277 14.1281 6.60552 14.1554 6.68412C14.1814 6.75931 14.1696 6.84303 14.0811 6.91516L14.0809 6.91531L11.2216 9.24842L10.9763 9.44859L11.0524 9.75593L11.9093 13.2187C11.9093 13.2187 11.9093 13.2188 11.9094 13.2188C11.9302 13.3033 11.9015 13.3845 11.8123 13.4456C11.7211 13.5081 11.5975 13.5229 11.4815 13.4568L11.4813 13.4567L8.24811 11.6152Z" stroke="#E43A2D" fill="white" />
	</symbol>
</svg>
