<svg width="233" height="56" viewBox="0 0 233 56" fill="none" xmlns="http://www.w3.org/2000/svg">
<path fill-rule="evenodd" clip-rule="evenodd" d="M4.78616 43.3632L0 45.6968C1.14991 46.9136 2.62321 47.7885 4.25266 48.2224C6.52688 48.8392 8.88151 49.12 11.2395 49.0558C13.1868 49.0871 15.1305 48.8801 17.026 48.4396C18.4783 48.1378 19.8266 47.4714 20.9401 46.505C21.4077 46.0678 21.7771 45.539 22.0245 44.9526C22.2719 44.3662 22.3918 43.7354 22.3765 43.1006C22.4235 42.0914 22.0911 41.1005 21.4428 40.3175C20.8074 39.6413 19.9942 39.1518 19.0933 38.9032C18.0906 38.6079 17.0588 38.4182 16.0154 38.3374C14.9176 38.2566 13.8763 38.1859 12.8965 38.1354C12.0784 38.1109 11.2666 37.9853 10.4803 37.7616C10.2204 37.7145 9.9841 37.5829 9.80923 37.3878C9.63436 37.1927 9.53107 36.9455 9.5159 36.6857C9.5159 36.3574 9.8083 36.1049 10.3418 35.9281C11.0259 35.73 11.7374 35.6397 12.4502 35.6604C13.3736 35.6565 14.2933 35.7755 15.1844 36.0139C15.869 36.1573 16.4953 36.4964 16.985 36.9888L22.2072 35.2815C21.7019 34.5873 21.0891 33.9754 20.3912 33.4682C19.4526 32.8183 18.4006 32.344 17.2876 32.0691C15.6303 31.6647 13.9265 31.4745 12.2193 31.5033C8.45743 31.5033 5.754 32.0084 4.10902 33.0187C3.35033 33.4343 2.72458 34.0504 2.30223 34.7973C1.87989 35.5442 1.67772 36.3924 1.7185 37.2464C1.67881 38.3192 2.06947 39.3643 2.80604 40.1558C3.55367 40.8711 4.47042 41.3919 5.47356 41.6711C6.57516 42.0074 7.70734 42.2375 8.85414 42.3581C9.88012 42.4642 10.7881 42.5601 11.6499 42.6359C12.3567 42.685 13.0573 42.7982 13.7429 42.9743C14.2559 43.1208 14.5483 43.3582 14.5637 43.6865C14.5637 44.1058 14.1892 44.4088 13.4351 44.5957C12.3118 44.8104 11.1675 44.9002 10.0238 44.8634C8.76684 44.8943 7.51487 44.6974 6.33025 44.2825C5.74277 44.1143 5.21037 43.7973 4.78616 43.3632Z" fill="white"/>
<path fill-rule="evenodd" clip-rule="evenodd" d="M46.0159 37.8173C46.0284 36.8054 45.7453 35.8112 45.2002 34.9533C44.5874 34.0211 43.7097 33.2868 42.6763 32.842C41.3108 32.2621 39.8332 31.9828 38.3467 32.0237H25.3477V48.571H32.2268V44.025H37.7619C39.0997 44.043 40.4332 43.8729 41.7222 43.5199C42.915 43.2144 43.9873 42.5634 44.8001 41.651C45.5952 40.7519 46.0005 39.469 46.0261 37.8122L46.0159 37.8173ZM38.3467 37.8173C38.3467 38.6658 38.0287 39.2265 37.4439 39.4942C36.73 39.785 35.9575 39.9094 35.1867 39.8579H32.2268V36.1504H35.0072C35.8506 36.1047 36.6941 36.2391 37.4798 36.5444C37.7388 36.6443 37.9607 36.8197 38.1156 37.0472C38.2706 37.2747 38.3512 37.5434 38.3467 37.8173Z" fill="white"/>
<path fill-rule="evenodd" clip-rule="evenodd" d="M69.6028 44.0403C69.6178 43.1835 69.3088 42.3518 68.7359 41.7067C68.191 41.1358 67.5157 40.7012 66.766 40.4389C66.0889 40.1798 65.38 40.01 64.6576 39.9338V39.8327C65.6268 39.6779 66.5289 39.2478 67.2534 38.5952C67.6338 38.2388 67.9309 37.805 68.1239 37.324C68.3169 36.8431 68.4012 36.3265 68.3709 35.8102C68.3406 35.294 68.1965 34.7904 67.9486 34.3345C67.7007 33.8786 67.3549 33.4814 66.9353 33.1704C65.9811 32.4178 64.6012 32.0238 62.7955 31.9985H48.832V48.5458H62.5852C63.7068 48.5596 64.8256 48.4323 65.9145 48.167C66.8925 47.9582 67.7969 47.4981 68.5358 46.8335C68.8921 46.4655 69.17 46.031 69.3533 45.5557C69.5365 45.0803 69.6214 44.5737 69.6028 44.0655V44.0403ZM61.3694 36.994C61.3834 37.1838 61.3427 37.3737 61.2519 37.5417C61.1612 37.7097 61.0241 37.849 60.8564 37.9436C60.3233 38.2071 59.7278 38.3241 59.1328 38.2821H55.5881V35.7565H59.0302C59.6549 35.7146 60.2802 35.8312 60.8462 36.095C61.0069 36.1792 61.1402 36.3064 61.2309 36.4618C61.3216 36.6172 61.3661 36.7947 61.3591 36.9738L61.3694 36.994ZM61.7798 43.3382C61.8035 43.5853 61.7588 43.8342 61.6505 44.0583C61.5421 44.2824 61.374 44.4734 61.1642 44.6111C60.562 44.9233 59.8837 45.065 59.2046 45.0202H55.5829V41.838H59.102C59.823 41.7804 60.5464 41.9166 61.195 42.232C61.3867 42.3452 61.5428 42.5085 61.646 42.7038C61.7492 42.899 61.7955 43.1186 61.7798 43.3382Z" fill="white"/>
<path fill-rule="evenodd" clip-rule="evenodd" d="M89.228 48.5712V44.0253L90.8798 42.5756L95.3685 48.5712H103.935L95.825 38.3226L103.115 32.0239H95.7994L89.228 37.7468V32.0239H82.3438V48.5712H89.228Z" fill="white"/>
<path fill-rule="evenodd" clip-rule="evenodd" d="M161.323 48.5712V43.8939H150.186V32.0239H143.307V48.5712H161.323Z" fill="white"/>
<path fill-rule="evenodd" clip-rule="evenodd" d="M163.863 48.5712H182.29V44.3435H170.742V42.0857H179.889V38.1307H170.742V36.1506H181.725V32.0239H163.863V48.5712Z" fill="white"/>
<path fill-rule="evenodd" clip-rule="evenodd" d="M188.912 43.3633L184.121 45.6969C185.271 46.9136 186.744 47.7886 188.374 48.2224C190.648 48.8392 193.003 49.1201 195.361 49.0559C197.31 49.0868 199.255 48.8798 201.152 48.4396C202.603 48.1377 203.95 47.4712 205.061 46.5051C205.53 46.0683 205.9 45.5397 206.148 44.9533C206.397 44.3669 206.517 43.7358 206.503 43.1007C206.549 42.0898 206.213 41.0979 205.559 40.3175C204.926 39.6405 204.114 39.1508 203.214 38.9032C202.212 38.6081 201.18 38.4184 200.137 38.3375C199.034 38.2567 197.992 38.186 197.012 38.1355C196.194 38.111 195.383 37.9854 194.596 37.7617C194.336 37.7146 194.1 37.583 193.925 37.3879C193.75 37.1928 193.647 36.9456 193.632 36.6858C193.632 36.3575 193.919 36.1049 194.458 35.9281C195.142 35.7301 195.853 35.6397 196.566 35.6604C197.491 35.6575 198.412 35.7764 199.305 36.014C199.988 36.1586 200.612 36.4976 201.101 36.9889L206.328 35.2816C205.82 34.5885 205.205 33.9768 204.507 33.4683C203.567 32.8175 202.513 32.3432 201.398 32.0691C199.743 31.6644 198.041 31.4742 196.335 31.5034C192.573 31.5034 189.87 32.0085 188.225 33.0187C187.467 33.4353 186.842 34.0515 186.42 34.7982C185.998 35.5449 185.795 36.3927 185.834 37.2465C185.795 38.3193 186.185 39.3644 186.922 40.1559C187.669 40.8722 188.586 41.3932 189.59 41.6712C190.691 42.008 191.823 42.2381 192.97 42.3582C193.996 42.4642 194.904 42.5602 195.766 42.636C196.473 42.685 197.173 42.7983 197.859 42.9744C198.372 43.1209 198.664 43.3583 198.68 43.6866C198.68 44.1058 198.305 44.4089 197.551 44.5958C196.428 44.8108 195.283 44.9005 194.14 44.8635C192.883 44.8936 191.631 44.6968 190.446 44.2826C189.862 44.1128 189.334 43.7959 188.912 43.3633Z" fill="white"/>
<path fill-rule="evenodd" clip-rule="evenodd" d="M232.999 40.1358C233.004 38.6958 232.607 37.2821 231.85 36.0495C231.07 34.8008 229.962 33.782 228.644 33.0997C227.89 32.7118 227.093 32.4102 226.269 32.2006C225.388 31.9712 224.491 31.8025 223.586 31.6955C222.735 31.5876 221.879 31.5319 221.021 31.5288C219.717 31.5394 218.417 31.6696 217.138 31.9177C215.856 32.146 214.614 32.5542 213.449 33.13C212.129 33.8233 211.016 34.8457 210.223 36.095C209.461 37.3219 209.059 38.733 209.063 40.1712C209.045 41.3836 209.279 42.5868 209.751 43.7069C210.165 44.6659 210.783 45.5269 211.562 46.2325C212.78 47.2962 214.241 48.0567 215.819 48.4499C217.542 48.8926 219.318 49.1016 221.098 49.0712C222.846 49.0943 224.589 48.8836 226.279 48.4448C227.845 48.056 229.293 47.3024 230.501 46.2476C231.274 45.5366 231.89 44.677 232.312 43.7221C232.788 42.591 233.022 41.3752 232.999 40.151V40.1358ZM225.382 40.3328C225.396 40.8851 225.297 41.4345 225.091 41.9483C224.884 42.462 224.575 42.9296 224.181 43.3231C223.342 44.1039 222.222 44.5252 221.067 44.4949C219.91 44.5224 218.788 44.1016 217.943 43.3231C217.545 42.9314 217.23 42.4649 217.019 41.9512C216.807 41.4374 216.703 40.8871 216.712 40.3328C216.69 39.2441 217.086 38.1872 217.82 37.3729C218.228 36.9516 218.722 36.6202 219.269 36.4008C219.816 36.1814 220.405 36.0788 220.996 36.1C221.571 36.0727 222.147 36.1628 222.686 36.3647C223.225 36.5666 223.715 36.8759 224.127 37.2733C224.539 37.6707 224.863 38.1476 225.079 38.6741C225.295 39.2006 225.398 39.7653 225.382 40.3328Z" fill="white"/>
<path d="M141.321 25.2352V21.265L142.659 21.1337L141.515 19.2547C141.515 19.2547 132.456 8.54136 131.307 6.62701C130.834 5.88984 130.406 5.1258 130.025 4.33887L131.271 3.41453L131.656 3.72264L137.299 0L137.365 0.373778L135.211 1.77293L135.944 3.04075L135.006 1.879L131.876 4.40453L136.965 5.26322L139.294 3.45493L138.879 2.94983L139.017 2.74273L139.505 3.32361L142.213 1.55068L142.321 1.78808L137.417 5.2026L151.514 20.6639H155.894V21.2448H161.286H166.098V23.4168H172.464V22.8207H173.767L175.09 22.5278L176.342 22.2348L176.758 21.7752L182.252 21.8156V22.3611L189.823 21.9823V22.8157H200.329V22.5884L204.218 21.8408L204.561 22.1338H207.552V22.5126H209.009V22.9824L231.38 23.8764V25.225L141.321 25.2352ZM25.8217 22.7096H27.2735V22.0833H30.2642L30.6079 21.5782L34.4963 22.7955V23.2147H45.0023V21.856L52.574 22.4773V21.5883L58.068 21.5176L58.4835 22.2702L59.7352 22.7753L61.0587 23.2501H63.1415V22.4318H63.4903C63.4903 22.4318 63.1415 21.7499 63.4903 21.7499H64.2546L65.1626 22.6389V23.048H66.1886C66.1886 23.048 65.9116 22.5025 66.1886 22.5025H68.8305L69.5281 23.1844C69.5281 23.1844 69.7333 22.5025 70.9132 22.5025C71.2101 22.4722 71.51 22.5118 71.7883 22.618C72.0666 22.7243 72.3152 22.8942 72.5137 23.1137L75.0787 21.3206L75.6327 21.8661C75.6327 21.8661 75.843 21.1135 76.4688 21.1135C77.0947 21.1135 77.3717 21.8661 77.3717 21.8661H78.2746L79.3877 21.9368L80.0803 21.1842V20.174L80.7472 19.4567V16.5271H80.2906V16.2493H80.9164V15.6381C80.9336 15.4811 80.9893 15.3306 81.0787 15.1995C81.1681 15.0684 81.2884 14.9607 81.4294 14.8855V13.6227C81.4114 13.4747 81.4269 13.3245 81.4748 13.183C81.5227 13.0416 81.6018 12.9123 81.7064 12.8045L81.9527 2.93467L82.2297 12.8045C82.3373 12.9188 82.4205 13.0533 82.4743 13.1999C82.5281 13.3466 82.5513 13.5024 82.5426 13.6581V14.9209C82.5426 14.9209 83.0556 15.1936 83.0556 15.5371V16.1836H83.5686V16.421H83.1838V21.3408H85.9334V19.6083C85.9334 19.0627 86.5593 18.8203 86.5593 18.8203L86.6619 17.7293L86.8722 18.891C87.049 18.9112 87.2116 18.9962 87.3275 19.1292C87.4435 19.2621 87.5044 19.4331 87.4981 19.6083V20.3255H88.011V19.5577C88.011 19.0122 88.3547 19.0526 88.3547 19.0526L88.4573 18.3707L88.6317 19.0173C88.6317 19.0173 89.1447 18.9819 89.1447 19.5628V20.3508H89.5243V20.7953L91.1556 19.8962V20.6488H92.3355L91.92 19.7598L105.355 3.80346L101.179 1.00011L101.077 0.727355L103.79 2.46997L104.519 2.43462L104.76 2.50533L104.067 2.60635L106.048 3.83377L111.578 4.84398L108.967 3.23774L108.551 3.74285L108.341 3.5408L108.618 3.03569L107.592 2.24773L112.147 4.84398L113.501 5.25311L113.814 5.69761L102.252 21.3761H103.549V25.2402H3.95312L3.9993 23.4622H25.8217V22.7096Z" fill="#A8A8A7"/>
<path d="M132.054 45.5707C132.484 44.5108 132.683 43.374 132.64 42.2335C132.597 41.0931 132.312 39.9741 131.803 38.9487C130.474 36.2767 126.709 36.7313 126.709 36.7313C126.709 36.7313 126.806 36.8475 125.503 36.2565C123.02 35.1251 121.435 34.2361 121.569 32.6299C121.748 30.4882 125.862 29.6548 128.104 30.5488C130.346 31.4428 132.577 33.044 133.608 36.9687C133.973 38.4162 134.086 39.914 133.942 41.3985C133.603 42.8953 132.957 44.3082 132.044 45.5505L132.054 45.5707ZM125.493 28.4577C123.754 28.1344 121.507 27.9526 119.522 28.6648C115.587 30.0336 114.017 32.352 113.879 35.2059C113.74 38.4133 116.239 40.0448 119.927 41.4692C123.615 42.8936 124.405 43.7271 124.405 45.5101C124.405 47.2931 122.41 48.4599 120.815 48.8185C119.047 49.1959 117.208 49.0858 115.5 48.5003C117.067 49.6639 118.911 50.4118 120.856 50.6723C123.154 50.5965 126.103 50.6723 128.797 48.2831C132.731 44.7474 130.495 39.8529 128.314 38.7821C126.421 37.8527 123.451 36.4535 121.902 35.6908C119.85 34.6806 119.337 32.5743 120.691 31.0539C122.143 29.4477 125.416 28.4526 129.412 30.372C128.227 29.4874 126.878 28.8373 125.442 28.4577H125.493ZM113.068 33.039C112.17 34.2636 111.535 35.6558 111.201 37.1304C111.058 38.5912 111.169 40.0654 111.529 41.4894C112.555 45.3535 114.746 46.9345 116.952 47.8134C119.158 48.6923 123.205 47.8689 123.379 45.7626C123.518 44.1918 121.953 43.3078 119.512 42.1915C118.224 41.6107 118.373 41.742 118.373 41.742C118.373 41.742 114.623 42.1915 113.315 39.5599C112.813 38.5504 112.532 37.4484 112.489 36.3252C112.447 35.2019 112.644 34.0824 113.068 33.039Z" fill="#E43A2D"/>
<path d="M122.572 22.2488C125.96 22.2548 129.271 23.2496 132.085 25.1076C134.9 26.9655 137.092 29.6032 138.384 32.6874C139.677 35.7715 140.012 39.1637 139.347 42.4352C138.682 45.7068 137.047 48.7109 134.649 51.068C132.251 53.425 129.197 55.0293 125.874 55.678C122.55 56.3267 119.105 55.9907 115.975 54.7126C112.845 53.4344 110.171 51.2714 108.289 48.4969C106.407 45.7223 105.402 42.4608 105.402 39.1244C105.408 34.6451 107.219 30.3512 110.439 27.1867C113.659 24.0222 118.023 22.2461 122.572 22.2488ZM122.572 26.1533C119.968 26.1593 117.424 26.9251 115.262 28.354C113.099 29.7829 111.416 31.8108 110.423 34.1815C109.431 36.5522 109.174 39.1593 109.686 41.6735C110.198 44.1876 111.455 46.4961 113.299 48.3071C115.142 50.1181 117.489 51.3505 120.044 51.8485C122.599 52.3466 125.246 52.0879 127.651 51.1053C130.056 50.1226 132.112 48.4601 133.558 46.3276C135.004 44.1952 135.776 41.6886 135.776 39.1244C135.774 37.419 135.431 35.7307 134.766 34.1559C134.102 32.5811 133.129 31.1506 131.902 29.9461C130.676 28.7417 129.221 27.7868 127.62 27.136C126.019 26.4852 124.304 26.1513 122.572 26.1533Z" fill="white"/>
</svg>
