<svg width="266" height="65" viewBox="0 0 266 65" fill="none" xmlns="http://www.w3.org/2000/svg">
<path fill-rule="evenodd" clip-rule="evenodd" d="M5.46404 50.0574L0 52.7243C1.31278 54.1149 2.99474 55.1148 4.85497 55.6107C7.4513 56.3156 10.1394 56.6366 12.8314 56.5631C15.0545 56.5989 17.2735 56.3623 19.4375 55.8589C21.0954 55.514 22.6347 54.7524 23.9059 53.648C24.4397 53.1483 24.8614 52.5439 25.1439 51.8738C25.4263 51.2037 25.5632 50.4827 25.5457 49.7572C25.5994 48.6038 25.22 47.4714 24.4798 46.5765C23.7544 45.8038 22.826 45.2443 21.7976 44.9602C20.6528 44.6227 19.4749 44.406 18.2837 44.3136C17.0305 44.2213 15.8416 44.1404 14.723 44.0827C13.7891 44.0547 12.8623 43.9112 11.9647 43.6555C11.668 43.6017 11.3982 43.4513 11.1985 43.2284C10.9989 43.0054 10.881 42.7229 10.8637 42.426C10.8637 42.0508 11.1975 41.7621 11.8065 41.5601C12.5875 41.3337 13.3999 41.2305 14.2135 41.2541C15.2677 41.2497 16.3177 41.3857 17.335 41.6582C18.1165 41.822 18.8316 42.2096 19.3906 42.7723L25.3524 40.8212C24.7756 40.0278 24.076 39.3285 23.2793 38.7488C22.2077 38.0061 21.0067 37.464 19.7361 37.1498C17.8441 36.6877 15.899 36.4703 13.95 36.5032C9.65528 36.5032 6.56895 37.0805 4.69099 38.235C3.82485 38.7101 3.11047 39.4141 2.62831 40.2678C2.14614 41.1214 1.91534 42.0908 1.9619 43.0667C1.91658 44.2928 2.36257 45.4872 3.20346 46.3918C4.05699 47.2093 5.10358 47.8044 6.2488 48.1236C7.50642 48.5079 8.79896 48.7708 10.1082 48.9086C11.2795 49.0299 12.316 49.1395 13.2999 49.2261C14.1068 49.2822 14.9067 49.4117 15.6893 49.6129C16.275 49.7803 16.6088 50.0516 16.6264 50.4268C16.6264 50.906 16.1989 51.2523 15.338 51.4659C14.0555 51.7113 12.7491 51.8139 11.4434 51.7719C10.0085 51.8071 8.57922 51.5821 7.22682 51.108C6.55614 50.9158 5.94833 50.5535 5.46404 50.0574Z" fill="#282828"/>
<path fill-rule="evenodd" clip-rule="evenodd" d="M52.5315 43.7194C52.5459 42.563 52.2227 41.4268 51.6004 40.4464C50.9008 39.3809 49.8987 38.5418 48.719 38.0334C47.1601 37.3707 45.4732 37.0515 43.7762 37.0982H28.936V56.0094H36.7895V50.814H43.1086C44.6358 50.8345 46.1582 50.6401 47.6297 50.2367C48.9915 49.8876 50.2156 49.1435 51.1436 48.1009C52.0513 47.0733 52.514 45.6071 52.5433 43.7137L52.5315 43.7194ZM43.7762 43.7194C43.7762 44.6892 43.4131 45.33 42.7455 45.636C41.9305 45.9682 41.0486 46.1104 40.1686 46.0516H36.7895V41.8145H39.9637C40.9265 41.7622 41.8895 41.9158 42.7865 42.2647C43.0822 42.3789 43.3355 42.5793 43.5124 42.8393C43.6893 43.0993 43.7813 43.4064 43.7762 43.7194Z" fill="#282828"/>
<path fill-rule="evenodd" clip-rule="evenodd" d="M79.4602 50.8323C79.4772 49.8531 79.1245 48.9025 78.4705 48.1653C77.8484 47.5129 77.0775 47.0162 76.2216 46.7164C75.4486 46.4203 74.6392 46.2262 73.8146 46.1391V46.0237C74.921 45.8466 75.9509 45.3551 76.778 44.6094C77.2123 44.202 77.5515 43.7062 77.7718 43.1566C77.9921 42.6069 78.0883 42.0166 78.0538 41.4265C78.0192 40.8365 77.8547 40.261 77.5717 39.74C77.2887 39.219 76.8939 38.765 76.4149 38.4096C75.3256 37.5494 73.7502 37.0992 71.6887 37.0703H55.7476V55.9815H71.4486C72.7291 55.9972 74.0064 55.8517 75.2494 55.5485C76.366 55.3098 77.3985 54.784 78.2421 54.0245C78.6488 53.6039 78.9661 53.1074 79.1753 52.5641C79.3845 52.0208 79.4813 51.4418 79.4602 50.8611V50.8323ZM70.0606 42.7794C70.0766 42.9963 70.0301 43.2133 69.9265 43.4053C69.8229 43.5973 69.6664 43.7565 69.475 43.8647C68.8664 44.1658 68.1865 44.2995 67.5072 44.2515H63.4605V41.3652H67.3901C68.1034 41.3173 68.8171 41.4504 69.4633 41.7519C69.6467 41.8482 69.799 41.9935 69.9025 42.1712C70.0061 42.3488 70.0568 42.5516 70.0489 42.7564L70.0606 42.7794ZM70.5292 50.0299C70.5563 50.3123 70.5052 50.5967 70.3815 50.8529C70.2578 51.109 70.0659 51.3273 69.8264 51.4846C69.1389 51.8415 68.3645 52.0033 67.5892 51.9522H63.4546V48.3154H67.4721C68.2952 48.2495 69.1211 48.4052 69.8615 48.7657C70.0804 48.8951 70.2586 49.0817 70.3764 49.3048C70.4943 49.528 70.5471 49.7789 70.5292 50.0299Z" fill="#282828"/>
<path fill-rule="evenodd" clip-rule="evenodd" d="M101.866 56.0088V50.8134L103.752 49.1567L108.876 56.0088H118.656L109.398 44.2961L117.719 37.0977H109.368L101.866 43.638V37.0977H94.0068V56.0088H101.866Z" fill="#282828"/>
<path fill-rule="evenodd" clip-rule="evenodd" d="M184.172 56.0088V50.6633H171.458V37.0977H163.604V56.0088H184.172Z" fill="#282828"/>
<path fill-rule="evenodd" clip-rule="evenodd" d="M187.071 56.0088H208.108V51.1771H194.925V48.5967H205.367V44.0768H194.925V41.8139H207.463V37.0977H187.071V56.0088Z" fill="#282828"/>
<path fill-rule="evenodd" clip-rule="evenodd" d="M215.669 50.0575L210.199 52.7244C211.512 54.115 213.193 55.1149 215.054 55.6107C217.65 56.3157 220.338 56.6367 223.03 56.5632C225.255 56.5985 227.476 56.362 229.642 55.859C231.298 55.5139 232.836 54.7522 234.105 53.6481C234.64 53.1489 235.062 52.5447 235.346 51.8746C235.629 51.2044 235.767 50.4832 235.75 49.7573C235.804 48.602 235.419 47.4685 234.673 46.5766C233.95 45.8029 233.024 45.2431 231.996 44.9602C230.852 44.6229 229.674 44.4062 228.482 44.3137C227.223 44.2213 226.034 44.1405 224.916 44.0828C223.982 44.0548 223.055 43.9113 222.158 43.6556C221.861 43.6018 221.591 43.4514 221.391 43.2284C221.192 43.0055 221.074 42.7229 221.057 42.4261C221.057 42.0508 221.384 41.7622 221.999 41.5602C222.78 41.3338 223.593 41.2305 224.406 41.2542C225.462 41.2508 226.514 41.3867 227.534 41.6583C228.313 41.8235 229.026 42.2109 229.583 42.7724L235.551 40.8213C234.97 40.0291 234.269 39.3301 233.472 38.7489C232.399 38.0051 231.196 37.4631 229.923 37.1499C228.033 36.6874 226.09 36.47 224.143 36.5033C219.848 36.5033 216.762 37.0806 214.884 38.2351C214.019 38.7112 213.305 39.4154 212.823 40.2688C212.341 41.1222 212.11 42.0911 212.155 43.0668C212.109 44.2929 212.555 45.4873 213.396 46.3918C214.249 47.2105 215.296 47.8059 216.442 48.1236C217.699 48.5085 218.992 48.7715 220.301 48.9087C221.472 49.0299 222.509 49.1396 223.493 49.2262C224.3 49.2823 225.1 49.4118 225.882 49.613C226.468 49.7804 226.802 50.0517 226.819 50.4269C226.819 50.906 226.392 51.2524 225.531 51.466C224.248 51.7117 222.942 51.8143 221.636 51.7719C220.201 51.8064 218.772 51.5814 217.42 51.1081C216.753 50.914 216.15 50.5519 215.669 50.0575Z" fill="#282828"/>
<path fill-rule="evenodd" clip-rule="evenodd" d="M265.998 46.3698C266.003 44.724 265.55 43.1084 264.686 41.6997C263.795 40.2727 262.531 39.1082 261.026 38.3285C260.165 37.8852 259.255 37.5405 258.314 37.301C257.308 37.0388 256.285 36.846 255.252 36.7237C254.28 36.6004 253.302 36.5367 252.323 36.5332C250.835 36.5453 249.351 36.6941 247.89 36.9777C246.426 37.2385 245.008 37.7051 243.679 38.3631C242.172 39.1555 240.901 40.3239 239.996 41.7517C239.125 43.1538 238.667 44.7665 238.672 46.4102C238.651 47.7958 238.918 49.1709 239.457 50.451C239.93 51.547 240.635 52.5309 241.524 53.3373C242.915 54.5531 244.582 55.4221 246.385 55.8715C248.351 56.3775 250.379 56.6164 252.411 56.5816C254.407 56.608 256.396 56.3672 258.326 55.8657C260.114 55.4213 261.767 54.5601 263.146 53.3547C264.028 52.5421 264.732 51.5597 265.213 50.4683C265.757 49.1756 266.024 47.7862 265.998 46.3871V46.3698ZM257.301 46.5949C257.317 47.2261 257.204 47.854 256.969 48.4411C256.734 49.0283 256.38 49.5626 255.931 50.0123C254.972 50.9046 253.694 51.3862 252.376 51.3515C251.055 51.383 249.774 50.9021 248.809 50.0123C248.355 49.5647 247.996 49.0315 247.754 48.4444C247.513 47.8573 247.394 47.2283 247.404 46.5949C247.379 45.3506 247.831 44.1428 248.669 43.2121C249.134 42.7306 249.698 42.3519 250.323 42.1012C250.948 41.8504 251.62 41.7332 252.294 41.7574C252.952 41.7262 253.609 41.8291 254.224 42.0599C254.839 42.2906 255.399 42.6442 255.869 43.0984C256.339 43.5525 256.709 44.0975 256.956 44.6992C257.202 45.3009 257.32 45.9463 257.301 46.5949Z" fill="#282828"/>
<path d="M161.338 29.3401V24.8028L162.867 24.6527L161.561 22.5053C161.561 22.5053 151.218 10.2615 149.907 8.0737C149.367 7.23123 148.878 6.35804 148.442 5.45869L149.866 4.4023L150.305 4.75443L156.747 0.5L156.823 0.927174L154.363 2.5262L155.201 3.97513L154.129 2.64742L150.557 5.53374L156.366 6.51508L159.025 4.44848L158.551 3.87122L158.709 3.63454L159.265 4.29839L162.357 2.2722L162.48 2.54351L156.882 6.44581L172.975 24.1158H177.976V24.7797H184.132H189.625V27.2619H196.893V26.5808H198.38L199.891 26.2459L201.32 25.9111L201.794 25.3858L208.067 25.432V26.0554L216.711 25.6225V26.575H228.705V26.3152L233.144 25.4609L233.536 25.7957H236.951V26.2286H238.614V26.7655L264.154 27.7872V29.3285L161.338 29.3401ZM29.481 26.4538H31.1384V25.738H34.5527L34.9451 25.1607L39.3843 26.5519V27.031H51.3782V25.4782L60.0223 26.1882V25.1722L66.2945 25.0914L66.7689 25.9515L68.1978 26.5288L69.7088 27.0714H72.0865V26.1363H72.4847C72.4847 26.1363 72.0865 25.357 72.4847 25.357H73.3573L74.3939 26.3729V26.8405H75.5652C75.5652 26.8405 75.249 26.2171 75.5652 26.2171H78.5813L79.3777 26.9964C79.3777 26.9964 79.612 26.2171 80.959 26.2171C81.2979 26.1824 81.6403 26.2277 81.958 26.3491C82.2757 26.4705 82.5596 26.6647 82.7862 26.9156L85.7144 24.8663L86.3469 25.4897C86.3469 25.4897 86.587 24.6296 87.3015 24.6296C88.016 24.6296 88.3322 25.4897 88.3322 25.4897H89.3629L90.6338 25.5705L91.4244 24.7104V23.5559L92.1857 22.7362V19.3881H91.6645V19.0706H92.379V18.3721C92.3986 18.1927 92.4622 18.0207 92.5642 17.8708C92.6662 17.721 92.8036 17.5979 92.9646 17.5119V16.0688C92.944 15.8996 92.9617 15.728 93.0164 15.5663C93.0711 15.4046 93.1614 15.2568 93.2809 15.1336L93.562 3.8539L93.8782 15.1336C94.0011 15.2643 94.0961 15.418 94.1575 15.5856C94.2189 15.7532 94.2454 15.9313 94.2355 16.1092V17.5524C94.2355 17.5524 94.8211 17.8641 94.8211 18.2566V18.9955H95.4068V19.2668H94.9675V24.8894H98.1066V22.9094C98.1066 22.2859 98.821 22.0088 98.821 22.0088L98.9382 20.7619L99.1783 22.0896C99.3801 22.1127 99.5657 22.2099 99.6981 22.3618C99.8305 22.5137 99.9 22.7092 99.8928 22.9094V23.7291H100.478V22.8516C100.478 22.2282 100.871 22.2744 100.871 22.2744L100.988 21.4951L101.187 22.234C101.187 22.234 101.773 22.1936 101.773 22.8574V23.7579H102.206V24.2659L104.068 23.2384V24.0985H105.415L104.941 23.0825L120.279 4.84679L115.512 1.64298L115.395 1.33126L118.493 3.32282L119.324 3.28241L119.6 3.36323L118.809 3.47868L121.07 4.88143L127.383 6.03596L124.402 4.20026L123.928 4.77752L123.687 4.54662L124.004 3.96935L122.832 3.06882L128.033 6.03596L129.579 6.50354L129.936 7.01153L116.736 24.9298H118.217V29.3458H4.51514L4.56785 27.3139H29.481V26.4538Z" fill="#A8A8A7"/>
<path d="M150.756 52.5804C151.246 51.3691 151.474 50.0699 151.425 48.7665C151.375 47.4632 151.05 46.1844 150.469 45.0125C148.952 41.9588 144.653 42.4783 144.653 42.4783C144.653 42.4783 144.765 42.6111 143.277 41.9357C140.443 40.6426 138.633 39.6267 138.785 37.791C138.99 35.3434 143.687 34.3909 146.246 35.4126C148.806 36.4344 151.353 38.2643 152.53 42.7497C152.946 44.4039 153.075 46.1156 152.911 47.8123C152.524 49.5229 151.787 51.1375 150.744 52.5574L150.756 52.5804ZM143.265 33.0228C141.28 32.6533 138.715 32.4455 136.449 33.2594C131.957 34.8238 130.165 37.4735 130.007 40.735C129.848 44.4006 132.7 46.2652 136.911 47.8931C141.122 49.521 142.024 50.4734 142.024 52.5112C142.024 54.5489 139.746 55.8824 137.924 56.2922C135.907 56.7236 133.807 56.5977 131.857 55.9286C133.646 57.2584 135.751 58.1131 137.971 58.4108C140.595 58.3242 143.962 58.4108 147.037 55.6803C151.529 51.6395 148.975 46.0458 146.486 44.822C144.325 43.7599 140.935 42.1608 139.166 41.2892C136.823 40.1347 136.238 37.7275 137.784 35.9899C139.441 34.1542 143.178 33.017 147.74 35.2106C146.386 34.1996 144.847 33.4566 143.207 33.0228H143.265ZM129.081 38.2585C128.056 39.6581 127.33 41.2491 126.949 42.9344C126.786 44.6039 126.913 46.2886 127.324 47.9162C128.496 52.3322 130.996 54.1391 133.515 55.1435C136.033 56.1479 140.654 55.207 140.853 52.7998C141.011 51.0045 139.225 49.9943 136.437 48.7186C134.967 48.0547 135.137 48.2048 135.137 48.2048C135.137 48.2048 130.856 48.7186 129.362 45.711C128.789 44.5573 128.468 43.2979 128.42 42.0142C128.371 40.7305 128.597 39.4511 129.081 38.2585Z" fill="#E43A2D"/>
<path d="M139.934 25.9277C143.802 25.9346 147.582 27.0715 150.795 29.1949C154.008 31.3183 156.51 34.3328 157.986 37.8575C159.461 41.3822 159.844 45.259 159.085 48.9979C158.326 52.7368 156.46 56.17 153.722 58.8638C150.984 61.5576 147.498 63.391 143.703 64.1324C139.909 64.8738 135.976 64.4898 132.403 63.0291C128.83 61.5683 125.776 59.0963 123.628 55.9254C121.479 52.7546 120.333 49.0271 120.333 45.2141C120.339 40.0949 122.407 35.1877 126.083 31.5711C129.758 27.9545 134.74 25.9247 139.934 25.9277ZM139.934 30.39C136.961 30.3968 134.057 31.2721 131.588 32.9051C129.12 34.5382 127.197 36.8558 126.065 39.5651C124.932 42.2745 124.639 45.254 125.223 48.1273C125.807 51.0006 127.242 53.6388 129.347 55.7085C131.452 57.7783 134.132 59.1867 137.048 59.7559C139.964 60.3251 142.986 60.0295 145.732 58.9065C148.478 57.7835 150.825 55.8834 152.476 53.4463C154.127 51.0093 155.008 48.1446 155.008 45.2141C155.006 43.2651 154.614 41.3356 153.856 39.5359C153.097 37.7361 151.986 36.1012 150.586 34.7247C149.186 33.3481 147.525 32.2568 145.697 31.5131C143.87 30.7693 141.911 30.3877 139.934 30.39Z" fill="#282828"/>
</svg>
